<svg width="80" height="80" viewBox="0 0 80 80" xmlns="http://www.w3.org/2000/svg"><path d="M35 47h13v1H35v1h-1v-1h-1v-1h1v-1h1v1zm0 3v-1h1v1h-1zm0-4v-1h1v1h-1zm0-3v-1h1v1h-1zm2 0v-1h1v1h-1zm2 0v-1h1v1h-1zm2 0v-1h1v1h-1zm2 0v-1h1v1h-1zm2 0v-1h1v1h-1zm2 0v-1h1v1h-1zm-12-2v-1h1v1h-1zm12 0v-1h1v1h-1zm-12-2v-1h1v1h-1zm12 0v-1h1v1h-1zm-12-2v-1h1v1h-1zm12 0v-1h1v1h-1zm-12-2v-1h1v1h-1zm12 0v-1h1v1h-1zm-12-2v-1h1v1h-1zm2-2v-1h1v1h-1zm2 0v-1h1v1h-1zm2 0v-1h1v1h-1zm2 0v-1h1v1h-1zm2 0v-1h1v1h-1zm2 2v-1h1v1h-1zm-12-2v-1h1v1h-1zm12 0v-1h1v1h-1z" fill="#555" fill-rule="evenodd"></path></svg>