<svg width="80" height="80" viewBox="0 0 80 80" xmlns="http://www.w3.org/2000/svg"><path d="M46 34v1h-1v-1H32v-1h15v1h-1zm0-3h1v1H32v-1h13v-1h1v1zm2 1v1h-1v-1h1zm-3-3v1h-1v-1h1zm0 6v1h-1v-1h1zm1 3v1h-1v-1h1zm-2 0v1h-1v-1h1zm-2 0v1h-1v-1h1zm-2 0v1h-1v-1h1zm-2 0v1h-1v-1h1zm-2 0v1h-1v-1h1zm-2 0v1h-1v-1h1zm12 2v1h-1v-1h1zm-12 0v1h-1v-1h1zm12 2v1h-1v-1h1zm-12 0v1h-1v-1h1zm12 2v1h-1v-1h1zm-12 0v1h-1v-1h1zm12 2v1h-1v-1h1zm-12 0v1h-1v-1h1zm12 2v1h-1v-1h1zm-2 2v1h-1v-1h1zm-2 0v1h-1v-1h1zm-2 0v1h-1v-1h1zm-2 0v1h-1v-1h1zm-2 0v1h-1v-1h1zm-2-2v1h-1v-1h1zm12 2v1h-1v-1h1zm-12 0v1h-1v-1h1z" fill="#555" fill-rule="evenodd"></path></svg>