<svg width="80" height="80" viewBox="0 0 80 80" xmlns="http://www.w3.org/2000/svg"><path d="M34 47h14v-1H35v-1h-1v1h-1v1h1zm1 2h13v-1H33v1h1v1h1v-1zm-3-1h1v-1h-1v1zm3 3h1v-1h-1v1zm0-6h1v-1h-1v1zm-1-3h1v-1h-1v1zm2 0h1v-1h-1v1zm2 0h1v-1h-1v1zm2 0h1v-1h-1v1zm2 0h1v-1h-1v1zm2 0h1v-1h-1v1zm2 0h1v-1h-1v1zm-12-2h1v-1h-1v1zm12 0h1v-1h-1v1zm-12-2h1v-1h-1v1zm12 0h1v-1h-1v1zm-12-2h1v-1h-1v1zm12 0h1v-1h-1v1zm-12-2h1v-1h-1v1zm12 0h1v-1h-1v1zm-12-2h1v-1h-1v1zm2-2h1v-1h-1v1zm2 0h1v-1h-1v1zm2 0h1v-1h-1v1zm2 0h1v-1h-1v1zm2 0h1v-1h-1v1zm2 2h1v-1h-1v1zm-12-2h1v-1h-1v1zm12 0h1v-1h-1v1z" fill="#555" fill-rule="evenodd"></path></svg>