<svg width="80" height="80" viewBox="0 0 80 80" xmlns="http://www.w3.org/2000/svg"><path d="M46 46v-1h-1v1H32v1h15v-1h-1zm0 3h1v-1H32v1h13v1h1v-1zm2-1v-1h-1v1h1zm-3 3v-1h-1v1h1zm0-6v-1h-1v1h1zm1-3v-1h-1v1h1zm-2 0v-1h-1v1h1zm-2 0v-1h-1v1h1zm-2 0v-1h-1v1h1zm-2 0v-1h-1v1h1zm-2 0v-1h-1v1h1zm-2 0v-1h-1v1h1zm12-2v-1h-1v1h1zm-12 0v-1h-1v1h1zm12-2v-1h-1v1h1zm-12 0v-1h-1v1h1zm12-2v-1h-1v1h1zm-12 0v-1h-1v1h1zm12-2v-1h-1v1h1zm-12 0v-1h-1v1h1zm12-2v-1h-1v1h1zm-2-2v-1h-1v1h1zm-2 0v-1h-1v1h1zm-2 0v-1h-1v1h1zm-2 0v-1h-1v1h1zm-2 0v-1h-1v1h1zm-2 2v-1h-1v1h1zm12-2v-1h-1v1h1zm-12 0v-1h-1v1h1z" fill="#555" fill-rule="evenodd"></path></svg>