<svg width="80" height="80" viewBox="0 0 80 80" xmlns="http://www.w3.org/2000/svg"><path d="M46 40H32v1h13v1h1v-1h1v-1h-1zm-1-2H32v1h15v-1h-1v-1h-1v1zm3 1h-1v1h1v-1zm-3-3h-1v1h1v-1zm0 6h-1v1h1v-1zm1 3h-1v1h1v-1zm-2 0h-1v1h1v-1zm-2 0h-1v1h1v-1zm-2 0h-1v1h1v-1zm-2 0h-1v1h1v-1zm-2 0h-1v1h1v-1zm-2 0h-1v1h1v-1zm12 2h-1v1h1v-1zm-12 0h-1v1h1v-1zm12 2h-1v1h1v-1zm-12 0h-1v1h1v-1zm12 2h-1v1h1v-1zm-12 0h-1v1h1v-1zm12 2h-1v1h1v-1zm-12 0h-1v1h1v-1zm12 2h-1v1h1v-1zm-2 2h-1v1h1v-1zm-2 0h-1v1h1v-1zm-2 0h-1v1h1v-1zm-2 0h-1v1h1v-1zm-2 0h-1v1h1v-1zm-2-2h-1v1h1v-1zm12 2h-1v1h1v-1zm-12 0h-1v1h1v-1zm12-34h-1v1h1v-1zm-2-2h-1v1h1v-1zm-2 0h-1v1h1v-1zm-2 0h-1v1h1v-1zm-2 0h-1v1h1v-1zm-2 0h-1v1h1v-1zm-2 2h-1v1h1v-1zm12-2h-1v1h1v-1zm-12 0h-1v1h1v-1zm12 4h-1v1h1v-1zm-12 0h-1v1h1v-1zm12 2h-1v1h1v-1zm-12 0h-1v1h1v-1zm12 2h-1v1h1v-1zm-12 0h-1v1h1v-1zm12 2h-1v1h1v-1zm-12 0h-1v1h1v-1zm12 2h-1v1h1v-1zm-2 0h-1v1h1v-1zm-2 0h-1v1h1v-1zm-2 0h-1v1h1v-1zm-2 0h-1v1h1v-1zm-2 0h-1v1h1v-1zm-2 0h-1v1h1v-1z" fill="#555" fill-rule="evenodd"></path></svg>