<svg width="80" height="80" viewBox="0 0 80 80" xmlns="http://www.w3.org/2000/svg"><path d="M34 35h-1v-1h15v1h-1v1h-1v-1H35v1h-1v-1zm12-3v-1h1v1h1v1H33v-1h1v-1h1v1h11zm-14 1h1v1h-1v-1zm16 0h1v1h-1v-1zm-13-3h1v1h-1v-1zm0 6h1v1h-1v-1zm10-6h1v1h-1v-1zm0 6h1v1h-1v-1zm-11 3h1v1h-1v-1zm2 0h1v1h-1v-1zm2 0h1v1h-1v-1zm2 0h1v1h-1v-1zm2 0h1v1h-1v-1zm2 0h1v1h-1v-1zm2 0h1v1h-1v-1zm-12 2h1v1h-1v-1zm12 0h1v1h-1v-1zm-12 2h1v1h-1v-1zm12 0h1v1h-1v-1zm-12 2h1v1h-1v-1zm12 0h1v1h-1v-1zm-12 2h1v1h-1v-1zm12 0h1v1h-1v-1zm-12 2h1v1h-1v-1zm2 2h1v1h-1v-1zm2 0h1v1h-1v-1zm2 0h1v1h-1v-1zm2 0h1v1h-1v-1zm2 0h1v1h-1v-1zm2-2h1v1h-1v-1zm-12 2h1v1h-1v-1zm12 0h1v1h-1v-1z" fill="#555" fill-rule="evenodd"></path></svg>