<svg width="80" height="80" viewBox="0 0 80 80" xmlns="http://www.w3.org/2000/svg"><path d="M33 46h-1v-1h1v-1h1v1h11v-1h1v1h1v1H33zm13 2v1h-1v-1H34v1h-1v-1h-1v-1h15v1h-1zm-15-1v-1h1v1h-1zm16 0v-1h1v1h-1zm-13 3v-1h1v1h-1zm0-6v-1h1v1h-1zm10 6v-1h1v1h-1zm0-6v-1h1v1h-1zm-11-3v-1h1v1h-1zm2 0v-1h1v1h-1zm2 0v-1h1v1h-1zm2 0v-1h1v1h-1zm2 0v-1h1v1h-1zm2 0v-1h1v1h-1zm2 0v-1h1v1h-1zm-12-2v-1h1v1h-1zm12 0v-1h1v1h-1zm-12-2v-1h1v1h-1zm12 0v-1h1v1h-1zm-12-2v-1h1v1h-1zm12 0v-1h1v1h-1zm-12-2v-1h1v1h-1zm12 0v-1h1v1h-1zm-12-2v-1h1v1h-1zm2-2v-1h1v1h-1zm2 0v-1h1v1h-1zm2 0v-1h1v1h-1zm2 0v-1h1v1h-1zm2 0v-1h1v1h-1zm2 2v-1h1v1h-1zm-12-2v-1h1v1h-1zm12 0v-1h1v1h-1z" fill="#555" fill-rule="evenodd"></path></svg>