<svg width="80" height="80" viewBox="0 0 80 80" xmlns="http://www.w3.org/2000/svg"><g fill="#555" fill-rule="evenodd"><path d="M54 47H24v-1h30v-1h1v1h1v1h-1v1h-1v-1zm-1-3h1v1h-1v-1zm-1-1h1v1h-1v-1zm0 6h1v1h-1v-1zm1-1h1v1h-1v-1zM31 31l-2.776 7.284a6.505 6.505 0 0 1-.363.799c-.12.216-.252.393-.397.53a1.308 1.308 0 0 1-.485.297c-.18.06-.386.09-.622.09a2.46 2.46 0 0 1-.373-.028 1.5 1.5 0 0 1-.36-.103v-.943c.1.025.2.055.302.088.102.033.21.05.323.05.213 0 .383-.05.512-.147.13-.098.25-.24.363-.427l.414-1.099L25 31h1.195l1.873 5.268h.027L29.894 31H31zM32 38v-7h.99v7zM32.99 29v1H32v-1zM37.15 37.024c.446 0 .811-.108 1.098-.325.287-.217.48-.54.581-.97h1.06c-.152.73-.47 1.29-.953 1.682-.484.393-1.088.589-1.813.589-.523 0-.977-.087-1.362-.26a2.559 2.559 0 0 1-.96-.735 3.392 3.392 0 0 1-.584-1.12A5 5 0 0 1 34 34.468c0-.498.075-.958.224-1.379.149-.42.36-.787.632-1.1A2.842 2.842 0 0 1 37.04 31c.574.001 1.055.124 1.445.369.39.245.697.556.922.933.225.377.382.79.471 1.24.09.448.13.877.12 1.284h-4.87c-.009.295.025.574.103.836.078.263.2.496.365.7.165.203.377.365.636.484.26.12.566.18.919.18zm-.178-5.048c-.275 0-.523.049-.743.146a1.61 1.61 0 0 0-.56.407 2.107 2.107 0 0 0-.372.605c-.094.23-.15.475-.169.735h3.743a2.277 2.277 0 0 0-.176-.748 1.852 1.852 0 0 0-1.723-1.145zM41 38v-9h.99v9zM49 29v8.844h-1.046v-.866h-.027a1.652 1.652 0 0 1-.824.779 2.95 2.95 0 0 1-1.207.243c-.487 0-.914-.091-1.28-.274a2.544 2.544 0 0 1-.905-.742 3.27 3.27 0 0 1-.533-1.081A4.607 4.607 0 0 1 43 34.616c0-.453.06-.881.178-1.284a3.14 3.14 0 0 1 .533-1.06c.236-.303.536-.542.898-.717.362-.174.787-.261 1.274-.261a2.899 2.899 0 0 1 1.093.221c.187.077.363.179.526.305.163.127.305.288.425.483h.027V29H49zm-3.01 3.229c-.358 0-.657.07-.898.208-.242.14-.436.324-.584.555-.147.23-.252.492-.315.785a4.36 4.36 0 0 0-.094.913c0 .3.038.592.114.876.076.285.195.538.356.76.16.223.365.401.613.537.248.135.54.202.875.202.349 0 .645-.07.888-.212.244-.141.443-.324.597-.548.154-.225.266-.481.335-.77a3.82 3.82 0 0 0-.007-1.801 2.427 2.427 0 0 0-.342-.773 1.62 1.62 0 0 0-.616-.536c-.257-.131-.565-.196-.922-.196zM52.488 38c-.332 0-.645-.04-.937-.12a2.12 2.12 0 0 1-.779-.394 1.962 1.962 0 0 1-.541-.7c-.135-.283-.213-.631-.234-1.043h.959c.008.242.06.446.153.611.093.165.214.296.364.394.15.097.317.168.504.211.187.043.378.065.573.065.145 0 .301-.013.467-.039a1.5 1.5 0 0 0 .458-.146.984.984 0 0 0 .348-.3c.094-.127.14-.3.14-.517a.782.782 0 0 0-.165-.517 1.245 1.245 0 0 0-.432-.325 3.396 3.396 0 0 0-.61-.215 16.335 16.335 0 0 0-.717-.166 6.28 6.28 0 0 1-.7-.224 2.291 2.291 0 0 1-.613-.348 1.663 1.663 0 0 1-.433-.527c-.11-.208-.165-.473-.165-.794 0-.338.065-.627.196-.865.13-.239.303-.436.517-.592.214-.156.448-.27.703-.342.256-.071.51-.107.763-.107.324 0 .628.034.912.1.285.068.536.182.754.342.218.16.392.374.523.641.13.267.204.6.22.999h-.952a1.22 1.22 0 0 0-.152-.534 1.031 1.031 0 0 0-.321-.341 1.276 1.276 0 0 0-.423-.18 2.113 2.113 0 0 0-.467-.051c-.146 0-.291.01-.436.032a1.219 1.219 0 0 0-.396.127.82.82 0 0 0-.292.26.719.719 0 0 0-.116.42c0 .195.058.355.172.478.114.124.262.226.445.306.183.08.39.147.62.202.23.054.455.111.675.172.237.06.472.133.707.218.234.085.44.198.62.342.178.143.322.323.432.54.11.216.165.485.165.806 0 .4-.074.734-.221 1.005-.147.271-.34.49-.58.654a2.378 2.378 0 0 1-.809.355c-.3.071-.6.107-.9.107z"></path></g></svg>