<svg xmlns="http://www.w3.org/2000/svg" width="80" height="80" viewBox="0 0 80 80"><g fill="#555" fill-rule="evenodd"><path d="M23.114 49.235c1.188.165 2.013.979 2.013 1.991 0 1.144-1.067 2.013-2.486 2.013-1.441 0-2.486-.869-2.486-2.013 0-1.056.902-1.903 2.167-2.013-.022-.176-.132-.275-.462-.374l.176-.308c.33.066.88.176 1.232.253-.044.11-.11.264-.154.451zm.957 1.936c0-.825-.638-1.474-1.419-1.474-.803 0-1.441.649-1.441 1.474 0 .869.638 1.463 1.441 1.463.792 0 1.419-.594 1.419-1.463zm1.474-3.278l.187-.396c.693.088 1.727.286 2.288.385a7.805 7.805 0 0 0-.121.957v4.4c0 .649-.088 1.584-.187 2.068l-.737.121a21.382 21.382 0 0 1-.088-1.826v-4.785c0-.44-.407-.693-1.342-.924zm3.069 8.745l-.143.836a62.847 62.847 0 0 0-4.95.088c-.517.033-.704-.242-.704-.561V55.67c0-.627-.066-.715-.957-.935l.187-.396c.429.055 1.408.176 1.848.242a8.342 8.342 0 0 0-.066.836v1.243c0 .264.055.297.352.308 1.078.022 3.201-.143 4.433-.33zm6.369-7.282c1.166.627 2.607 1.188 3.971 1.617l-.77.781c-.99-.583-2.42-1.353-3.575-2.002-1.111 1.1-2.552 1.87-3.971 2.398l-.275-.363c1.76-.737 3.267-1.925 3.993-3.124.088-.143.077-.253-.022-.33a3.742 3.742 0 0 0-.671-.374l.275-.33c.561.154 1.364.396 1.903.594a6.141 6.141 0 0 1-.858 1.133zm.44 4.18v1.903c0 .759-.077 1.793-.187 2.387l-.759.132c-.066-.495-.066-1.529-.066-2.156v-2.244a64.224 64.224 0 0 0-2.673.099c-.55.033-1.21.099-1.716.165l-.363-.935c.638.077 1.43.132 2.068.154 1.056.044 4.18-.055 5.214-.099a32.099 32.099 0 0 0 2.794-.253l-.132.88a65.768 65.768 0 0 0-2.519-.066c-.385 0-.979 0-1.661.033zm11.66-1.551c-1.067-.033-2.464.022-3.674.066a1.587 1.587 0 0 1-.055.264l-.693.11a8.062 8.062 0 0 1-.099-1.144v-2.068c0-.451-.132-.616-.891-.781l.176-.374a17.21 17.21 0 0 1 1.815.264 6.372 6.372 0 0 0-.121.88v.341a65.83 65.83 0 0 0 3.498-.154v-.528c0-.451-.176-.605-.979-.803l.165-.385c.594.066 1.375.165 1.914.275-.033.264-.099.737-.099.902v1.793c0 .66-.11 1.221-.187 1.551l-.726.11c-.011-.088-.033-.198-.044-.319zm-.044-.627v-1.32a41.59 41.59 0 0 0-3.498.055v.726c0 .242-.011.462-.044.671a97.056 97.056 0 0 0 3.542-.132zm1.925 5.335l-.143.847c-1.771-.099-4.268-.055-5.544.022-.517.033-.704-.242-.704-.561v-1.078c0-.627-.066-.715-.946-.935l.176-.396c.429.055 1.408.176 1.848.242a8.342 8.342 0 0 0-.066.836v.99c0 .264.055.297.352.308 1.078.022 3.795-.088 5.027-.275zm-2.948-2.959v.429c0 .506-.066 1.287-.143 1.804l-.781.11a21.744 21.744 0 0 1-.099-1.76v-.561c-1.199.033-2.42.077-2.882.11-.528.033-1.21.099-1.716.165l-.363-.935c.638.077 1.43.132 2.068.143 1.056.044 4.334-.044 5.368-.088a32.099 32.099 0 0 0 2.794-.253l-.132.88a65.768 65.768 0 0 0-2.519-.066c-.363 0-.935 0-1.595.022zm11.715-1.232c.363-.011.704-.033 1.056-.066v-3.619c0-.44-.253-.693-1.199-.924l.187-.396c.704.099 1.595.286 2.134.396a7.664 7.664 0 0 0-.121.946v5.951c0 .88-.077 2.376-.176 3.091l-.726.099c-.055-.506-.099-1.595-.099-2.42v-2.508c-.352.011-.704.022-1.056.044v1.309c0 .891-.055 2.376-.176 3.102l-.693.088c-.055-.484-.11-1.606-.11-2.409v-5.94c0-.429-.22-.671-1.089-.891l.187-.385c.682.088 1.463.231 2.002.374a7.664 7.664 0 0 0-.121.946v3.212zm-2.354-3.663l-.154.682c-.484-.011-1.111.022-1.496.022-.198 0-.77.044-1.122.099l-.451-.814a9.044 9.044 0 0 0 1.43.165c.352 0 1.166-.077 1.793-.154zm1.122 1.221l-.132.803c-.935-.011-2.761.055-3.641.099-.33.022-1.144.099-1.485.143l-.396-.88c.363.077 1.188.165 1.562.165.924-.011 2.75-.077 4.092-.33zm-.286 3.223c0 1.001-.968 1.815-2.233 1.815-1.243 0-2.222-.836-2.222-1.815 0-1.067.979-1.826 2.222-1.826 1.331 0 2.233.858 2.233 1.826zm-3.388-.044c0 .737.506 1.32 1.166 1.32.616 0 1.166-.561 1.166-1.32 0-.671-.506-1.276-1.166-1.276-.649 0-1.166.517-1.166 1.276zM13 40h-1v-1h1v-1h1v1h52v-1h1v1h1v1h-1v1h-1v-1H14v1h-1v-1zm52-3h1v1h-1v-1zm-1-1h1v1h-1v-1zm-1-1h1v1h-1v-1zm0 8h1v1h-1v-1zm1-1h1v1h-1v-1zm1-1h1v1h-1v-1zm-50-4v1h-1v-1h1zm1-1v1h-1v-1h1zm1-1v1h-1v-1h1zm0 8v1h-1v-1h1zm-1-1v1h-1v-1h1zm-1-1v1h-1v-1h1zM34.609 25.479a17.16 17.16 0 0 0 2.431 1.705l-.792.704a49.723 49.723 0 0 0-2.013-2.035c-.979 1.001-2.178 1.782-3.289 2.288l-.286-.33c1.903-1.034 3.344-2.607 4.103-4.268-.418.011-1.089.055-1.496.066-.319.011-1.111.099-1.573.165l-.561-.869c.363.066 1.221.154 1.672.154 1.067.011 2.167-.077 2.992-.253l.319.308c-.352.869-.88 1.661-1.507 2.365zm5.027 5.203l-.143.847c-1.749-.099-3.641-.044-4.917.033-.517.033-.704-.242-.704-.561v-1.309c0-.627-.066-.715-.957-.935l.187-.396c.429.055 1.408.176 1.848.242a8.342 8.342 0 0 0-.066.836v1.221c0 .264.055.297.352.308 1.078.022 3.168-.099 4.4-.286zm-1.694-5.181c-.77.044-1.518.121-2.002.231l-.396-.825c.319.055 1.001.11 1.43.099.264 0 .638-.011.968-.022v-2.167c0-.44-.407-.693-1.342-.924l.187-.396c.693.088 1.727.286 2.288.385a7.805 7.805 0 0 0-.121.957v4.51c0 .649-.088 1.584-.187 2.068l-.737.121a21.382 21.382 0 0 1-.088-1.826v-2.211zm9.636.517c.385-.011.77-.033 1.144-.077v-3.124c0-.44-.253-.693-1.177-.924l.165-.396c.704.099 1.595.286 2.134.396a7.37 7.37 0 0 0-.11.946v5.951c0 .88-.077 2.376-.187 3.091l-.726.099a34.874 34.874 0 0 1-.099-2.42v-3.003c-.385.011-.759.022-1.144.044v1.804c0 .891-.088 2.376-.198 3.102l-.704.088a35.615 35.615 0 0 1-.088-2.409v-5.94c0-.429-.198-.671-1.089-.891l.187-.385c.704.088 1.463.231 2.002.374a7.37 7.37 0 0 0-.11.946v2.728zm-1.958-2.486l.341.319c-.825 2.519-2.255 4.279-4.543 5.764l-.308-.297c1.859-1.353 3.091-3.245 3.564-5.038-.396.011-.935.022-1.342.044-.297.022-1.023.121-1.463.198l-.539-.858c.396.066 1.089.132 1.562.132 1.045.011 1.837-.055 2.728-.264z"></path></g></svg>