<svg xmlns="http://www.w3.org/2000/svg" width="80" height="80" viewBox="0 0 80 80"><g fill="#555" fill-rule="evenodd"><path d="M56 48v1h-1v-1H24v-1h33v1h-1zm0-2H24v-1h31v-1h1v1h1v1h-1zm2 0v1h-1v-1h1zm-3-3v1h-1v-1h1zm-1-1v1h-1v-1h1zm1 7v1h-1v-1h1zm-1 1v1h-1v-1h1zM36.117 32.952c-1.067-.033-2.486.022-3.696.066a2.05 2.05 0 0 1-.055.297l-.693.11a8.062 8.062 0 0 1-.099-1.144v-2.068c0-.451-.132-.616-.88-.781l.165-.374a17.21 17.21 0 0 1 1.815.264 6.372 6.372 0 0 0-.121.88v.308a66.527 66.527 0 0 0 3.531-.154v-.495c0-.451-.187-.605-.99-.803l.165-.385c.594.066 1.375.165 1.936.275a6.634 6.634 0 0 0-.121.902v1.793c0 .66-.11 1.221-.187 1.551l-.726.11c-.011-.099-.022-.22-.044-.352zm-.033-.627v-1.309a42.238 42.238 0 0 0-3.531.044v.759c0 .231-.011.44-.044.638 1.1-.022 2.464-.066 3.575-.132zm-1.111 2.464v1.65c0 .759-.077 1.793-.187 2.387l-.759.132c-.066-.495-.066-1.529-.066-2.156v-1.991a64.224 64.224 0 0 0-2.673.099c-.55.033-1.21.099-1.716.165l-.363-.935c.638.077 1.43.121 2.068.143 1.056.044 4.18-.044 5.214-.088a32.099 32.099 0 0 0 2.794-.253l-.132.88a65.768 65.768 0 0 0-2.519-.066c-.385 0-.979 0-1.661.033zm12.441-2.585c-.781.044-1.54.121-2.024.231l-.396-.825c.319.055 1.001.11 1.43.099.275-.011.649-.022.99-.022v-1.87c0-.44-.407-.693-1.342-.924l.187-.396c.693.088 1.727.286 2.288.385a7.805 7.805 0 0 0-.121.957v3.388c0 .517-.11 1.463-.187 1.826l-.737.11a12.332 12.332 0 0 1-.088-1.353v-1.606zm-.891 2.97c1.111.154 1.903.902 1.903 1.826 0 1.056-1.012 1.859-2.365 1.859-1.364 0-2.354-.803-2.354-1.859 0-.946.825-1.716 1.991-1.837-.022-.165-.132-.264-.44-.363l.176-.319c.308.066.88.176 1.21.253a3.108 3.108 0 0 0-.121.44zm.836 1.771c0-.737-.605-1.32-1.309-1.32s-1.309.583-1.309 1.32c0 .748.605 1.309 1.309 1.309.715 0 1.309-.561 1.309-1.309zm-3.256-4.719c.715.55 1.43.979 2.321 1.452l-.792.693A41.738 41.738 0 0 0 43.74 32.6c-1.001.99-2.222 1.76-3.355 2.255l-.275-.341c1.87-.946 3.344-2.453 4.103-4.125-.418.011-1.089.055-1.496.066-.319.011-1.111.099-1.573.165l-.561-.858a12.81 12.81 0 0 0 1.672.143c1.067.011 2.167-.066 2.992-.253l.319.308c-.341.847-.847 1.595-1.463 2.266z"></path></g></svg>