<svg width="80" height="80" viewBox="0 0 80 80" xmlns="http://www.w3.org/2000/svg"><g fill="#555" fill-rule="evenodd"><path d="M31 44h18v1H31v-1zm0 4h18v1H31v-1zM38 39.25l-2.218.75-.06-.043v-.924c-.513.678-1.086.967-1.931.967C32.116 40 31 38.745 31 36.898c0-2.05 1.403-3.68 3.138-3.68.603 0 1.01.159 1.584.62v-2.25c0-.592-.136-.737-.694-.737-.12 0-.211 0-.332.015v-.231c.966-.245 1.494-.39 2.218-.635l.075.029v8.182c0 .663.12.822.664.822.075 0 .09 0 .347-.014v.23zm-2.278-.866v-3.32c0-.764-.724-1.442-1.539-1.442-1.146 0-1.886 1.068-1.886 2.698 0 1.775.815 2.93 2.082 2.93.468 0 .845-.16 1.117-.462.135-.144.226-.303.226-.404zM44.76 37.779l.24.09C44.414 39.258 43.36 40 41.857 40 40.083 40 39 38.864 39 37.102c0-1.8 1.218-3.102 3.113-3.102.932 0 1.609.306 2.09.88.3.358.451.767.511 1.456h-4.631c.075.97.15 1.468.691 2.081.421.472.978.702 1.67.702 1.007 0 1.579-.396 2.315-1.34zm-4.647-1.851h3.067c-.165-1.034-.48-1.468-1.473-1.468-.842 0-1.429.51-1.594 1.468zM45.014 33.411v.469h1.13v4.597c0 1.07-.152 1.245-1.144 1.303V40h3.581v-.22c-1.13-.044-1.28-.205-1.28-1.303V33.88h1.68v-.469H47.3v-1.698c0-.864.247-1.303.77-1.303.304 0 .483.146.73.571.221.395.386.527.62.527.331 0 .579-.263.579-.6 0-.527-.606-.908-1.433-.908-.867 0-1.584.395-1.942 1.054-.358.659-.468 1.186-.482 2.357h-1.13z"></path></g></svg>