<svg width="80" height="80" viewBox="0 0 80 80" xmlns="http://www.w3.org/2000/svg"><g fill="#555" fill-rule="evenodd"><path d="M33 43h15v1H33v-1zm0 4h15v1H33v-1zM47 40v-.228l-.445-.03c-.514-.031-.737-.229-.737-.914V35.74c0-1.796-.6-2.739-1.987-2.739-.993 0-1.867.396-2.791 1.278-.309-.867-.891-1.278-1.816-1.278-.77 0-1.49.137-2.62 1.172h-.035v-1.126L36.432 33c-.873.29-1.439.457-2.38.685v.258c.222-.045.36-.06.547-.06.446 0 .6.258.6 1.004v3.774c0 .882-.24 1.096-1.199 1.11V40h3.802v-.228c-.907-.03-1.164-.183-1.164-.837v-4.23c0-.031.102-.138.222-.26.343-.365 1.182-.654 1.816-.654.736 0 1.113.64 1.113 1.69v3.21c0 .929-.188 1.02-1.164 1.08V40h3.836v-.228c-.976-.015-1.233-.229-1.233-1.218V34.72c.514-.655 1.028-.929 1.833-.929.976 0 1.318.502 1.318 1.705v3.134c0 .883-.154 1.05-1.113 1.142V40H47z"></path></g></svg>