<svg width="80" height="80" viewBox="0 0 80 80" xmlns="http://www.w3.org/2000/svg"><g fill="none" fill-rule="evenodd"><path d="M18 23h1v1h-1v-1zm2 0h1v1h-1v-1zm2 0h1v1h-1v-1zm2 0h1v1h-1v-1zm2 0h1v1h-1v-1zm-6 8h1v1h-1v-1zm2 0h1v1h-1v-1zm2 0h1v1h-1v-1zm2 0h1v1h-1v-1zm2-8h1v1h-1v-1zm-10 2h1v1h-1v-1zm10 0h1v1h-1v-1zm-10 2h1v1h-1v-1zm10 0h1v1h-1v-1zm-10 2h1v1h-1v-1zm10 0h1v1h-1v-1zm-10 2h1v1h-1v-1zm10 0h1v1h-1v-1zm-10 6h1v1h-1v-1zm2 0h1v1h-1v-1zm2 0h1v1h-1v-1zm2 0h1v1h-1v-1zm2 0h1v1h-1v-1zm-6 8h1v1h-1v-1zm2 0h1v1h-1v-1zm2 0h1v1h-1v-1zm2 0h1v1h-1v-1zm2-8h1v1h-1v-1zm-10 2h1v1h-1v-1zm10 0h1v1h-1v-1zm-10 2h1v1h-1v-1zm10 0h1v1h-1v-1zm-10 2h1v1h-1v-1zm10 0h1v1h-1v-1zm-10 2h1v1h-1v-1zm10 0h1v1h-1v-1zm-10 6h1v1h-1v-1zm2 0h1v1h-1v-1zm2 0h1v1h-1v-1zm2 0h1v1h-1v-1zm2 0h1v1h-1v-1zm-6 8h1v1h-1v-1zm2 0h1v1h-1v-1zm2 0h1v1h-1v-1zm2 0h1v1h-1v-1zm2-8h1v1h-1v-1zm-10 2h1v1h-1v-1zm10 0h1v1h-1v-1zm-10 2h1v1h-1v-1zm10 0h1v1h-1v-1zm-10 2h1v1h-1v-1zm10 0h1v1h-1v-1zm-10 2h1v1h-1v-1zm10 0h1v1h-1v-1zm8-36h1v1h-1v-1zm2 0h1v1h-1v-1zm2 0h1v1h-1v-1zm2 0h1v1h-1v-1zm2 0h1v1h-1v-1zm-6 8h1v1h-1v-1zm2 0h1v1h-1v-1zm2 0h1v1h-1v-1zm2 0h1v1h-1v-1zm2-8h1v1h-1v-1zm-10 2h1v1h-1v-1zm10 0h1v1h-1v-1zm-10 2h1v1h-1v-1zm10 0h1v1h-1v-1zm-10 2h1v1h-1v-1zm10 0h1v1h-1v-1zm-10 2h1v1h-1v-1zm10 0h1v1h-1v-1zm-10 6h1v1h-1v-1zm2 0h1v1h-1v-1zm2 0h1v1h-1v-1zm2 0h1v1h-1v-1zm2 0h1v1h-1v-1zm-6 8h1v1h-1v-1zm2 0h1v1h-1v-1zm2 0h1v1h-1v-1zm2 0h1v1h-1v-1zm2-8h1v1h-1v-1zm-10 2h1v1h-1v-1zm10 0h1v1h-1v-1zm-10 2h1v1h-1v-1zm10 0h1v1h-1v-1zm-10 2h1v1h-1v-1zm10 0h1v1h-1v-1zm-10 2h1v1h-1v-1zm10 0h1v1h-1v-1zm-10 6h1v1h-1v-1zm2 0h1v1h-1v-1zm2 0h1v1h-1v-1zm2 0h1v1h-1v-1zm2 0h1v1h-1v-1zm-6 8h1v1h-1v-1zm2 0h1v1h-1v-1zm2 0h1v1h-1v-1zm2 0h1v1h-1v-1zm2-8h1v1h-1v-1zm-10 2h1v1h-1v-1zm10 0h1v1h-1v-1zm-10 2h1v1h-1v-1zm10 0h1v1h-1v-1zm-10 2h1v1h-1v-1zm10 0h1v1h-1v-1zm-10 2h1v1h-1v-1zm10 0h1v1h-1v-1zm8-36h1v1h-1v-1zm2 0h1v1h-1v-1zm2 0h1v1h-1v-1zm2 0h1v1h-1v-1zm2 0h1v1h-1v-1zm-6 8h1v1h-1v-1zm2 0h1v1h-1v-1zm2 0h1v1h-1v-1zm2 0h1v1h-1v-1zm2-8h1v1h-1v-1zm-10 2h1v1h-1v-1zm10 0h1v1h-1v-1zm-10 2h1v1h-1v-1zm10 0h1v1h-1v-1zm-10 2h1v1h-1v-1zm10 0h1v1h-1v-1zm-10 2h1v1h-1v-1zm10 0h1v1h-1v-1zm-10 6h1v1h-1v-1zm2 0h1v1h-1v-1zm2 0h1v1h-1v-1zm2 0h1v1h-1v-1zm2 0h1v1h-1v-1zm-6 8h1v1h-1v-1zm2 0h1v1h-1v-1zm2 0h1v1h-1v-1zm2 0h1v1h-1v-1zm2-8h1v1h-1v-1zm-10 2h1v1h-1v-1zm10 0h1v1h-1v-1zm-10 2h1v1h-1v-1zm10 0h1v1h-1v-1zm-10 2h1v1h-1v-1zm10 0h1v1h-1v-1zm-10 2h1v1h-1v-1zm10 0h1v1h-1v-1zm-10 6h1v1h-1v-1zm2 0h1v1h-1v-1zm2 0h1v1h-1v-1zm2 0h1v1h-1v-1zm2 0h1v1h-1v-1zm-6 8h1v1h-1v-1zm2 0h1v1h-1v-1zm2 0h1v1h-1v-1zm2 0h1v1h-1v-1zm2-8h1v1h-1v-1zm-10 2h1v1h-1v-1zm10 0h1v1h-1v-1zm-10 2h1v1h-1v-1zm10 0h1v1h-1v-1zm-10 2h1v1h-1v-1zm10 0h1v1h-1v-1zm-10 2h1v1h-1v-1zm10 0h1v1h-1v-1z" fill="#555"></path><path stroke="#666" d="M11.5 34.5h60v14h-60z"></path><g transform="translate(5 29)"><rect fill="#666" width="12" height="12" rx="6"></rect><path d="M7 5h2v2H7v2H5V7H3V5h2V3h2v2z" fill="#FFF"></path></g></g></svg>