<svg width="80" height="80" viewBox="0 0 80 80" xmlns="http://www.w3.org/2000/svg"><g transform="translate(17 8)" fill="none" fill-rule="evenodd"><path d="M0 13h1v1H0v-1zm2 0h1v1H2v-1zm2 0h1v1H4v-1zm2 0h1v1H6v-1zm2 0h1v1H8v-1zm-6 8h1v1H2v-1zm2 0h1v1H4v-1zm2 0h1v1H6v-1zm2 0h1v1H8v-1zm2-8h1v1h-1v-1zM0 15h1v1H0v-1zm10 0h1v1h-1v-1zM0 17h1v1H0v-1zm10 0h1v1h-1v-1zM0 19h1v1H0v-1zm10 0h1v1h-1v-1zM0 21h1v1H0v-1zm10 0h1v1h-1v-1zM0 27h1v1H0v-1zm2 0h1v1H2v-1zm2 0h1v1H4v-1zm2 0h1v1H6v-1zm2 0h1v1H8v-1zm-6 8h1v1H2v-1zm2 0h1v1H4v-1zm2 0h1v1H6v-1zm2 0h1v1H8v-1zm2-8h1v1h-1v-1zM0 29h1v1H0v-1zm10 0h1v1h-1v-1zM0 31h1v1H0v-1zm10 0h1v1h-1v-1zM0 33h1v1H0v-1zm10 0h1v1h-1v-1zM0 35h1v1H0v-1zm10 0h1v1h-1v-1zM0 41h1v1H0v-1zm2 0h1v1H2v-1zm2 0h1v1H4v-1zm2 0h1v1H6v-1zm2 0h1v1H8v-1zm-6 8h1v1H2v-1zm2 0h1v1H4v-1zm2 0h1v1H6v-1zm2 0h1v1H8v-1zm2-8h1v1h-1v-1zM0 43h1v1H0v-1zm10 0h1v1h-1v-1zM0 45h1v1H0v-1zm10 0h1v1h-1v-1zM0 47h1v1H0v-1zm10 0h1v1h-1v-1zM0 49h1v1H0v-1zm10 0h1v1h-1v-1zm8-36h1v1h-1v-1zm2 0h1v1h-1v-1zm2 0h1v1h-1v-1zm2 0h1v1h-1v-1zm2 0h1v1h-1v-1zm-6 8h1v1h-1v-1zm2 0h1v1h-1v-1zm2 0h1v1h-1v-1zm2 0h1v1h-1v-1zm2-8h1v1h-1v-1zm-10 2h1v1h-1v-1zm10 0h1v1h-1v-1zm-10 2h1v1h-1v-1zm10 0h1v1h-1v-1zm-10 2h1v1h-1v-1zm10 0h1v1h-1v-1zm-10 2h1v1h-1v-1zm10 0h1v1h-1v-1zm-10 6h1v1h-1v-1zm2 0h1v1h-1v-1zm2 0h1v1h-1v-1zm2 0h1v1h-1v-1zm2 0h1v1h-1v-1zm-6 8h1v1h-1v-1zm2 0h1v1h-1v-1zm2 0h1v1h-1v-1zm2 0h1v1h-1v-1zm2-8h1v1h-1v-1zm-10 2h1v1h-1v-1zm10 0h1v1h-1v-1zm-10 2h1v1h-1v-1zm10 0h1v1h-1v-1zm-10 2h1v1h-1v-1zm10 0h1v1h-1v-1zm-10 2h1v1h-1v-1zm10 0h1v1h-1v-1zm-10 6h1v1h-1v-1zm2 0h1v1h-1v-1zm2 0h1v1h-1v-1zm2 0h1v1h-1v-1zm2 0h1v1h-1v-1zm-6 8h1v1h-1v-1zm2 0h1v1h-1v-1zm2 0h1v1h-1v-1zm2 0h1v1h-1v-1zm2-8h1v1h-1v-1zm-10 2h1v1h-1v-1zm10 0h1v1h-1v-1zm-10 2h1v1h-1v-1zm10 0h1v1h-1v-1zm-10 2h1v1h-1v-1zm10 0h1v1h-1v-1zm-10 2h1v1h-1v-1zm10 0h1v1h-1v-1zm8-36h1v1h-1v-1zm2 0h1v1h-1v-1zm2 0h1v1h-1v-1zm2 0h1v1h-1v-1zm2 0h1v1h-1v-1zm-6 8h1v1h-1v-1zm2 0h1v1h-1v-1zm2 0h1v1h-1v-1zm2 0h1v1h-1v-1zm2-8h1v1h-1v-1zm-10 2h1v1h-1v-1zm10 0h1v1h-1v-1zm-10 2h1v1h-1v-1zm10 0h1v1h-1v-1zm-10 2h1v1h-1v-1zm10 0h1v1h-1v-1zm-10 2h1v1h-1v-1zm10 0h1v1h-1v-1zm-10 6h1v1h-1v-1zm2 0h1v1h-1v-1zm2 0h1v1h-1v-1zm2 0h1v1h-1v-1zm2 0h1v1h-1v-1zm-6 8h1v1h-1v-1zm2 0h1v1h-1v-1zm2 0h1v1h-1v-1zm2 0h1v1h-1v-1zm2-8h1v1h-1v-1zm-10 2h1v1h-1v-1zm10 0h1v1h-1v-1zm-10 2h1v1h-1v-1zm10 0h1v1h-1v-1zm-10 2h1v1h-1v-1zm10 0h1v1h-1v-1zm-10 2h1v1h-1v-1zm10 0h1v1h-1v-1zm-10 6h1v1h-1v-1zm2 0h1v1h-1v-1zm2 0h1v1h-1v-1zm2 0h1v1h-1v-1zm2 0h1v1h-1v-1zm-6 8h1v1h-1v-1zm2 0h1v1h-1v-1zm2 0h1v1h-1v-1zm2 0h1v1h-1v-1zm2-8h1v1h-1v-1zm-10 2h1v1h-1v-1zm10 0h1v1h-1v-1zm-10 2h1v1h-1v-1zm10 0h1v1h-1v-1zm-10 2h1v1h-1v-1zm10 0h1v1h-1v-1zm-10 2h1v1h-1v-1zm10 0h1v1h-1v-1z" fill="#555"></path><path stroke="#666" d="M14.5 6.5h18v50h-18z"></path><rect fill="#666" x="9" width="12" height="12" rx="6"></rect><path d="M16 5h2v2h-2v2h-2V7h-2V5h2V3h2v2z" fill="#FFF"></path></g></svg>