<svg width="80" height="80" viewBox="0 0 80 80" xmlns="http://www.w3.org/2000/svg"><g fill="#555" fill-rule="evenodd"><path d="M17.146 52.999c-.24 0-.24.027-.373-.163C13.546 48.71 12 44.532 12 40c0-4.478 1.546-8.684 4.773-12.836.133-.19.133-.163.32-.163h.746c.213 0 .187 0 .08.19-2.8 4.45-4.186 8.711-4.186 12.809 0 4.152 1.44 8.358 4.213 12.809.08.135.053.19-.133.19h-.667zM62.164 52.999c-.16 0-.187-.055-.107-.19 2.784-4.45 4.203-8.657 4.203-12.809 0-4.125-1.392-8.358-4.176-12.809-.107-.19-.134-.19.053-.19h.75c.187 0 .16-.027.348.163C66.475 31.316 68 35.522 68 40c0 4.532-1.526 8.711-4.765 12.836-.187.19-.16.163-.402.163h-.669zM53.625 49.409a1.235 1.235 0 0 0-.164.017.49.49 0 0 0-.132.044.722.722 0 0 0-.12.076c-.038.03-.08.067-.123.11a.534.534 0 0 0-.123.216.639.639 0 0 0-.035.241.739.739 0 0 1-.006.144.558.558 0 0 1-.039.14.366.366 0 0 1-.203.202.546.546 0 0 1-.202.038.413.413 0 0 1-.393-.302.677.677 0 0 1-.024-.211.8.8 0 0 1 .04-.222.9.9 0 0 1 .288-.415c.122-.099.229-.172.322-.22.093-.047.178-.087.254-.12.137-.057.28-.096.427-.117.147-.02.286-.03.415-.03.506 0 .885.117 1.14.35.253.233.38.576.38 1.028a1.747 1.747 0 0 1-.174.809c-.06.125-.142.262-.247.413a9.385 9.385 0 0 1-.34.435c-.125.15-.338.397-.641.739-.51.583-.886 1.093-1.127 1.53h1.524a2.48 2.48 0 0 0 .322-.03.423.423 0 0 0 .193-.08.422.422 0 0 0 .12-.17c.03-.074.066-.173.107-.298h.34L55.335 55H52v-.204a5.183 5.183 0 0 1 .464-.942c.104-.166.226-.342.365-.526.139-.184.3-.383.484-.598.154-.182.286-.344.397-.484.111-.14.202-.262.272-.363.113-.151.206-.288.277-.411.072-.123.128-.24.169-.348.04-.109.068-.212.083-.311a2.01 2.01 0 0 0 .022-.3c0-.162-.019-.312-.057-.45a1.018 1.018 0 0 0-.17-.354.744.744 0 0 0-.284-.226.9.9 0 0 0-.397-.074zm4.596 0a1.235 1.235 0 0 0-.164.017.49.49 0 0 0-.132.044.722.722 0 0 0-.12.076c-.039.03-.08.067-.123.11a.534.534 0 0 0-.124.216.639.639 0 0 0-.034.241.739.739 0 0 1-.006.144.558.558 0 0 1-.039.14.366.366 0 0 1-.203.202.546.546 0 0 1-.202.038.413.413 0 0 1-.393-.302.677.677 0 0 1-.024-.211.8.8 0 0 1 .04-.222.9.9 0 0 1 .288-.415c.121-.099.229-.172.322-.22.093-.047.178-.087.253-.12.138-.057.28-.096.428-.117.147-.02.286-.03.415-.03.505 0 .885.117 1.139.35.254.233.381.576.381 1.028a1.747 1.747 0 0 1-.174.809c-.06.125-.142.262-.247.413a9.385 9.385 0 0 1-.34.435c-.125.15-.339.397-.641.739-.51.583-.886 1.093-1.127 1.53h1.524a2.48 2.48 0 0 0 .322-.03.423.423 0 0 0 .193-.08.422.422 0 0 0 .12-.17c.03-.074.066-.173.107-.298H60L59.931 55h-3.335v-.204a5.183 5.183 0 0 1 .464-.942c.104-.166.225-.342.365-.526.139-.184.3-.383.484-.598.154-.182.286-.344.397-.484.11-.14.201-.262.272-.363.113-.151.206-.288.277-.411.072-.123.128-.24.168-.348.04-.109.069-.212.083-.311a2.01 2.01 0 0 0 .023-.3c0-.162-.02-.312-.057-.45a1.018 1.018 0 0 0-.17-.354.744.744 0 0 0-.284-.226.9.9 0 0 0-.397-.074zM51 45.23l-1.475 6.12s-.016.036-.016.195c0 .196.097.302.227.302.162 0 .405-.035 1.037-.958l.195.213C50.465 51.936 49.59 53 48.812 53c-.534 0-.68-.408-.68-.976 0-.23.097-.603.178-.887h-.065C47.08 52.77 46.075 53 45.442 53 44.422 53 44 52.024 44 50.89c0-2.342 2.139-5.89 4.472-5.89.697 0 1.037.426 1.07.816h.016l.146-.585H51zm-1.701 1.544c0-.727-.195-1.26-.81-1.26-1.102 0-2.075 1.544-2.626 3.034-.291.798-.453 1.578-.453 2.2 0 .94.502 1.17.94 1.17 1.118 0 2.252-1.685 2.706-3.37.13-.462.243-1.171.243-1.774zM30.621 49.413a1.23 1.23 0 0 0-.164.017.489.489 0 0 0-.131.044.72.72 0 0 0-.12.076c-.038.03-.08.067-.123.11a.534.534 0 0 0-.123.215.64.64 0 0 0-.034.242.74.74 0 0 1-.006.143.558.558 0 0 1-.039.141.365.365 0 0 1-.202.202.543.543 0 0 1-.202.037.411.411 0 0 1-.392-.302.678.678 0 0 1-.024-.21.801.801 0 0 1 .04-.222.9.9 0 0 1 .287-.415c.121-.099.228-.172.321-.22.093-.047.178-.087.253-.119.138-.058.28-.097.427-.117.146-.02.285-.03.414-.03.504 0 .883.116 1.136.35.253.232.38.575.38 1.027a1.748 1.748 0 0 1-.174.808c-.06.124-.141.262-.247.412a9.376 9.376 0 0 1-.34.435c-.123.15-.336.397-.638.739-.51.582-.884 1.091-1.124 1.529h1.52a2.47 2.47 0 0 0 .322-.03.421.421 0 0 0 .192-.08.422.422 0 0 0 .119-.17c.031-.074.067-.173.107-.298h.34L32.326 55H29v-.204a5.184 5.184 0 0 1 .463-.94c.104-.167.225-.343.364-.527.138-.183.3-.383.483-.597.153-.182.285-.344.396-.484.11-.14.2-.262.27-.363a4.23 4.23 0 0 0 .278-.41c.071-.124.127-.24.167-.348a1.56 1.56 0 0 0 .083-.31c.015-.1.023-.2.023-.3 0-.163-.02-.313-.057-.45a1.018 1.018 0 0 0-.17-.354.743.743 0 0 0-.283-.226.896.896 0 0 0-.396-.074zm5.251 4.453c0 .168.009.295.026.38a.468.468 0 0 0 .093.209.437.437 0 0 0 .192.126c.084.03.19.053.316.07a5.4 5.4 0 0 0 .501.032V55h-2.987v-.317c.299-.015.512-.034.64-.059a.735.735 0 0 0 .293-.11.419.419 0 0 0 .148-.21c.031-.089.046-.235.046-.438v-3.523c0-.116-.018-.201-.056-.255a.19.19 0 0 0-.166-.08c-.086 0-.209.048-.368.143a9.155 9.155 0 0 0-.59.396l-.178-.335L35.674 49h.065c.1 0 .148.062.145.187a27.345 27.345 0 0 0-.012.969v3.71zM27 45.23l-1.475 6.12s-.016.036-.016.195c0 .196.097.302.227.302.162 0 .405-.035 1.037-.958l.195.213C26.465 51.936 25.59 53 24.813 53c-.535 0-.681-.408-.681-.976 0-.23.097-.603.178-.887h-.065C23.08 52.77 22.075 53 21.442 53 20.422 53 20 52.024 20 50.89c0-2.342 2.139-5.89 4.472-5.89.697 0 1.037.426 1.07.816h.016l.146-.585H27zm-1.701 1.544c0-.727-.195-1.26-.81-1.26-1.102 0-2.075 1.544-2.626 3.034-.291.798-.453 1.578-.453 2.2 0 .94.502 1.17.94 1.17 1.118 0 2.252-1.685 2.706-3.37.13-.462.243-1.171.243-1.774zM55.149 35.866c0 .168.009.295.027.38.018.086.05.155.095.209a.45.45 0 0 0 .198.126c.085.03.194.053.324.07.13.015.302.026.515.032V37h-3.071v-.317c.307-.015.527-.034.659-.059a.768.768 0 0 0 .3-.11.42.42 0 0 0 .153-.21c.031-.089.047-.235.047-.438v-3.523c0-.116-.019-.201-.058-.255a.197.197 0 0 0-.17-.08c-.089 0-.215.048-.378.143a9.436 9.436 0 0 0-.607.396L53 32.212 54.945 31h.066c.103 0 .153.062.15.187a26.599 26.599 0 0 0-.012.969v3.71zm4.027-4.453c-.064.003-.12.008-.169.017a.513.513 0 0 0-.135.044.744.744 0 0 0-.122.076c-.04.03-.083.067-.127.11a.531.531 0 0 0-.127.215.623.623 0 0 0-.035.242.72.72 0 0 1-.006.143.546.546 0 0 1-.04.141.383.383 0 0 1-.208.202.573.573 0 0 1-.208.037.433.433 0 0 1-.32-.148.403.403 0 0 1-.083-.154.66.66 0 0 1-.025-.21.782.782 0 0 1 .042-.222.89.89 0 0 1 .295-.415c.125-.099.235-.172.33-.22a3.91 3.91 0 0 1 .26-.119c.141-.058.288-.097.439-.117.15-.02.293-.03.426-.03.518 0 .907.116 1.167.35.26.232.391.575.391 1.027a1.716 1.716 0 0 1-.179.808 2.942 2.942 0 0 1-.253.412 9.407 9.407 0 0 1-.35.435c-.127.15-.346.397-.656.739-.524.582-.909 1.091-1.155 1.529h1.562c.139-.006.249-.016.33-.03a.44.44 0 0 0 .198-.08c.05-.04.09-.097.123-.17.032-.074.068-.173.11-.298H61L60.93 37h-3.42v-.204a5.109 5.109 0 0 1 .475-.94c.107-.167.231-.343.374-.527.143-.183.308-.383.497-.597.158-.182.293-.344.407-.484.113-.14.206-.262.278-.363.117-.15.212-.288.285-.41.073-.124.13-.24.172-.348.042-.109.07-.212.086-.31.015-.1.022-.2.022-.3 0-.163-.019-.313-.058-.45a1.006 1.006 0 0 0-.174-.354.76.76 0 0 0-.291-.226.944.944 0 0 0-.407-.074zM51 27.23l-1.475 6.12s-.016.036-.016.195c0 .196.097.302.227.302.162 0 .405-.035 1.037-.958l.195.213C50.465 33.936 49.59 35 48.812 35c-.534 0-.68-.408-.68-.976 0-.23.097-.603.178-.887h-.065C47.08 34.77 46.075 35 45.442 35 44.422 35 44 34.024 44 32.89c0-2.342 2.139-5.89 4.472-5.89.697 0 1.037.426 1.07.816h.016l.146-.585H51zm-1.701 1.544c0-.727-.195-1.26-.81-1.26-1.102 0-2.075 1.544-2.626 3.034-.291.798-.453 1.578-.453 2.2 0 .94.502 1.17.94 1.17 1.118 0 2.252-1.685 2.706-3.37.13-.462.243-1.171.243-1.774zM31.143 35.866c0 .168.009.295.027.38.018.086.05.155.095.209a.449.449 0 0 0 .197.126c.086.03.194.053.323.07.13.015.302.026.514.032V37h-3.063v-.317c.307-.015.526-.034.657-.059a.765.765 0 0 0 .3-.11.42.42 0 0 0 .152-.21c.032-.089.048-.235.048-.438v-3.523c0-.116-.02-.201-.058-.255a.196.196 0 0 0-.17-.08c-.089 0-.214.048-.377.143a9.409 9.409 0 0 0-.606.396L29 32.212 30.94 31h.066c.102 0 .152.062.15.187 0 .035-.003.102-.007.202-.004.1-.006.355-.006.767v3.71zm4.7 0c0 .168.01.295.027.38.018.086.05.155.096.209a.449.449 0 0 0 .197.126c.085.03.193.053.323.07.13.015.301.026.514.032V37h-3.063v-.317c.307-.015.526-.034.657-.059a.765.765 0 0 0 .3-.11.42.42 0 0 0 .152-.21c.031-.089.047-.235.047-.438v-3.523c0-.116-.02-.201-.058-.255a.196.196 0 0 0-.17-.08c-.088 0-.214.048-.377.143a9.409 9.409 0 0 0-.605.396l-.182-.335L35.64 31h.066c.102 0 .152.062.149.187a26.668 26.668 0 0 0-.012.969v3.71zM27 27.23l-1.475 6.12s-.016.036-.016.195c0 .196.097.302.227.302.162 0 .405-.035 1.037-.958l.195.213C26.465 33.936 25.59 35 24.813 35c-.535 0-.681-.408-.681-.976 0-.23.097-.603.178-.887h-.065C23.08 34.77 22.075 35 21.442 35 20.422 35 20 34.024 20 32.89c0-2.342 2.139-5.89 4.472-5.89.697 0 1.037.426 1.07.816h.016l.146-.585H27zm-1.701 1.544c0-.727-.195-1.26-.81-1.26-1.102 0-2.075 1.544-2.626 3.034-.291.798-.453 1.578-.453 2.2 0 .94.502 1.17.94 1.17 1.118 0 2.252-1.685 2.706-3.37.13-.462.243-1.171.243-1.774z"></path></g></svg>