<svg width="80" height="80" viewBox="0 0 80 80" xmlns="http://www.w3.org/2000/svg"><path d="M23 27h1v1h-1v-1zm2 0h1v1h-1v-1zm2 0h1v1h-1v-1zm2 0h1v1h-1v-1zm2 0h1v1h-1v-1zm-6 8h1v1h-1v-1zm2 0h1v1h-1v-1zm2 0h1v1h-1v-1zm2 0h1v1h-1v-1zm2-8h1v1h-1v-1zm-10 2h1v1h-1v-1zm10 0h1v1h-1v-1zm-10 2h1v1h-1v-1zm10 0h1v1h-1v-1zm-10 2h1v1h-1v-1zm10 0h1v1h-1v-1zm-10 2h1v1h-1v-1zm10 0h1v1h-1v-1zm13-8h1v1h-1v-1zm2 0h1v1h-1v-1zm2 0h1v1h-1v-1zm2 0h1v1h-1v-1zm2 0h1v1h-1v-1zm-6 8h1v1h-1v-1zm2 0h1v1h-1v-1zm2 0h1v1h-1v-1zm2 0h1v1h-1v-1zm2-8h1v1h-1v-1zm-10 2h1v1h-1v-1zm10 0h1v1h-1v-1zm-10 2h1v1h-1v-1zm10 0h1v1h-1v-1zm-10 2h1v1h-1v-1zm10 0h1v1h-1v-1zm-10 2h1v1h-1v-1zm10 0h1v1h-1v-1zm-33 9h1v1h-1v-1zm2 0h1v1h-1v-1zm2 0h1v1h-1v-1zm2 0h1v1h-1v-1zm2 0h1v1h-1v-1zm-6 8h1v1h-1v-1zm2 0h1v1h-1v-1zm2 0h1v1h-1v-1zm2 0h1v1h-1v-1zm2-8h1v1h-1v-1zm-10 2h1v1h-1v-1zm10 0h1v1h-1v-1zm-10 2h1v1h-1v-1zm10 0h1v1h-1v-1zm-10 2h1v1h-1v-1zm10 0h1v1h-1v-1zm-10 2h1v1h-1v-1zm10 0h1v1h-1v-1zm13-8h1v1h-1v-1zm2 0h1v1h-1v-1zm2 0h1v1h-1v-1zm2 0h1v1h-1v-1zm2 0h1v1h-1v-1zm-6 8h1v1h-1v-1zm2 0h1v1h-1v-1zm2 0h1v1h-1v-1zm2 0h1v1h-1v-1zm2-8h1v1h-1v-1zm-10 2h1v1h-1v-1zm10 0h1v1h-1v-1zm-10 2h1v1h-1v-1zm10 0h1v1h-1v-1zm-10 2h1v1h-1v-1zm10 0h1v1h-1v-1zm-10 2h1v1h-1v-1zm10 0h1v1h-1v-1z" fill="#555" fill-rule="evenodd"></path></svg>