<svg width="80" height="80" viewBox="0 0 80 80" xmlns="http://www.w3.org/2000/svg"><g fill="#555" fill-rule="evenodd"><path d="M40 26h1v1h-1v-1zm2 0h1v1h-1v-1zm2 0h1v1h-1v-1zm2 0h1v1h-1v-1zm2 0h1v1h-1v-1zm-6 8h1v1h-1v-1zm2 0h1v1h-1v-1zm2 0h1v1h-1v-1zm2 0h1v1h-1v-1zm2-8h1v1h-1v-1zm-10 2h1v1h-1v-1zm10 0h1v1h-1v-1zm-10 2h1v1h-1v-1zm10 0h1v1h-1v-1zm-10 2h1v1h-1v-1zm10 0h1v1h-1v-1zm-10 2h1v1h-1v-1zm10 0h1v1h-1v-1zm-10 9h1v1h-1v-1zm2 0h1v1h-1v-1zm2 0h1v1h-1v-1zm2 0h1v1h-1v-1zm2 0h1v1h-1v-1zm-6 8h1v1h-1v-1zm2 0h1v1h-1v-1zm2 0h1v1h-1v-1zm2 0h1v1h-1v-1zm2-8h1v1h-1v-1zm-10 2h1v1h-1v-1zm10 0h1v1h-1v-1zm-10 2h1v1h-1v-1zm10 0h1v1h-1v-1zm-10 2h1v1h-1v-1zm10 0h1v1h-1v-1zm-10 2h1v1h-1v-1zm10 0h1v1h-1v-1zM30 38.863c0-.41.222-.491.556-.628 1.444-.519 1.75-2.266 1.75-3.823v-4.534c0-1.393.444-3.878 3.083-3.878h1.083c.528 0 .528-.027.528.492v.082c0 .464 0 .464-.528.464h-.916c-1.667 0-2.084 1.803-2.084 3.059v4.806c0 2.103-.555 3.469-2.278 4.097 1.723.628 2.278 1.994 2.278 4.097v4.806c0 1.256.417 3.059 2.084 3.059h.916c.528 0 .528 0 .528.464v.082c0 .52 0 .492-.528.492H35.39c-2.639 0-3.083-2.485-3.083-3.878v-4.534c0-1.557-.306-3.304-1.75-3.823-.334-.137-.556-.219-.556-.628v-.274z"></path></g></svg>