<svg width="80" height="80" viewBox="0 0 80 80" xmlns="http://www.w3.org/2000/svg"><g fill="#555" fill-rule="evenodd"><path d="M28.504 54c-.322 0-.667-.071-1.038-.213a2.506 2.506 0 0 1-.965-.663 1.741 1.741 0 0 1-.332-.493 1.986 1.986 0 0 1-.15-.512 1.605 1.605 0 0 1 0-.48c.023-.155.067-.289.132-.402a.838.838 0 0 1 .217-.268 1.155 1.155 0 0 1 .76-.268c.153 0 .314.037.483.11a.873.873 0 0 1 .423.328c.096.146.153.3.169.463.024.138.058.251.102.34.044.09.11.183.2.28a.69.69 0 0 0 .313.208c.137.048.286.073.447.073.418 0 .754-.221 1.007-.664.254-.442.447-1.1.58-1.972.133-.872.219-1.954.26-3.244.04-1.29.06-2.788.06-4.492 0-5.242.394-9.08 1.182-11.516.813-2.41 2.189-3.615 4.128-3.615.33 0 .678.069 1.044.207.366.138.686.361.96.67.144.154.257.32.337.499a1.845 1.845 0 0 1 .163 1.016 1.22 1.22 0 0 1-.126.42.838.838 0 0 1-.218.268 1.154 1.154 0 0 1-.754.268 1.23 1.23 0 0 1-.489-.11.873.873 0 0 1-.422-.329 1.011 1.011 0 0 1-.17-.462 3.405 3.405 0 0 0-.078-.353.624.624 0 0 0-.187-.28 1.018 1.018 0 0 0-.338-.189 1.33 1.33 0 0 0-.458-.079c-.853 0-1.412.706-1.678 2.118-.137.706-.237 1.857-.302 3.451-.064 1.595-.096 3.67-.096 6.227 0 2.094-.097 3.964-.29 5.612-.193 1.647-.483 3.1-.869 4.358C31.74 52.77 30.403 54 28.504 54zM41 34h1v1h-1v-1zm2 0h1v1h-1v-1zm2 0h1v1h-1v-1zm2 0h1v1h-1v-1zm2 0h1v1h-1v-1zm4 0h1v1h-1v-1zm-12 4h1v1h-1v-1zm0-2h1v1h-1v-1zm12 0h1v1h-1v-1zm-12 4h1v1h-1v-1zm12-2h1v1h-1v-1zm-12 4h1v1h-1v-1zm12-2h1v1h-1v-1zm-12 4h1v1h-1v-1zm12-2h1v1h-1v-1zm-12 4h1v1h-1v-1zm2 0h1v1h-1v-1zm2 0h1v1h-1v-1zm2 0h1v1h-1v-1zm2 0h1v1h-1v-1zm2-12h1v1h-1v-1zm0 12h1v1h-1v-1zm2 0h1v1h-1v-1zm0-2h1v1h-1v-1z"></path></g></svg>