<svg width="80" height="80" viewBox="0 0 80 80" xmlns="http://www.w3.org/2000/svg"><g fill="#555" fill-rule="evenodd"><path d="M45.156 52.72l-.375-.978c-.225-.586-.581-1.315-1.406-1.742l-2.475.587.056.32a2.21 2.21 0 0 1 .713-.107c1.031 0 1.518.729 1.837 1.582l.619 1.636-1.219 1.795c-.6.871-1.087 1.05-1.312 1.05-.469 0-.394-.356-.882-.356a.688.688 0 0 0-.712.657c0 .392.3.836.975.836 1.05 0 1.594-.764 2.194-1.636l1.181-1.742.75 2.01c.244.64.6 1.368 1.369 1.368 1.087 0 1.931-1.707 2.156-1.973l-.263-.178c-.393.764-.843 1.013-1.143 1.013-.844 0-1.275-2.4-1.838-3.502l1.032-1.511c.262-.391.468-.676 1.03-.676.32 0 .413.16.826.16.487 0 .731-.409.731-.746 0-.374-.319-.587-.919-.587-.937 0-1.594.782-2.081 1.493l-.844 1.227zM40 46l-2.754 10.553a.85.85 0 0 0-.037.212c0 .106.093.159.278.159.37 0 .887-.618 1.145-.989l.204.212C38.28 56.941 37.302 58 36.433 58c-.591 0-.739-.406-.739-.724 0-.352.037-.6.185-1.129h-.093C34.42 57.788 33.31 58 32.626 58 31.277 58 31 56.694 31 55.759c0-1.818 1.903-5.753 4.75-5.753 1.053 0 1.478.459 1.496.882h.037l.98-3.688c.018-.07.037-.141.037-.212 0-.23-.13-.353-.61-.353-.166 0-.37.036-.499.053l-.074-.264L40 46zm-3.03 5.788c0-.83-.278-1.253-1.036-1.253-1.83 0-3.326 3.53-3.326 5.224 0 .865.517 1.165 1.035 1.165 1.293 0 2.513-1.66 3.03-3.283a6.215 6.215 0 0 0 .296-1.853zM25 41h30v1H25z"></path><g><path d="M45.12 28.348c-.154-1.306-.275-1.765-.67-2.348l-2.574.441.034.283c.154-.018.43-.07.618-.07.961 0 1.116 1.059 1.202 1.853l.652 5.544c-.446.707-1.425 1.801-1.717 1.801-.274 0-.24-.547-.978-.547-.223 0-.687.194-.687.724 0 .424.326.971.961.971 1.168 0 2.284-1.73 3.537-3.355.72-.936 3.502-5.173 3.502-6.55 0-.689-.43-1.095-.979-1.095-.497 0-.806.318-.806.706 0 .671.892.848.892 1.219 0 .317-.137.67-.48 1.324-.378.724-.979 1.783-2.026 3.249l-.48-4.15zM41 22l-2.754 10.553a.85.85 0 0 0-.037.212c0 .106.093.159.278.159.37 0 .887-.618 1.145-.989l.204.212C39.28 32.941 38.302 34 37.433 34c-.591 0-.739-.406-.739-.724 0-.352.037-.6.185-1.129h-.093C35.42 33.788 34.31 34 33.626 34 32.277 34 32 32.694 32 31.759c0-1.818 1.903-5.753 4.75-5.753 1.053 0 1.478.459 1.496.882h.037l.98-3.688c.018-.07.037-.141.037-.212 0-.23-.13-.353-.61-.353-.166 0-.37.036-.499.053l-.074-.264L41 22zm-3.03 5.788c0-.83-.278-1.253-1.036-1.253-1.83 0-3.326 3.53-3.326 5.224 0 .865.517 1.165 1.035 1.165 1.293 0 2.513-1.66 3.03-3.283a6.215 6.215 0 0 0 .296-1.853z"></path></g></g></svg>