<svg xmlns="http://www.w3.org/2000/svg" width="161" height="80" viewBox="0 0 161 80"><g fill="#555" fill-rule="evenodd"><path d="M108.156 40.72l-.375-.978c-.225-.586-.581-1.315-1.406-1.742l-2.475.587.056.32a2.21 2.21 0 0 1 .713-.107c1.031 0 1.519.729 1.837 1.582l.619 1.636-1.219 1.795c-.6.871-1.087 1.05-1.312 1.05-.469 0-.394-.356-.881-.356a.688.688 0 0 0-.713.657c0 .392.3.836.975.836 1.05 0 1.594-.764 2.194-1.636l1.181-1.742.75 2.01c.244.64.6 1.368 1.369 1.368 1.087 0 1.931-1.707 2.156-1.973l-.263-.178c-.393.764-.843 1.013-1.143 1.013-.844 0-1.275-2.4-1.838-3.502l1.031-1.511c.263-.391.47-.676 1.032-.676.319 0 .412.16.825.16.487 0 .731-.409.731-.746 0-.374-.319-.587-.919-.587-.937 0-1.594.782-2.081 1.493l-.844 1.227zM102.72 34l-2.754 10.553a.85.85 0 0 0-.037.212c0 .106.093.159.278.159.37 0 .887-.618 1.145-.989l.204.212C101 44.941 100.022 46 99.153 46c-.591 0-.739-.406-.739-.724 0-.352.037-.6.185-1.129h-.093C97.14 45.788 96.03 46 95.346 46c-1.349 0-1.626-1.306-1.626-2.241 0-1.818 1.903-5.753 4.75-5.753 1.053 0 1.478.459 1.496.882h.037l.98-3.688c.018-.07.037-.141.037-.212 0-.23-.13-.353-.61-.353-.166 0-.37.036-.499.053l-.074-.264L102.72 34zm-3.03 5.788c0-.83-.278-1.253-1.036-1.253-1.83 0-3.326 3.53-3.326 5.224 0 .865.517 1.165 1.035 1.165 1.293 0 2.513-1.66 3.03-3.283a6.215 6.215 0 0 0 .296-1.853zM87.773 49a10.708 10.708 0 0 0 3-5.41 9.755 9.755 0 0 0 0-4.18 10.777 10.777 0 0 0-1.664-3.83A10.631 10.631 0 0 0 87.773 34H87c.964 1.18 1.661 2.42 2.092 3.718.432 1.298.647 2.559.647 3.782 0 1.223-.215 2.484-.647 3.782C88.662 46.58 87.964 47.819 87 49h.773zM82.156 40.72l-.375-.978c-.225-.586-.581-1.315-1.406-1.742l-2.475.587.056.32a2.21 2.21 0 0 1 .713-.107c1.031 0 1.519.729 1.837 1.582l.619 1.636-1.219 1.795c-.6.871-1.087 1.05-1.312 1.05-.469 0-.394-.356-.881-.356a.688.688 0 0 0-.713.657c0 .392.3.836.975.836 1.05 0 1.594-.764 2.194-1.636l1.181-1.742.75 2.01c.244.64.6 1.368 1.369 1.368 1.087 0 1.931-1.707 2.156-1.973l-.263-.178c-.393.764-.843 1.013-1.143 1.013-.844 0-1.275-2.4-1.838-3.502l1.031-1.511c.263-.391.47-.676 1.032-.676.319 0 .412.16.825.16.487 0 .731-.409.731-.746 0-.374-.319-.587-.919-.587-.937 0-1.594.782-2.081 1.493l-.844 1.227zM75.227 49a10.708 10.708 0 0 1-3-5.41 9.755 9.755 0 0 1 0-4.18 10.777 10.777 0 0 1 1.664-3.83c.398-.575.843-1.101 1.336-1.58H76c-.964 1.18-1.661 2.42-2.092 3.718-.432 1.298-.647 2.559-.647 3.782 0 1.223.215 2.484.647 3.782.43 1.298 1.128 2.537 2.092 3.718h-.773zM64.617 38.053l-.156.666H65.8l-1.513 6c-.26 1-.783 3.772-1.913 3.772-.157 0-.261-.052-.261-.158 0-.21.278-.228.278-.561 0-.263-.174-.579-.643-.579-.505 0-.748.439-.748.86 0 .526.417.947 1.252.947 1.53 0 2.47-1.667 3.044-3.123.26-.649.4-1.316.521-1.79l1.374-5.368h1.322l.209-.666H67.33l.33-1.228c.366-1.369 1.044-2.316 1.914-2.316.209 0 .26.052.26.14 0 .14-.156.404-.156.65 0 .245.122.438.609.438.348 0 .713-.21.713-.702 0-.614-.504-1.035-1.374-1.035-1.322 0-2.07.754-2.609 1.579-.747 1.123-.66 2.474-1.756 2.474h-.644zM51.504 54c-.322 0-.667-.074-1.038-.22a2.505 2.505 0 0 1-.965-.689 1.812 1.812 0 0 1-.332-.511 2.117 2.117 0 0 1-.15-.53 1.725 1.725 0 0 1 0-.5c.023-.159.067-.298.132-.416a.864.864 0 0 1 .217-.277 1.146 1.146 0 0 1 .76-.278c.153 0 .314.038.483.114.185.075.326.189.423.34.096.152.153.312.169.48.024.143.058.261.102.354.044.092.11.189.2.29a.689.689 0 0 0 .313.215c.137.05.286.075.447.075.418 0 .754-.23 1.007-.688.254-.458.447-1.14.58-2.045.133-.905.219-2.026.26-3.364.04-1.338.06-2.891.06-4.658 0-5.437.394-9.418 1.182-11.943.813-2.5 2.189-3.749 4.128-3.749.33 0 .678.072 1.044.215.366.143.686.374.96.694.144.16.257.332.337.518a1.984 1.984 0 0 1 .163 1.054 1.3 1.3 0 0 1-.126.435.864.864 0 0 1-.218.278 1.117 1.117 0 0 1-.754.278c-.157 0-.32-.038-.489-.114a.878.878 0 0 1-.422-.34 1.073 1.073 0 0 1-.17-.48 3.643 3.643 0 0 0-.078-.367.65.65 0 0 0-.187-.29 1.01 1.01 0 0 0-.338-.196 1.287 1.287 0 0 0-.458-.082c-.853 0-1.412.732-1.678 2.197-.137.732-.237 1.925-.302 3.579-.064 1.653-.096 3.806-.096 6.457 0 2.171-.097 4.111-.29 5.82-.193 1.708-.483 3.214-.869 4.519C54.74 52.725 53.403 54 51.504 54z"></path></g></svg>