<svg width="161" height="80" viewBox="0 0 161 80" xmlns="http://www.w3.org/2000/svg"><g fill="#555" fill-rule="evenodd"><path d="M132 38.24h-1.152l.51-2.24h-.214c-.675 1.51-1.679 2.153-2.914 2.396l-.082.503h1.268l-1.334 5.556c-.05.19-.082.417-.082.642 0 .469.132.903.642.903.971 0 1.794-1.32 2.19-1.858l-.215-.19c-.609.867-.987.902-.987.902-.214 0-.264-.104-.264-.208 0-.052.017-.14.033-.191l1.284-5.556h1.152l.165-.66zM126.72 34l-2.754 10.553a.85.85 0 0 0-.037.212c0 .106.093.159.278.159.37 0 .887-.618 1.145-.989l.204.212C125 44.941 124.022 46 123.153 46c-.591 0-.739-.406-.739-.724 0-.352.037-.6.185-1.129h-.093C121.14 45.788 120.03 46 119.346 46c-1.349 0-1.626-1.306-1.626-2.241 0-1.818 1.903-5.753 4.75-5.753 1.053 0 1.478.459 1.496.882h.037l.98-3.688c.018-.07.037-.141.037-.212 0-.23-.13-.353-.61-.353-.166 0-.37.036-.499.053l-.074-.264L126.72 34zm-3.03 5.788c0-.83-.278-1.253-1.036-1.253-1.83 0-3.326 3.53-3.326 5.224 0 .865.517 1.165 1.035 1.165 1.293 0 2.513-1.66 3.03-3.283a6.215 6.215 0 0 0 .296-1.853zM111.773 49a10.708 10.708 0 0 0 3-5.41 9.755 9.755 0 0 0 0-4.18 10.777 10.777 0 0 0-1.664-3.83 10.631 10.631 0 0 0-1.336-1.58H111c.964 1.18 1.661 2.42 2.092 3.718.432 1.298.647 2.559.647 3.782 0 1.223-.215 2.484-.647 3.782-.43 1.298-1.128 2.537-2.092 3.718h.773zM108 38.24h-1.152l.51-2.24h-.214c-.675 1.51-1.679 2.153-2.914 2.396l-.082.503h1.268l-1.334 5.556c-.05.19-.082.417-.082.642 0 .469.132.903.642.903.971 0 1.794-1.32 2.19-1.858l-.215-.19c-.609.867-.987.902-.987.902-.214 0-.264-.104-.264-.208 0-.052.017-.14.033-.191l1.284-5.556h1.152l.165-.66zM100.227 49a10.708 10.708 0 0 1-3-5.41 9.755 9.755 0 0 1 0-4.18 10.777 10.777 0 0 1 1.664-3.83c.398-.575.843-1.101 1.336-1.58H101c-.964 1.18-1.661 2.42-2.092 3.718-.432 1.298-.647 2.559-.647 3.782 0 1.223.215 2.484.647 3.782.43 1.298 1.128 2.537 2.092 3.718h-.773zM89.617 38.053l-.156.666H90.8l-1.513 6c-.26 1-.783 3.772-1.913 3.772-.157 0-.261-.052-.261-.158 0-.21.278-.228.278-.561 0-.263-.174-.579-.643-.579-.505 0-.748.439-.748.86 0 .526.417.947 1.252.947 1.53 0 2.47-1.667 3.044-3.123.26-.649.4-1.316.521-1.79l1.374-5.368h1.322l.209-.666H92.33l.33-1.228c.366-1.369 1.044-2.316 1.914-2.316.209 0 .26.052.26.14 0 .14-.156.404-.156.65 0 .245.122.438.609.438.348 0 .713-.21.713-.702 0-.614-.504-1.035-1.374-1.035-1.322 0-2.07.754-2.609 1.579-.747 1.123-.66 2.474-1.756 2.474h-.644z"></path><g><path d="M79 50.173l-1.264 4.59s-.014.026-.014.146c0 .146.084.226.195.226.139 0 .347-.026.889-.718l.166.16c-.43.625-1.18 1.423-1.847 1.423-.458 0-.583-.306-.583-.732 0-.173.083-.452.152-.665h-.055c-1 1.224-1.861 1.397-2.403 1.397-.875 0-1.236-.732-1.236-1.583C73 52.66 74.833 50 76.833 50c.598 0 .89.32.917.612h.014l.125-.44H79zm-1.458 1.157c0-.545-.167-.944-.695-.944-.944 0-1.778 1.157-2.25 2.275-.25.598-.389 1.184-.389 1.65 0 .705.43.877.806.877.958 0 1.93-1.263 2.32-2.527a4.8 4.8 0 0 0 .208-1.33zM82 24h-.235c-.118.133-.28.265-.441.265-.427 0-.721-.265-1.353-.265-.81 0-1.677.372-1.677 1.42 0 1.301 1.912 1.965 1.912 3.053 0 .518-.206 1.182-1.074 1.182-.926 0-1.53-.89-1.53-1.726h-.234L77 30h.25c.176-.226.309-.279.441-.279.177 0 1.118.266 1.618.266 1.28 0 1.985-.837 1.985-1.66 0-1.26-1.97-2.482-1.97-3.212 0-.544.382-.77.75-.77.823 0 1.352.743 1.352 1.593h.221L82 24zM63.504 54c-.322 0-.667-.074-1.038-.22a2.505 2.505 0 0 1-.965-.689 1.812 1.812 0 0 1-.332-.511 2.117 2.117 0 0 1-.15-.53 1.725 1.725 0 0 1 0-.5c.023-.159.067-.298.132-.416a.864.864 0 0 1 .217-.277 1.146 1.146 0 0 1 .76-.278c.153 0 .314.038.483.114.185.075.326.189.423.34.096.152.153.312.169.48.024.143.058.261.102.354.044.092.11.189.2.29a.689.689 0 0 0 .313.215c.137.05.286.075.447.075.418 0 .754-.23 1.007-.688.254-.458.447-1.14.58-2.045.133-.905.219-2.026.26-3.364.04-1.338.06-2.891.06-4.658 0-5.437.394-9.418 1.182-11.943.813-2.5 2.189-3.749 4.128-3.749.33 0 .678.072 1.044.215.366.143.686.374.96.694.144.16.257.332.337.518a1.984 1.984 0 0 1 .163 1.054 1.3 1.3 0 0 1-.126.435.864.864 0 0 1-.218.278 1.117 1.117 0 0 1-.754.278c-.157 0-.32-.038-.489-.114a.878.878 0 0 1-.422-.34 1.073 1.073 0 0 1-.17-.48 3.643 3.643 0 0 0-.078-.367.65.65 0 0 0-.187-.29 1.01 1.01 0 0 0-.338-.196 1.287 1.287 0 0 0-.458-.082c-.853 0-1.412.732-1.678 2.197-.137.732-.237 1.925-.302 3.579-.064 1.653-.096 3.806-.096 6.457 0 2.171-.097 4.111-.29 5.82-.193 1.708-.483 3.214-.869 4.519C66.74 52.725 65.403 54 63.504 54z"></path></g><g><path d="M49.156 51.72l-.375-.978c-.225-.586-.581-1.315-1.406-1.742l-2.475.587.056.32a2.21 2.21 0 0 1 .713-.107c1.031 0 1.518.729 1.837 1.582l.619 1.636-1.219 1.795c-.6.871-1.087 1.05-1.312 1.05-.469 0-.394-.356-.882-.356a.688.688 0 0 0-.712.657c0 .392.3.836.975.836 1.05 0 1.594-.764 2.194-1.636l1.181-1.742.75 2.01c.244.64.6 1.368 1.369 1.368 1.087 0 1.931-1.707 2.156-1.973l-.263-.178c-.393.764-.843 1.013-1.143 1.013-.844 0-1.275-2.4-1.838-3.502l1.032-1.511c.262-.391.468-.676 1.03-.676.32 0 .413.16.826.16.487 0 .731-.409.731-.746 0-.374-.319-.587-.919-.587-.937 0-1.594.782-2.081 1.493l-.844 1.227zM44 45l-2.754 10.553a.85.85 0 0 0-.037.212c0 .106.093.159.278.159.37 0 .887-.618 1.145-.989l.204.212C42.28 55.941 41.302 57 40.433 57c-.591 0-.739-.406-.739-.724 0-.352.037-.6.185-1.129h-.093C38.42 56.788 37.31 57 36.626 57 35.277 57 35 55.694 35 54.759c0-1.818 1.903-5.753 4.75-5.753 1.053 0 1.478.459 1.496.882h.037l.98-3.688c.018-.07.037-.141.037-.212 0-.23-.13-.353-.61-.353-.166 0-.37.036-.499.053l-.074-.264L44 45zm-3.03 5.788c0-.83-.278-1.253-1.036-1.253-1.83 0-3.326 3.53-3.326 5.224 0 .865.517 1.165 1.035 1.165 1.293 0 2.513-1.66 3.03-3.283a6.215 6.215 0 0 0 .296-1.853zM30 40h28v1H30zM49 23l-2.754 10.553a.85.85 0 0 0-.037.212c0 .106.093.159.278.159.37 0 .887-.618 1.145-.989l.204.212C47.28 33.941 46.302 35 45.433 35c-.591 0-.739-.406-.739-.724 0-.352.037-.6.185-1.129h-.093C43.42 34.788 42.31 35 41.626 35 40.277 35 40 33.694 40 32.759c0-1.818 1.903-5.753 4.75-5.753 1.053 0 1.478.459 1.496.882h.037l.98-3.688c.018-.07.037-.141.037-.212 0-.23-.13-.353-.61-.353-.166 0-.37.036-.499.053l-.074-.264L49 23zm-3.03 5.788c0-.83-.278-1.253-1.036-1.253-1.83 0-3.326 3.53-3.326 5.224 0 .865.517 1.165 1.035 1.165 1.293 0 2.513-1.66 3.03-3.283a6.215 6.215 0 0 0 .296-1.853z"></path></g></g></svg>