<svg width="80" height="80" viewBox="0 0 80 80" xmlns="http://www.w3.org/2000/svg"><g fill="#555" fill-rule="evenodd"><path d="M46 34h1v1h-1v-1zm2 0h1v1h-1v-1zm2 0h1v1h-1v-1zm2 0h1v1h-1v-1zm2 0h1v1h-1v-1zm4 0h1v1h-1v-1zm-12 4h1v1h-1v-1zm0-2h1v1h-1v-1zm12 0h1v1h-1v-1zm-12 4h1v1h-1v-1zm12-2h1v1h-1v-1zm-12 4h1v1h-1v-1zm12-2h1v1h-1v-1zm-12 4h1v1h-1v-1zm12-2h1v1h-1v-1zm-12 4h1v1h-1v-1zm2 0h1v1h-1v-1zm2 0h1v1h-1v-1zm2 0h1v1h-1v-1zm2 0h1v1h-1v-1zm2-12h1v1h-1v-1zm0 12h1v1h-1v-1zm2 0h1v1h-1v-1zm0-2h1v1h-1v-1zM24.502 54c-.322 0-.667-.071-1.037-.213a2.504 2.504 0 0 1-.965-.663 1.74 1.74 0 0 1-.331-.493 1.986 1.986 0 0 1-.15-.51 1.605 1.605 0 0 1 0-.482c.023-.154.067-.287.132-.401a.838.838 0 0 1 .217-.268 1.154 1.154 0 0 1 .76-.267c.152 0 .313.036.482.11a.872.872 0 0 1 .422.328c.096.146.152.3.169.462.024.138.058.251.102.34.044.09.11.183.199.28a.69.69 0 0 0 .314.207c.136.049.285.073.446.073.844 0 1.374-.882 1.591-2.646.217-1.764.326-4.338.326-7.72 0-5.273.396-9.114 1.188-11.523.791-2.41 2.164-3.614 4.117-3.614.33 0 .678.069 1.043.207.366.138.686.36.959.67.145.153.257.32.338.498.08.178.132.353.156.523.024.17.026.335.006.493a1.22 1.22 0 0 1-.126.42.838.838 0 0 1-.217.267 1.152 1.152 0 0 1-.754.268c-.157 0-.32-.036-.488-.11a.872.872 0 0 1-.422-.328 1.011 1.011 0 0 1-.17-.462 3.405 3.405 0 0 0-.078-.353.624.624 0 0 0-.186-.28 1.017 1.017 0 0 0-.338-.189 1.328 1.328 0 0 0-.458-.079v-.012c-.86 0-1.425.704-1.694 2.111-.27 1.408-.404 4.634-.404 9.68 0 4.185-.38 7.507-1.14 9.965-.76 2.458-2.1 3.687-4.021 3.687l.012.024zM32.502 54c-.322 0-.667-.071-1.037-.213a2.504 2.504 0 0 1-.965-.663 1.74 1.74 0 0 1-.331-.493 1.986 1.986 0 0 1-.15-.51 1.605 1.605 0 0 1 0-.482c.023-.154.067-.287.132-.401a.838.838 0 0 1 .217-.268 1.154 1.154 0 0 1 .76-.267c.152 0 .313.036.482.11a.872.872 0 0 1 .422.328c.096.146.152.3.169.462.024.138.058.251.102.34.044.09.11.183.199.28a.69.69 0 0 0 .314.207c.136.049.285.073.446.073.844 0 1.374-.882 1.591-2.646.217-1.764.326-4.338.326-7.72 0-5.273.396-9.114 1.188-11.523.791-2.41 2.164-3.614 4.117-3.614.33 0 .678.069 1.043.207.366.138.686.36.959.67.145.153.257.32.338.498.08.178.132.353.156.523.024.17.026.335.006.493a1.22 1.22 0 0 1-.126.42.838.838 0 0 1-.217.267 1.152 1.152 0 0 1-.754.268c-.157 0-.32-.036-.488-.11a.872.872 0 0 1-.422-.328 1.011 1.011 0 0 1-.17-.462 3.405 3.405 0 0 0-.078-.353.624.624 0 0 0-.186-.28 1.017 1.017 0 0 0-.338-.189 1.328 1.328 0 0 0-.458-.079v-.012c-.86 0-1.425.704-1.694 2.111-.27 1.408-.404 4.634-.404 9.68 0 4.185-.38 7.507-1.14 9.965-.76 2.458-2.1 3.687-4.021 3.687l.012.024z"></path></g></svg>