<svg width="80" height="80" viewBox="0 0 80 80" xmlns="http://www.w3.org/2000/svg"><g fill="#555" fill-rule="evenodd"><path d="M48 36h1v1h-1v-1zm2 0h1v1h-1v-1zm2 0h1v1h-1v-1zm2 0h1v1h-1v-1zm2 0h1v1h-1v-1zm4 0h1v1h-1v-1zm-12 4h1v1h-1v-1zm0-2h1v1h-1v-1zm12 0h1v1h-1v-1zm-12 4h1v1h-1v-1zm12-2h1v1h-1v-1zm-12 4h1v1h-1v-1zm12-2h1v1h-1v-1zm-12 4h1v1h-1v-1zm12-2h1v1h-1v-1zm-12 4h1v1h-1v-1zm2 0h1v1h-1v-1zm2 0h1v1h-1v-1zm2 0h1v1h-1v-1zm2 0h1v1h-1v-1zm2-12h1v1h-1v-1zm0 12h1v1h-1v-1zm2 0h1v1h-1v-1zm0-2h1v1h-1v-1zm-30 4h1v1h-1v-1zm2 0h1v1h-1v-1zm2 0h1v1h-1v-1zm2 0h1v1h-1v-1zm2 0h1v1h-1v-1zm2 0h1v1h-1v-1zm-10 2h1v1h-1v-1zm10 0h1v1h-1v-1zm-10 2h1v1h-1v-1zm10 0h1v1h-1v-1zm-10 2h1v1h-1v-1zm10 0h1v1h-1v-1zm-10 2h1v1h-1v-1zm10 0h1v1h-1v-1zm-10 2h1v1h-1v-1zm2 0h1v1h-1v-1zm2 0h1v1h-1v-1zm2 0h1v1h-1v-1zm2 0h1v1h-1v-1zm2 0h1v1h-1v-1zm-4-40h1v1h-1v-1zm2 0h1v1h-1v-1zm2 0h1v1h-1v-1zm2 0h1v1h-1v-1zm2 0h1v1h-1v-1zm2 0h1v1h-1v-1zm-10 2h1v1h-1v-1zm10 0h1v1h-1v-1zm-10 2h1v1h-1v-1zm10 0h1v1h-1v-1zm-10 2h1v1h-1v-1zm10 0h1v1h-1v-1zm-10 2h1v1h-1v-1zm10 0h1v1h-1v-1zm-10 2h1v1h-1v-1zm2 0h1v1h-1v-1zm2 0h1v1h-1v-1zm2 0h1v1h-1v-1zm2 0h1v1h-1v-1zm2 0h1v1h-1v-1zM33 28.988l-1.462.662c-.342-.788-.84-1.262-1.555-1.262-.902 0-1.804 2.588-2.301 7.068 2.208.253 4.012 1.83 3.794 4.576-.218 2.65-2.208 4.228-4.385 4.543-.28 2.304-.715 4.197-1.337 5.711C25.1 51.896 24.105 53 22.86 53c-1.244 0-2.208-.6-2.861-1.862l1.368-.82c.374.789.871 1.294 1.587 1.294.901 0 1.866-2.556 2.301-7.068-2.053-.347-3.701-1.894-3.483-4.512.217-2.525 2.021-4.04 4.043-4.481.28-2.335.746-4.323 1.368-5.837.653-1.61 1.649-2.714 2.893-2.714 1.306 0 2.27.663 2.923 1.988zm-3.048 11.044c.156-1.767-.746-3.282-2.363-3.63A60.05 60.05 0 0 0 27.402 40a42.916 42.916 0 0 1-.218 3.629c1.524-.379 2.613-1.736 2.768-3.597zm-4.23-3.503c-1.337.505-2.27 1.767-2.425 3.503-.156 1.83.653 3.155 2.052 3.565A60.05 60.05 0 0 0 25.536 40c.031-1.23.093-2.367.186-3.47z"></path></g></svg>