<svg width="80" height="80" viewBox="0 0 80 80" xmlns="http://www.w3.org/2000/svg"><g fill="#555" fill-rule="evenodd"><path d="M47 34h1v1h-1v-1zm2 0h1v1h-1v-1zm2 0h1v1h-1v-1zm2 0h1v1h-1v-1zm2 0h1v1h-1v-1zm4 0h1v1h-1v-1zm-12 4h1v1h-1v-1zm0-2h1v1h-1v-1zm12 0h1v1h-1v-1zm-12 4h1v1h-1v-1zm12-2h1v1h-1v-1zm-12 4h1v1h-1v-1zm12-2h1v1h-1v-1zm-12 4h1v1h-1v-1zm12-2h1v1h-1v-1zm-12 4h1v1h-1v-1zm2 0h1v1h-1v-1zm2 0h1v1h-1v-1zm2 0h1v1h-1v-1zm2 0h1v1h-1v-1zm2-12h1v1h-1v-1zm0 12h1v1h-1v-1zm2 0h1v1h-1v-1zm0-2h1v1h-1v-1zM38.812 35.585c1.479.678 2.5 1.32 3.063 1.926.563.606.845 1.377.845 2.312 0 1.171-.372 2.147-1.116 2.928-.745.78-1.923 1.438-3.536 1.972-.455 3.01-.983 5.106-1.582 6.287-.982 1.963-2.482 2.944-4.498 2.944-.672 0-1.261-.147-1.768-.44-.506-.292-.76-.629-.76-1.009 0-.267.106-.513.318-.74.212-.225.447-.338.706-.338.176 0 .31.05.403.154l.853.955c.28.308.6.462.962.462 1.25 0 2.078-1.16 2.481-3.482.258-1.46.388-2.897.388-4.315-1.117.123-2.063.185-2.838.185-1.282 0-2.689-.113-4.219-.34-.548 3.206-1.085 5.286-1.613 6.242C25.888 53.096 24.441 54 22.56 54c-.713 0-1.318-.154-1.815-.462-.496-.309-.744-.683-.744-1.125 0-.257.093-.48.28-.67a.884.884 0 0 1 .65-.286c.27 0 .46.062.574.185l.884.971c.217.247.507.37.869.37 1.178 0 1.97-1.156 2.373-3.467.279-1.562.465-3.252.558-5.07-1.396-.576-2.401-1.207-3.016-1.896-.616-.688-.923-1.525-.923-2.511 0-2.25 1.514-3.843 4.544-4.778.403-3.174 1.096-5.498 2.078-6.973.982-1.474 2.326-2.21 4.032-2.21.703 0 1.293.143 1.768.43.476.288.714.648.714 1.08a.95.95 0 0 1-.249.639c-.165.19-.346.28-.542.27-.27-.01-.595-.206-.977-.586-.631-.606-1.143-.91-1.536-.91-.527 0-1 .309-1.419.925-.419.617-.716 1.439-.892 2.466-.196 1.14-.351 2.599-.465 4.376a50.178 50.178 0 0 1 3.381-.138c1.065 0 2.29.107 3.676.323.382-3.061 1.05-5.319 2-6.772.951-1.454 2.239-2.181 3.862-2.181.786 0 1.445.152 1.977.455.533.303.799.675.799 1.117 0 .277-.085.537-.256.778-.17.241-.354.362-.55.362-.238 0-.57-.257-.993-.77-.527-.648-1.029-.971-1.504-.971-1.396 0-2.254 1.787-2.575 5.363l-.155 1.664c-.02.329-.072.858-.155 1.587zm-.155 1.325c0 .966-.145 3.077-.434 6.334 1.147-.432 1.962-.891 2.442-1.38.481-.487.721-1.09.721-1.81 0-1.387-.91-2.435-2.73-3.144zm-2.45-.632a23.048 23.048 0 0 0-3.831-.323c-.91 0-1.954.067-3.133.2 0 1.87-.18 4.382-.543 7.536 1.603.246 2.932.37 3.986.37.734 0 1.722-.067 2.962-.2.124-2.57.31-5.096.559-7.583zm-9.6.524c-1.965.75-2.947 1.84-2.947 3.267 0 .648.2 1.197.597 1.65.398.451 1.068.883 2.009 1.294 0-1.12.067-2.522.201-4.207l.14-2.004z"></path></g></svg>