<svg width="80" height="80" viewBox="0 0 80 80" xmlns="http://www.w3.org/2000/svg"><g fill="#555" fill-rule="evenodd"><path d="M52 36h1v1h-1v-1zm2 0h1v1h-1v-1zm2 0h1v1h-1v-1zm2 0h1v1h-1v-1zm2 0h1v1h-1v-1zm4 0h1v1h-1v-1zm-12 4h1v1h-1v-1zm0-2h1v1h-1v-1zm12 0h1v1h-1v-1zm-12 4h1v1h-1v-1zm12-2h1v1h-1v-1zm-12 4h1v1h-1v-1zm12-2h1v1h-1v-1zm-12 4h1v1h-1v-1zm12-2h1v1h-1v-1zm-12 4h1v1h-1v-1zm2 0h1v1h-1v-1zm2 0h1v1h-1v-1zm2 0h1v1h-1v-1zm2 0h1v1h-1v-1zm2-12h1v1h-1v-1zm0 12h1v1h-1v-1zm2 0h1v1h-1v-1zm0-2h1v1h-1v-1zm-30 4h1v1h-1v-1zm2 0h1v1h-1v-1zm2 0h1v1h-1v-1zm2 0h1v1h-1v-1zm2 0h1v1h-1v-1zm2 0h1v1h-1v-1zm-10 2h1v1h-1v-1zm10 0h1v1h-1v-1zm-10 2h1v1h-1v-1zm10 0h1v1h-1v-1zm-10 2h1v1h-1v-1zm10 0h1v1h-1v-1zm-10 2h1v1h-1v-1zm10 0h1v1h-1v-1zm-10 2h1v1h-1v-1zm2 0h1v1h-1v-1zm2 0h1v1h-1v-1zm2 0h1v1h-1v-1zm2 0h1v1h-1v-1zm2 0h1v1h-1v-1zm-4-40h1v1h-1v-1zm2 0h1v1h-1v-1zm2 0h1v1h-1v-1zm2 0h1v1h-1v-1zm2 0h1v1h-1v-1zm2 0h1v1h-1v-1zm-10 2h1v1h-1v-1zm10 0h1v1h-1v-1zm-10 2h1v1h-1v-1zm10 0h1v1h-1v-1zm-10 2h1v1h-1v-1zm10 0h1v1h-1v-1zm-10 2h1v1h-1v-1zm10 0h1v1h-1v-1zm-10 2h1v1h-1v-1zm2 0h1v1h-1v-1zm2 0h1v1h-1v-1zm2 0h1v1h-1v-1zm2 0h1v1h-1v-1zm2 0h1v1h-1v-1zM32.555 35.558c1.3.605 2.2 1.179 2.695 1.72.496.541.744 1.23.744 2.064 0 1.045-.328 1.917-.983 2.614-.655.697-1.692 1.284-3.111 1.761-.4 2.688-.865 4.559-1.393 5.614-.864 1.752-2.183 2.628-3.957 2.628-.592 0-1.11-.131-1.556-.392-.446-.262-.669-.562-.669-.902 0-.238.093-.458.28-.66.186-.202.393-.303.62-.303.155 0 .274.046.356.138l.75.853c.246.275.528.413.846.413 1.101 0 1.83-1.037 2.184-3.11.228-1.302.341-2.587.341-3.852-.982.11-1.815.165-2.497.165-1.128 0-2.366-.101-3.712-.303-.483 2.862-.956 4.72-1.42 5.572C21.182 51.193 19.908 52 18.252 52c-.628 0-1.16-.138-1.597-.413-.437-.275-.655-.61-.655-1.004 0-.23.082-.429.246-.599a.773.773 0 0 1 .573-.254c.236 0 .405.055.505.165l.778.867c.19.22.446.33.764.33 1.037 0 1.733-1.032 2.088-3.096.246-1.394.41-2.903.491-4.527-1.228-.513-2.113-1.077-2.654-1.692-.541-.614-.812-1.362-.812-2.243 0-2.008 1.333-3.43 3.999-4.265.355-2.834.964-4.91 1.828-6.226.865-1.316 2.048-1.974 3.549-1.974.619 0 1.137.128 1.556.385.418.257.627.578.627.963a.855.855 0 0 1-.218.571c-.145.17-.305.25-.478.24-.236-.008-.523-.183-.86-.522-.554-.541-1.005-.812-1.35-.812-.465 0-.88.276-1.25.826-.368.55-.63 1.284-.784 2.201-.173 1.018-.31 2.321-.41 3.908a43.524 43.524 0 0 1 2.976-.124c.937 0 2.015.096 3.234.289.337-2.734.924-4.75 1.76-6.047.838-1.298 1.97-1.947 3.4-1.947.69 0 1.27.135 1.74.406.468.27.702.603.702.997 0 .248-.075.48-.225.695-.15.216-.312.324-.485.324-.209 0-.5-.23-.873-.688-.464-.578-.905-.867-1.324-.867-1.228 0-1.983 1.596-2.265 4.788l-.137 1.486c-.018.293-.064.766-.136 1.417zm-.137 1.183c0 .863-.127 2.748-.382 5.655 1.01-.385 1.726-.795 2.15-1.231.423-.436.634-.975.634-1.617 0-1.238-.8-2.174-2.402-2.807zm-2.156-.564a19.997 19.997 0 0 0-3.371-.289c-.8 0-1.72.06-2.757.18 0 1.669-.16 3.911-.478 6.727 1.41.22 2.58.33 3.508.33.646 0 1.515-.06 2.606-.178.11-2.294.273-4.55.492-6.77zm-8.448.468c-1.729.67-2.593 1.642-2.593 2.917 0 .578.175 1.069.525 1.472.35.404.94.789 1.768 1.156 0-1 .059-2.252.177-3.756l.123-1.789z"></path></g></svg>