<svg width="80" height="80" viewBox="0 0 80 80" xmlns="http://www.w3.org/2000/svg"><g fill="#555" fill-rule="evenodd"><path d="M50 35h1v1h-1v-1zm2 0h1v1h-1v-1zm2 0h1v1h-1v-1zm2 0h1v1h-1v-1zm2 0h1v1h-1v-1zm4 0h1v1h-1v-1zm-12 4h1v1h-1v-1zm0-2h1v1h-1v-1zm12 0h1v1h-1v-1zm-12 4h1v1h-1v-1zm12-2h1v1h-1v-1zm-12 4h1v1h-1v-1zm12-2h1v1h-1v-1zm-12 4h1v1h-1v-1zm12-2h1v1h-1v-1zm-12 4h1v1h-1v-1zm2 0h1v1h-1v-1zm2 0h1v1h-1v-1zm2 0h1v1h-1v-1zm2 0h1v1h-1v-1zm2-12h1v1h-1v-1zm0 12h1v1h-1v-1zm2 0h1v1h-1v-1zm0-2h1v1h-1v-1zM41.71 36.903c2.267.91 3.4 2.118 3.4 3.625 0 1.718-1.33 2.958-3.994 3.72-.36 3.198-.95 5.454-1.768 6.767-.819 1.314-2.047 1.971-3.684 1.971-.567 0-1.06-.133-1.478-.4-.418-.266-.627-.578-.627-.937 0-.238.08-.445.243-.62a.765.765 0 0 1 .58-.262c.243 0 .432.078.567.235l.553.634c.234.275.544.413.931.413.675 0 1.183-.363 1.525-1.089.342-.726.58-1.947.715-3.666l.108-1.378c.01-.165.045-.551.108-1.157-2.294.349-4.318.523-6.073.523-.45 2.766-1.08 4.732-1.889 5.899-.81 1.167-1.952 1.75-3.428 1.75-.656 0-1.183-.115-1.579-.344-.395-.23-.593-.538-.593-.924 0-.239.08-.448.243-.627a.743.743 0 0 1 .566-.269c.225 0 .482.18.77.538.458.56.886.84 1.282.84.827 0 1.43-.702 1.808-2.108.216-.818.445-2.398.688-4.741-1.763 0-3.814-.198-6.154-.593l-.243 1.447c-.377 2.39-.94 4.094-1.686 5.114C21.746 52.42 20.644 53 19.294 53c-.684 0-1.237-.129-1.66-.386-.423-.257-.634-.588-.634-.992 0-.24.074-.441.223-.607a.692.692 0 0 1 .533-.248c.27 0 .526.12.769.359l.729.703c.135.137.31.21.526.22.387.028.747-.14 1.08-.503.333-.363.589-.87.769-1.523.234-.818.418-1.998.553-3.542l.108-1.254c.018-.156.05-.547.095-1.171-1.197-.46-2.06-.974-2.591-1.544-.531-.57-.797-1.268-.797-2.095 0-.845.308-1.562.925-2.15.616-.588 1.612-1.12 2.989-1.598.35-2.95.756-4.907 1.215-5.871a4.93 4.93 0 0 1 1.653-1.978c.724-.51 1.468-.765 2.233-.765.747 0 1.347.129 1.802.386.454.257.681.593.681 1.006 0 .22-.076.407-.23.558a.757.757 0 0 1-.552.228c-.297 0-.594-.184-.891-.552-.45-.56-.8-.84-1.053-.84-.791 0-1.394.528-1.808 1.585-.297.753-.504 2.012-.62 3.776-.028.422-.073 1.061-.136 1.915 2.492-.303 4.544-.454 6.154-.454l.162-1.048c.378-2.242.85-3.767 1.417-4.575.954-1.342 2.141-2.012 3.563-2.012.665 0 1.2.124 1.606.372.404.248.607.574.607.978a.84.84 0 0 1-.223.579.68.68 0 0 1-.52.248c-.215 0-.445-.12-.688-.358l-.728-.73a.876.876 0 0 0-.554-.235c-.737-.046-1.295.446-1.673 1.475-.378 1.029-.652 2.82-.823 5.375 1.727 0 3.738.179 6.032.537.351-2.619.774-4.442 1.269-5.471C41.696 28.933 43.04 28 44.84 28c.63 0 1.147.136 1.552.407.405.27.607.613.607 1.026a.798.798 0 0 1-.223.558.7.7 0 0 1-.533.242c-.306 0-.571-.143-.796-.428l-.594-.73c-.144-.175-.35-.262-.62-.262-1.197 0-1.921 1.456-2.173 4.369l-.122 1.295c-.018.294-.054.68-.108 1.158l-.121 1.268zm-.122 1.089c-.063.8-.103 1.35-.121 1.654l-.122 1.557c-.027.294-.071.891-.134 1.791.99-.321 1.689-.666 2.098-1.033.41-.368.614-.836.614-1.406 0-1.12-.778-1.975-2.335-2.563zm-2.159-.634c-2.438-.303-4.435-.455-5.992-.455l-.121 2.33c-.09 1.763-.203 3.39-.338 4.878 1.998 0 3.99-.175 5.979-.524l.148-2.536c.072-1.176.18-2.407.324-3.693zm-8.205-.455c-1.817 0-3.86.156-6.127.469a326.676 326.676 0 0 1-.459 6.188c2.465.349 4.499.523 6.1.523.063-1.157.108-2.03.135-2.618.081-1.608.198-3.129.351-4.562zm-8.448 1.02c-.99.404-1.678.795-2.065 1.171-.387.377-.58.846-.58 1.406 0 .496.175.926.526 1.289.351.363.963.755 1.836 1.178.045-.919.085-1.576.121-1.97l.081-1.241c.054-.79.081-1.401.081-1.833z"></path></g></svg>