<svg width="80" height="80" viewBox="0 0 80 80" xmlns="http://www.w3.org/2000/svg"><path d="M21.227 48a10.708 10.708 0 0 1-3-5.41 9.755 9.755 0 0 1 0-4.18 10.777 10.777 0 0 1 1.664-3.83c.398-.575.843-1.101 1.336-1.58H22c-.964 1.18-1.661 2.42-2.092 3.718-.432 1.298-.647 2.559-.647 3.782 0 1.223.215 2.484.647 3.782.43 1.298 1.128 2.537 2.092 3.718h-.773zm38.546 0H59c.964-1.18 1.661-2.42 2.092-3.718.432-1.298.647-2.559.647-3.782 0-1.223-.215-2.484-.647-3.782C60.662 35.42 59.964 34.181 59 33h.773a10.708 10.708 0 0 1 3 5.41 9.755 9.755 0 0 1 0 4.18 10.777 10.777 0 0 1-1.664 3.83A10.631 10.631 0 0 1 59.773 48zM24 34h1v1h-1v-1zm2 0h1v1h-1v-1zm2 0h1v1h-1v-1zm2 0h1v1h-1v-1zm2 0h1v1h-1v-1zm4 0h1v1h-1v-1zm-12 4h1v1h-1v-1zm0-2h1v1h-1v-1zm12 0h1v1h-1v-1zm-12 4h1v1h-1v-1zm12-2h1v1h-1v-1zm-12 4h1v1h-1v-1zm12-2h1v1h-1v-1zm-12 4h1v1h-1v-1zm12-2h1v1h-1v-1zm-12 4h1v1h-1v-1zm2 0h1v1h-1v-1zm2 0h1v1h-1v-1zm2 0h1v1h-1v-1zm2 0h1v1h-1v-1zm2-12h1v1h-1v-1zm0 12h1v1h-1v-1zm2 0h1v1h-1v-1zm0-2h1v1h-1v-1zm8-10h1v1h-1v-1zm2 0h1v1h-1v-1zm2 0h1v1h-1v-1zm2 0h1v1h-1v-1zm2 0h1v1h-1v-1zm4 0h1v1h-1v-1zm-12 4h1v1h-1v-1zm0-2h1v1h-1v-1zm12 0h1v1h-1v-1zm-12 4h1v1h-1v-1zm12-2h1v1h-1v-1zm-12 4h1v1h-1v-1zm12-2h1v1h-1v-1zm-12 4h1v1h-1v-1zm12-2h1v1h-1v-1zm-12 4h1v1h-1v-1zm2 0h1v1h-1v-1zm2 0h1v1h-1v-1zm2 0h1v1h-1v-1zm2 0h1v1h-1v-1zm2-12h1v1h-1v-1zm0 12h1v1h-1v-1zm2 0h1v1h-1v-1zm0-2h1v1h-1v-1zM41 33v15h-1V33h1z" fill="#555" fill-rule="evenodd"></path></svg>