<svg width="80" height="80" viewBox="0 0 80 80" xmlns="http://www.w3.org/2000/svg"><g fill="#555" fill-rule="evenodd"><path d="M61 33.022h1V48h-1zM52.773 48a10.708 10.708 0 0 0 3-5.41 9.755 9.755 0 0 0 0-4.18 10.777 10.777 0 0 0-1.664-3.83A10.631 10.631 0 0 0 52.773 33H52c.964 1.18 1.661 2.42 2.092 3.718.432 1.298.647 2.559.647 3.782 0 1.223-.215 2.484-.647 3.782C53.662 45.58 52.964 46.819 52 48h.773zM46.156 38.72l-.375-.978c-.225-.586-.581-1.315-1.406-1.742l-2.475.587.056.32a2.21 2.21 0 0 1 .713-.107c1.031 0 1.518.729 1.837 1.582l.619 1.636-1.219 1.795c-.6.871-1.087 1.05-1.312 1.05-.469 0-.394-.356-.882-.356a.688.688 0 0 0-.712.657c0 .392.3.836.975.836 1.05 0 1.594-.764 2.194-1.636l1.181-1.742.75 2.01c.244.64.6 1.368 1.369 1.368 1.087 0 1.931-1.707 2.156-1.973l-.263-.178c-.393.764-.843 1.013-1.143 1.013-.844 0-1.275-2.4-1.838-3.502l1.032-1.511c.262-.391.468-.676 1.03-.676.32 0 .413.16.826.16.487 0 .731-.409.731-.746 0-.374-.319-.587-.919-.587-.937 0-1.594.782-2.081 1.493l-.844 1.227zM38.227 48a10.708 10.708 0 0 1-3-5.41 9.755 9.755 0 0 1 0-4.18 10.777 10.777 0 0 1 1.664-3.83c.398-.575.843-1.101 1.336-1.58H39c-.964 1.18-1.661 2.42-2.092 3.718-.432 1.298-.647 2.559-.647 3.782 0 1.223.215 2.484.647 3.782.43 1.298 1.128 2.537 2.092 3.718h-.773zM27.617 36.323l-.156.71H28.8l-1.513 6.4c-.26 1.068-.783 4.024-1.913 4.024-.157 0-.261-.056-.261-.168 0-.225.278-.243.278-.599 0-.28-.174-.617-.643-.617-.505 0-.748.467-.748.916 0 .562.417 1.011 1.252 1.011 1.53 0 2.47-1.778 3.044-3.331.26-.692.4-1.404.521-1.909l1.374-5.726h1.322l.209-.711H30.33l.33-1.31c.366-1.46 1.044-2.47 1.914-2.47.209 0 .26.056.26.15 0 .15-.156.43-.156.692 0 .262.122.468.609.468.348 0 .713-.225.713-.749C34 32.45 33.496 32 32.626 32c-1.322 0-2.07.805-2.609 1.684-.747 1.198-.66 2.639-1.756 2.639h-.644zM19 33.022h1V48h-1z"></path></g></svg>