<svg width="80" height="80" viewBox="0 0 80 80" xmlns="http://www.w3.org/2000/svg"><g fill="#555" fill-rule="evenodd"><path d="M47.997 33h1v15h-3v-1h2V34h-2v-1h2zM27 34v13h2v1h-3V33h3v1h-2zm4 0h1v1h-1v-1zm2 0h.999v1h-1v-1zm1.999 0h1v1h-1v-1zm2 0h1v1h-1v-1zm2 0h1v1h-1v-1zm3.999 0h1v1h-1v-1zm-11.999 4h1v1h-1v-1zm0-2h1v1h-1v-1zm11.999 0h1v1h-1v-1zm-11.999 4h1v1h-1v-1zm11.999-2h1v1h-1v-1zm-11.999 4h1v1h-1v-1zm11.999-2h1v1h-1v-1zm-11.999 4h1v1h-1v-1zm11.999-2h1v1h-1v-1zm-11.999 4h1v1h-1v-1zm2 0h1v1h-1v-1zm2 0h1v1h-1v-1zm2 0h1v1h-1v-1zm2 0h1v1h-1v-1zm2-12h.999v1h-1v-1zm0 12h.999v1h-1v-1zm1.999 0h1v1h-1v-1zm0-2h1v1h-1v-1zM57 46.144l-1.053 3.825s-.012.022-.012.122c0 .122.07.188.162.188.116 0 .29-.022.741-.598l.139.133c-.359.52-.984 1.186-1.54 1.186-.381 0-.486-.255-.486-.61 0-.144.07-.377.128-.554h-.047C54.2 50.856 53.482 51 53.03 51c-.73 0-1.03-.61-1.03-1.32 0-1.463 1.528-3.68 3.194-3.68.498 0 .741.266.764.51h.012l.104-.366H57zm-1.215.965c0-.455-.14-.787-.579-.787-.787 0-1.481.964-1.875 1.895-.208.5-.324.987-.324 1.375 0 .588.359.732.671.732.799 0 1.609-1.053 1.933-2.107a4 4 0 0 0 .174-1.108zM54.086 30.37l.05.047c.407-.377.889-.742 1.494-.742.864 0 1.37.812 1.37 1.779C57 32.879 55.654 35 53.716 35c-.654 0-1.16-.212-1.716-.566l1.778-6.633a.583.583 0 0 0 .024-.13c-.012-.153-.197-.247-.358-.247-.123 0-.271.012-.37.047l-.037-.188 1.95-.283-.9 3.37zm-.432 1.531l-.679 2.533c0 .083.395.224.68.224 1.505 0 2.32-2.05 2.32-3.252 0-.824-.469-1.083-.876-1.083-.89 0-1.309 1.048-1.445 1.578z"></path></g></svg>