<svg width="80" height="80" viewBox="0 0 80 80" xmlns="http://www.w3.org/2000/svg"><path d="M51 33v16h1V32h-3v1h2zm-21-1h-1v17h1V33h2v-1h-2zm4 16h1v-1h-1v1zm2 0h1v-1h-1v1zm2 0h1v-1h-1v1zm2 0h1v-1h-1v1zm2 0h1v-1h-1v1zm4 0h1v-1h-1v1zm-12-4h1v-1h-1v1zm0 2h1v-1h-1v1zm12 0h1v-1h-1v1zm-12-4h1v-1h-1v1zm12 2h1v-1h-1v1zm-12-4h1v-1h-1v1zm12 2h1v-1h-1v1zm-12-4h1v-1h-1v1zm12 2h1v-1h-1v1zm-12-4h1v-1h-1v1zm2 0h1v-1h-1v1zm2 0h1v-1h-1v1zm2 0h1v-1h-1v1zm2 0h1v-1h-1v1zm2 12h1v-1h-1v1zm0-12h1v-1h-1v1zm2 0h1v-1h-1v1zm0 2h1v-1h-1v1z" fill="#555" fill-rule="evenodd"></path></svg>