<svg width="80" height="80" viewBox="0 0 80 80" xmlns="http://www.w3.org/2000/svg"><g fill="#555" fill-rule="evenodd"><path d="M30.982 40.558l3.209 6.299L38 31h3v1h-2l-4 17h-1.418l-3.764-7.225-1.536.61-.282-.61zM24 31h1v1h-1v-1zm2 0h1v1h-1v-1zm2 0h1v1h-1v-1zm2 0h1v1h-1v-1zm-4 6h1v1h-1v-1zm2 0h1v1h-1v-1zm2 0h1v1h-1v-1zm-6-4h1v1h-1v-1zm6 0h1v1h-1v-1zm-6 2h1v1h-1v-1zm6 0h1v1h-1v-1zm-6 2h1v1h-1v-1z"></path><path d="M39 31h18v1H39zM42 38h1v1h-1v-1zm2-2h1v1h-1v-1zm2 0h1v1h-1v-1zm2 0h1v1h-1v-1zm2 0h1v1h-1v-1zm2 0h1v1h-1v-1zm2 2h1v1h-1v-1zm-12-2h1v1h-1v-1zm12 0h1v1h-1v-1zm-12 4h1v1h-1v-1zm12 0h1v1h-1v-1zm-12 2h1v1h-1v-1zm12 0h1v1h-1v-1zm-12 2h1v1h-1v-1zm12 0h1v1h-1v-1zm-12 2h1v1h-1v-1zm12 0h1v1h-1v-1zm-12 2h1v1h-1v-1zm2 0h1v1h-1v-1zm2 0h1v1h-1v-1zm2 0h1v1h-1v-1zm2 0h1v1h-1v-1zm2 0h1v1h-1v-1zm2 0h1v1h-1v-1z"></path></g></svg>