<svg width="80" height="80" viewBox="0 0 80 80" xmlns="http://www.w3.org/2000/svg"><g fill="#555" fill-rule="evenodd"><path d="M40 48h1v1h-1v-1zm2-2h1v1h-1v-1zm2 0h1v1h-1v-1zm2 0h1v1h-1v-1zm2 0h1v1h-1v-1zm2 0h1v1h-1v-1zm2 2h1v1h-1v-1zm-12-2h1v1h-1v-1zm12 0h1v1h-1v-1zm-12 4h1v1h-1v-1zm12 0h1v1h-1v-1zm-12 2h1v1h-1v-1zm12 0h1v1h-1v-1zm-12 2h1v1h-1v-1zm12 0h1v1h-1v-1zm-12 2h1v1h-1v-1zm12 0h1v1h-1v-1zm-12 2h1v1h-1v-1zm2 0h1v1h-1v-1zm2 0h1v1h-1v-1zm2 0h1v1h-1v-1zm2 0h1v1h-1v-1zm2 0h1v1h-1v-1zm2 0h1v1h-1v-1zM40 28h1v1h-1v-1zm2-2h1v1h-1v-1zm2 0h1v1h-1v-1zm2 0h1v1h-1v-1zm2 0h1v1h-1v-1zm2 0h1v1h-1v-1zm2 2h1v1h-1v-1zm-12-2h1v1h-1v-1zm12 0h1v1h-1v-1zm-12 4h1v1h-1v-1zm12 0h1v1h-1v-1zm-12 2h1v1h-1v-1zm12 0h1v1h-1v-1zm-12 2h1v1h-1v-1zm12 0h1v1h-1v-1zm-12 2h1v1h-1v-1zm12 0h1v1h-1v-1zm-12 2h1v1h-1v-1zm2 0h1v1h-1v-1zm2 0h1v1h-1v-1zm2 0h1v1h-1v-1zm2 0h1v1h-1v-1zm2 0h1v1h-1v-1zm2 0h1v1h-1v-1zM26.982 51.558l3.209 6.299L36 21h3v1h-2l-6 38h-1.418l-3.764-7.225-1.536.61-.282-.61z"></path><path d="M37 21h18v1H37zM38 42h17v1H38z"></path></g></svg>