<svg width="80" height="80" viewBox="0 0 80 80" xmlns="http://www.w3.org/2000/svg"><g fill="#555" fill-rule="evenodd"><path d="M26 40h29v1H26zM39 27h1v1h-1v-1zm2-2h1v1h-1v-1zm2 0h1v1h-1v-1zm2 0h1v1h-1v-1zm2 0h1v1h-1v-1zm2 0h1v1h-1v-1zm2 2h1v1h-1v-1zm-12-2h1v1h-1v-1zm12 0h1v1h-1v-1zm-12 4h1v1h-1v-1zm12 0h1v1h-1v-1zm-12 2h1v1h-1v-1zm12 0h1v1h-1v-1zm-12 2h1v1h-1v-1zm12 0h1v1h-1v-1zm-12 2h1v1h-1v-1zm12 0h1v1h-1v-1zm-10 0h1v1h-1v-1zm2 0h1v1h-1v-1zm2 0h1v1h-1v-1zm2 0h1v1h-1v-1zm2 0h1v1h-1v-1zM29.982 27.558l2.209 6.299L35 21h3v1h-2l-3 14h-1.418l-2.764-7.225-1.536.61-.282-.61z"></path><path d="M36 21h18v1H36z"></path><g><path d="M39 51h1v1h-1v-1zm2-2h1v1h-1v-1zm2 0h1v1h-1v-1zm2 0h1v1h-1v-1zm2 0h1v1h-1v-1zm2 0h1v1h-1v-1zm2 2h1v1h-1v-1zm-12-2h1v1h-1v-1zm12 0h1v1h-1v-1zm-12 4h1v1h-1v-1zm12 0h1v1h-1v-1zm-12 2h1v1h-1v-1zm12 0h1v1h-1v-1zm-12 2h1v1h-1v-1zm12 0h1v1h-1v-1zm-12 2h1v1h-1v-1zm12 0h1v1h-1v-1zm-10 0h1v1h-1v-1zm2 0h1v1h-1v-1zm2 0h1v1h-1v-1zm2 0h1v1h-1v-1zm2 0h1v1h-1v-1zM29.982 51.558l2.209 6.299L35 45h3v1h-2l-3 14h-1.418l-2.764-7.225-1.536.61-.282-.61z"></path><path d="M36 45h18v1H36z"></path></g></g></svg>