<svg width="80" height="80" viewBox="0 0 80 80" xmlns="http://www.w3.org/2000/svg"><g fill="#555" fill-rule="evenodd"><path d="M43 33h1v1h-1v-1zm2 0h1v1h-1v-1zm2 0h1v1h-1v-1zm2 0h1v1h-1v-1zm2 0h1v1h-1v-1zm4 0h1v1h-1v-1zm-12 4h1v1h-1v-1zm0-2h1v1h-1v-1zm12 0h1v1h-1v-1zm-12 4h1v1h-1v-1zm12-2h1v1h-1v-1zm-12 4h1v1h-1v-1zm12-2h1v1h-1v-1zm-12 4h1v1h-1v-1zm12-2h1v1h-1v-1zm-12 4h1v1h-1v-1zm2 0h1v1h-1v-1zm2 0h1v1h-1v-1zm2 0h1v1h-1v-1zm2 0h1v1h-1v-1zm2-12h1v1h-1v-1zm0 12h1v1h-1v-1zm2 0h1v1h-1v-1zm0-2h1v1h-1v-1zM27.759 31.118l5.632 7.942v.816l-6.315 8.06h7.61c.478 0 .839-.028 1.082-.085.242-.058.45-.145.624-.264.174-.118.332-.283.474-.494.143-.211.28-.503.41-.876.132-.372.255-.86.37-1.461H39l-.3 4.61c-.008.236-.076.401-.203.494-.127.093-.314.14-.561.14H24v-.602l7.147-9.124-6.708-9.661V30h13.312c.2 0 .364.021.491.064a.624.624 0 0 1 .295.194c.07.086.118.19.145.312.027.121.04.261.04.419v3.793h-1.249a16.852 16.852 0 0 0-.549-1.665c-.173-.43-.35-.77-.532-1.021a2.432 2.432 0 0 0-.555-.575 2.099 2.099 0 0 0-.653-.301c-.247-.068-.575-.102-.984-.102H27.76z"></path></g></svg>