<svg xmlns="http://www.w3.org/2000/svg" width="80" height="80" viewBox="0 0 80 80"><path d="M34.21,29h2.55L45,51H42.67L35.58,31.2h0L28.46,51H26ZM47,34h1v1H47V34Zm2,0h1v1H49V34Zm2,0h1v1H51V34Zm2,0h1v1H53V34Zm2,0h1v1H55V34Zm4,0h1v1H59V34ZM47,38h1v1H47V38Zm0-2h1v1H47V36Zm12,0h1v1H59V36ZM47,40h1v1H47V40Zm12-2h1v1H59V38ZM47,42h1v1H47V42Zm12-2h1v1H59V40ZM47,44h1v1H47V44Zm12-2h1v1H59V42ZM47,46h1v1H47V46Zm2,0h1v1H49V46Zm2,0h1v1H51V46Zm2,0h1v1H53V46Zm2,0h1v1H55V46Zm2-12h1v1H57V34Zm0,12h1v1H57V46Zm2,0h1v1H59V46Zm0-2h1v1H59V44ZM29,56h1v1H29V56Zm2,0h1v1H31V56Zm2,0h1v1H33V56Zm2,0h1v1H35V56Zm2,0h1v1H37V56Zm2,0h1v1H39V56Zm2,0h1v1H41V56ZM29,58h1v1H29V58Zm12,0h1v1H41V58ZM29,60h1v1H29V60Zm12,0h1v1H41V60ZM29,62h1v1H29V62Zm12,0h1v1H41V62ZM29,64h1v1H29V64Zm12,0h1v1H41V64ZM29,66h1v1H29V66Zm2,2h1v1H31V68Zm2,0h1v1H33V68Zm2,0h1v1H35V68Zm2,0h1v1H37V68Zm2,0h1v1H39V68Zm2-2h1v1H41V66ZM29,68h1v1H29V68Zm12,0h1v1H41V68ZM29,11h1v1H29V11Zm2,0h1v1H31V11Zm2,0h1v1H33V11Zm2,0h1v1H35V11Zm2,0h1v1H37V11Zm2,0h1v1H39V11Zm2,0h1v1H41V11ZM29,13h1v1H29V13Zm12,0h1v1H41V13ZM29,15h1v1H29V15Zm12,0h1v1H41V15ZM29,17h1v1H29V17Zm12,0h1v1H41V17ZM29,19h1v1H29V19Zm12,0h1v1H41V19ZM29,21h1v1H29V21Zm2,2h1v1H31V23Zm2,0h1v1H33V23Zm2,0h1v1H35V23Zm2,0h1v1H37V23Zm2,0h1v1H39V23Zm2-2h1v1H41V21ZM29,23h1v1H29V23Zm12,0h1v1H41V23Z" fill="#555"></path></svg>