<svg width="80" height="80" viewBox="0 0 80 80" xmlns="http://www.w3.org/2000/svg"><g fill="#555" fill-rule="evenodd"><path d="M45 32h1v1h-1v-1zm2 0h1v1h-1v-1zm2 0h1v1h-1v-1zm2 0h1v1h-1v-1zm2 0h1v1h-1v-1zm2 0h1v1h-1v-1zm2 0h1v1h-1v-1zm-12 2h1v1h-1v-1zm12 0h1v1h-1v-1zm-12 2h1v1h-1v-1zm12 0h1v1h-1v-1zm-12 2h1v1h-1v-1zm12 0h1v1h-1v-1zm-12 2h1v1h-1v-1zm12 0h1v1h-1v-1zm-12 2h1v1h-1v-1zm2 2h1v1h-1v-1zm2 0h1v1h-1v-1zm2 0h1v1h-1v-1zm2 0h1v1h-1v-1zm2 0h1v1h-1v-1zm2-2h1v1h-1v-1zm-12 2h1v1h-1v-1zm12 0h1v1h-1v-1zM40.975 59.04c0 2.064-.756 4.128-2.712 4.128-2.052 0-2.712-2.232-2.712-4.2 0-2.124.828-4.08 2.76-4.08 1.572 0 2.664 1.692 2.664 4.152zm-1.152.06c0-2.496-.528-3.9-1.584-3.9-.996 0-1.536 1.416-1.536 3.852s.528 3.804 1.56 3.804c1.02 0 1.56-1.38 1.56-3.756zM34 58.792V58h-7v.792zM34 61.792V61h-7v.792zM26 56.042c0 .541-.458.958-1 .958-.604 0-1-.417-1-.958 0-.521.396-1.042 1-1.042.542 0 1 .52 1 1.042zM25 58l-1.04 4.832c-.01.08-.01.133-.01.186 0 .093.067.132.146.132.249 0 .316-.159.723-.677l.147.133c-.395.598-.96 1.394-1.514 1.394-.316 0-.452-.252-.452-.61 0-.16 0-.412.893-4.487a.662.662 0 0 0 .022-.16c0-.225-.09-.292-.35-.292a1.15 1.15 0 0 0-.316.053l-.034-.212L25 58zM28.759 30.118l5.632 7.942v.816l-6.315 8.06h7.61c.478 0 .839-.028 1.082-.085.242-.058.45-.145.624-.264.174-.118.332-.283.474-.494.143-.211.28-.503.41-.876.132-.372.255-.86.37-1.461H40l-.3 4.61c-.008.236-.076.401-.203.494-.127.093-.314.14-.561.14H25v-.602l7.147-9.124-6.708-9.661V29h13.312c.2 0 .364.021.491.064a.624.624 0 0 1 .295.194c.07.086.118.19.145.312.027.121.04.261.04.419v3.793h-1.249a16.852 16.852 0 0 0-.549-1.665c-.173-.43-.35-.77-.532-1.021a2.432 2.432 0 0 0-.555-.575 2.099 2.099 0 0 0-.653-.301c-.247-.068-.575-.102-.984-.102H28.76zM35 21.61l-.178-.147c-.193.227-.522.708-.852.708-.15 0-.192-.106-.206-.187 0-.066 0-.106.014-.133l.81-3.087c.069-.267.151-.601.151-.935 0-.441-.165-.829-.769-.829-.824 0-1.647.882-2.197 1.55-.027.04-.7.976-.768.976h-.042l.7-2.526-2.182.307.027.2c.096-.013.247-.04.384-.04.371 0 .412.188.412.428L29 22.893h1.057l.453-1.657c.083-.28.44-.909.934-1.63.426-.628 1.29-1.777 1.812-1.777.247 0 .33.253.33.507 0 .187-.069.455-.096.562l-.783 2.953c-.041.147-.096.36-.096.534 0 .308.124.615.563.615.714 0 1.373-.855 1.757-1.31l.069-.08z"></path></g></svg>