<svg width="80" height="80" viewBox="0 0 80 80" xmlns="http://www.w3.org/2000/svg"><g fill="#555" fill-rule="evenodd"><path d="M29 57.828h-2.415l-.05.141h.15c.124 0 .323.083.323.224 0 .153-.124.306-.261.424l-2.079 1.756L26.075 55l-1.967.295.037.164c.1-.023.224-.023.336-.023.274 0 .399.13.399.26a.722.722 0 0 1-.038.235L23 62.87h.946l.56-1.956.697-.578.785 1.732c.136.307.398.931.97.931.847 0 1.432-1.26 1.581-1.508l-.186-.13c-.274.354-.548.86-.921.86-.324 0-.473-.282-.66-.695l-.797-1.79 1.32-1.085c.473-.388.821-.6 1.655-.683l.05-.141zM41 63v-.178c-.795 0-1.007-.213-1.007-.721v-7.065L39.898 55 38 56.077v.166l.286-.119c.191-.083.371-.142.477-.142.223 0 .318.178.318.58v5.314c0 .65-.222.9-1.007.946V63H41zM37 58.792V58h-7v.792zM37 61.792V61h-7v.792zM28.759 30.118l5.632 7.942v.816l-6.315 8.06h7.61c.478 0 .839-.028 1.082-.085.242-.058.45-.145.624-.264.174-.118.332-.283.474-.494.143-.211.28-.503.41-.876.132-.372.255-.86.37-1.461H40l-.3 4.61c-.008.236-.076.401-.203.494-.127.093-.314.14-.561.14H25v-.602l7.147-9.124-6.708-9.661V29h13.312c.2 0 .364.021.491.064a.624.624 0 0 1 .295.194c.07.086.118.19.145.312.027.121.04.261.04.419v3.793h-1.249a16.852 16.852 0 0 0-.549-1.665c-.173-.43-.35-.77-.532-1.021a2.432 2.432 0 0 0-.555-.575 2.099 2.099 0 0 0-.653-.301c-.247-.068-.575-.102-.984-.102H28.76zM35 21.61l-.178-.147c-.193.227-.522.708-.852.708-.15 0-.192-.106-.206-.187 0-.066 0-.106.014-.133l.81-3.087c.069-.267.151-.601.151-.935 0-.441-.165-.829-.769-.829-.824 0-1.647.882-2.197 1.55-.027.04-.7.976-.768.976h-.042l.7-2.526-2.182.307.027.2c.096-.013.247-.04.384-.04.371 0 .412.188.412.428L29 22.893h1.057l.453-1.657c.083-.28.44-.909.934-1.63.426-.628 1.29-1.777 1.812-1.777.247 0 .33.253.33.507 0 .187-.069.455-.096.562l-.783 2.953c-.041.147-.096.36-.096.534 0 .308.124.615.563.615.714 0 1.373-.855 1.757-1.31l.069-.08zM45 33h1v1h-1v-1zm2 0h1v1h-1v-1zm2 0h1v1h-1v-1zm2 0h1v1h-1v-1zm2 0h1v1h-1v-1zm2 0h1v1h-1v-1zm2 0h1v1h-1v-1zm-12 2h1v1h-1v-1zm12 0h1v1h-1v-1zm-12 2h1v1h-1v-1zm12 0h1v1h-1v-1zm-12 2h1v1h-1v-1zm12 0h1v1h-1v-1zm-12 2h1v1h-1v-1zm12 0h1v1h-1v-1zm-12 2h1v1h-1v-1zm2 2h1v1h-1v-1zm2 0h1v1h-1v-1zm2 0h1v1h-1v-1zm2 0h1v1h-1v-1zm2 0h1v1h-1v-1zm2-2h1v1h-1v-1zm-12 2h1v1h-1v-1zm12 0h1v1h-1v-1z"></path></g></svg>