<svg width="80" height="80" viewBox="0 0 80 80" xmlns="http://www.w3.org/2000/svg"><g fill="#555" fill-rule="evenodd"><path d="M29 57.828h-2.415l-.05.141h.15c.124 0 .323.083.323.224 0 .153-.124.306-.261.424l-2.079 1.756L26.075 55l-1.967.295.037.164c.1-.023.224-.023.336-.023.274 0 .399.13.399.26a.722.722 0 0 1-.038.235L23 62.87h.946l.56-1.956.697-.578.785 1.732c.136.307.398.931.97.931.847 0 1.432-1.26 1.581-1.508l-.186-.13c-.274.354-.548.86-.921.86-.324 0-.473-.282-.66-.695l-.797-1.79 1.32-1.085c.473-.388.821-.6 1.655-.683l.05-.141zM41 63v-.178c-.795 0-1.007-.213-1.007-.721v-7.065L39.898 55 38 56.077v.166l.286-.119c.191-.083.371-.142.477-.142.223 0 .318.178.318.58v5.314c0 .65-.222.9-1.007.946V63H41zM37 58.792V58h-7v.792zM37 61.792V61h-7v.792zM28.759 30.118l5.632 7.942v.816l-6.315 8.06h7.61c.478 0 .839-.028 1.082-.085.242-.058.45-.145.624-.264.174-.118.332-.283.474-.494.143-.211.28-.503.41-.876.132-.372.255-.86.37-1.461H40l-.3 4.61c-.008.236-.076.401-.203.494-.127.093-.314.14-.561.14H25v-.602l7.147-9.124-6.708-9.661V29h13.312c.2 0 .364.021.491.064a.624.624 0 0 1 .295.194c.07.086.118.19.145.312.027.121.04.261.04.419v3.793h-1.249a16.852 16.852 0 0 0-.549-1.665c-.173-.43-.35-.77-.532-1.021a2.432 2.432 0 0 0-.555-.575 2.099 2.099 0 0 0-.653-.301c-.247-.068-.575-.102-.984-.102H28.76zM38 19.902C38 21.256 36.99 23 35.222 23c-1.15 0-1.95-.74-2.82-2.023C31.77 22.247 30.816 23 29.469 23 28.263 23 27 22.135 27 20.21c0-2.568 1.866-3.21 2.68-3.21 1.024 0 1.726.265 3.059 2.051.645-1.158 1.29-2.051 2.707-2.051C36.71 17 38 18.033 38 19.902zm-4.98-.32v.041c1.01 1.66 1.781 2.554 2.735 2.554.786 0 1.403-.768 1.403-1.66 0-1.27-.715-2.345-1.95-2.345-1.249 0-1.782.823-2.189 1.41zm-.927.892v-.041c-1.01-1.66-1.894-2.61-2.848-2.61-.786 0-1.403.768-1.403 1.66 0 1.187.715 2.345 1.95 2.345 1.249 0 1.922-.851 2.301-1.354zM44 32h1v1h-1v-1zm2 0h1v1h-1v-1zm2 0h1v1h-1v-1zm2 0h1v1h-1v-1zm2 0h1v1h-1v-1zm2 0h1v1h-1v-1zm2 0h1v1h-1v-1zm-12 2h1v1h-1v-1zm12 0h1v1h-1v-1zm-12 2h1v1h-1v-1zm12 0h1v1h-1v-1zm-12 2h1v1h-1v-1zm12 0h1v1h-1v-1zm-12 2h1v1h-1v-1zm12 0h1v1h-1v-1zm-12 2h1v1h-1v-1zm2 2h1v1h-1v-1zm2 0h1v1h-1v-1zm2 0h1v1h-1v-1zm2 0h1v1h-1v-1zm2 0h1v1h-1v-1zm2-2h1v1h-1v-1zm-12 2h1v1h-1v-1zm12 0h1v1h-1v-1z"></path></g></svg>