<svg width="80" height="80" viewBox="0 0 80 80" xmlns="http://www.w3.org/2000/svg"><g fill="#555" fill-rule="evenodd"><path d="M38.146 51.999c-.24 0-.24.027-.373-.163C34.546 47.71 33 43.532 33 39c0-4.478 1.546-8.684 4.773-12.836.133-.19.133-.163.32-.163h.746c.213 0 .187 0 .08.19-2.8 4.45-4.186 8.711-4.186 12.809 0 4.152 1.44 8.358 4.213 12.809.08.135.053.19-.133.19h-.667zM57.164 51.999c-.16 0-.187-.055-.107-.19 2.784-4.45 4.203-8.657 4.203-12.809 0-4.125-1.392-8.358-4.176-12.809-.107-.19-.134-.19.053-.19h.75c.187 0 .16-.027.348.163C61.475 30.316 63 34.522 63 39c0 4.532-1.526 8.711-4.765 12.836-.187.19-.16.163-.402.163h-.669zM71 30.61l-.178-.147c-.193.227-.522.708-.852.708-.15 0-.192-.106-.206-.187 0-.066 0-.106.014-.133l.81-3.087c.069-.267.151-.601.151-.935 0-.441-.165-.829-.769-.829-.824 0-1.647.882-2.197 1.55-.027.04-.7.976-.768.976h-.042l.7-2.526-2.182.307.027.2c.096-.013.247-.04.384-.04.371 0 .412.188.412.428L65 31.893h1.057l.453-1.657c.083-.28.44-.909.934-1.63.426-.628 1.29-1.777 1.812-1.777.247 0 .33.253.33.507 0 .187-.069.455-.096.562l-.783 2.953c-.041.147-.096.36-.096.534 0 .308.124.615.563.615.714 0 1.373-.855 1.757-1.31l.069-.08zM52 52.147l-.238-.196c-.256.303-.696.944-1.135.944-.201 0-.256-.142-.275-.25 0-.088 0-.142.019-.177l1.08-4.116c.091-.356.201-.802.201-1.247 0-.588-.22-1.105-1.025-1.105-1.098 0-2.197 1.176-2.93 2.067-.036.053-.933 1.3-1.024 1.3h-.055L47.55 46l-2.91.41.036.267c.128-.018.33-.053.513-.053.494 0 .55.25.55.57L44 53.857h1.41l.604-2.209c.11-.374.586-1.211 1.245-2.174.567-.837 1.72-2.37 2.416-2.37.33 0 .44.34.44.678 0 .25-.092.606-.129.748l-1.043 3.938c-.055.196-.128.48-.128.712 0 .41.164.82.75.82.952 0 1.83-1.14 2.343-1.746l.092-.107z"></path><path d="M39 39h18v1H39zM50 33v-.222c-1.06 0-1.343-.266-1.343-.902v-8.832L48.53 23 46 24.346v.207l.382-.148c.254-.103.494-.177.636-.177.296 0 .424.222.424.725v6.642c0 .813-.297 1.124-1.343 1.183V33H50z"></path><g><path d="M18 57.828h-2.415l-.05.141h.15c.124 0 .323.083.323.224 0 .153-.124.306-.261.424l-2.079 1.756L15.075 55l-1.967.295.037.164c.1-.023.224-.023.336-.023.274 0 .399.13.399.26a.722.722 0 0 1-.038.235L12 62.87h.946l.56-1.956.697-.578.785 1.732c.136.307.398.931.97.931.847 0 1.432-1.26 1.581-1.508l-.186-.13c-.274.354-.548.86-.921.86-.324 0-.473-.282-.66-.695l-.797-1.79 1.32-1.085c.473-.388.821-.6 1.655-.683l.05-.141zM30 63v-.178c-.795 0-1.007-.213-1.007-.721v-7.065L28.898 55 27 56.077v.166l.286-.119c.191-.083.371-.142.477-.142.223 0 .318.178.318.58v5.314c0 .65-.222.9-1.007.946V63H30zM26 58.792V58h-7v.792zM26 61.792V61h-7v.792zM17.759 30.118l5.632 7.942v.816l-6.315 8.06h7.61c.478 0 .839-.028 1.082-.085.242-.058.45-.145.624-.264.174-.118.332-.283.474-.494.143-.211.28-.503.41-.876.132-.372.255-.86.37-1.461H29l-.3 4.61c-.008.236-.076.401-.203.494-.127.093-.314.14-.561.14H14v-.602l7.147-9.124-6.708-9.661V29h13.312c.2 0 .364.021.491.064a.624.624 0 0 1 .295.194c.07.086.118.19.145.312.027.121.04.261.04.419v3.793h-1.249a16.852 16.852 0 0 0-.549-1.665c-.173-.43-.35-.77-.532-1.021a2.432 2.432 0 0 0-.555-.575 2.099 2.099 0 0 0-.653-.301c-.247-.068-.575-.102-.984-.102H17.76zM27 19.902C27 21.256 25.99 23 24.222 23c-1.15 0-1.95-.74-2.82-2.023C20.77 22.247 19.816 23 18.469 23 17.263 23 16 22.135 16 20.21c0-2.568 1.866-3.21 2.68-3.21 1.024 0 1.726.265 3.059 2.051.645-1.158 1.29-2.051 2.707-2.051C25.71 17 27 18.033 27 19.902zm-4.98-.32v.041c1.01 1.66 1.781 2.554 2.735 2.554.786 0 1.403-.768 1.403-1.66 0-1.27-.715-2.345-1.95-2.345-1.249 0-1.782.823-2.189 1.41zm-.927.892v-.041c-1.01-1.66-1.894-2.61-2.848-2.61-.786 0-1.403.768-1.403 1.66 0 1.187.715 2.345 1.95 2.345 1.249 0 1.922-.851 2.301-1.354z"></path></g></g></svg>