<svg width="80" height="80" viewBox="0 0 80 80" xmlns="http://www.w3.org/2000/svg"><g fill="#555" fill-rule="evenodd"><path d="M19 57.828h-2.415l-.05.141h.15c.124 0 .323.083.323.224 0 .153-.124.306-.261.424l-2.079 1.756L16.075 55l-1.967.295.037.164c.1-.023.224-.023.336-.023.274 0 .399.13.399.26a.722.722 0 0 1-.038.235L13 62.87h.946l.56-1.956.697-.578.785 1.732c.136.307.398.931.97.931.847 0 1.432-1.26 1.581-1.508l-.186-.13c-.274.354-.548.86-.921.86-.324 0-.473-.282-.66-.695l-.797-1.79 1.32-1.085c.473-.388.821-.6 1.655-.683l.05-.141zM31 63v-.178c-.795 0-1.007-.213-1.007-.721v-7.065L29.898 55 28 56.077v.166l.286-.119c.191-.083.371-.142.477-.142.223 0 .318.178.318.58v5.314c0 .65-.222.9-1.007.946V63H31zM27 58.792V58h-7v.792zM27 61.792V61h-7v.792z"></path><g><path d="M36.058 43.02v-.21c-.896-.056-1.05-.238-1.05-1.008v-8.288l-.07-.056c-.728.238-1.246.378-2.212.616v.224c.224-.028.406-.028.518-.028.448 0 .588.224.588.896v6.566c0 .77-.196 1.008-1.078 1.078v.21h3.304zM42.932 39.786c0 1.946-1.26 3.374-3.15 3.374-1.694 0-3.024-1.386-3.024-3.332s1.26-3.248 3.15-3.248c1.708 0 3.024 1.274 3.024 3.206zm-1.26.378c0-.952-.252-1.918-.7-2.492-.336-.42-.728-.7-1.33-.7-.966 0-1.624.826-1.624 2.226 0 1.106.224 2.114.742 2.87.308.448.756.7 1.26.7 1.036 0 1.652-.98 1.652-2.604zM49.932 37.588H48.77c.196.448.266.77.266 1.176 0 .728-.224 1.246-.728 1.624-.448.336-.966.546-1.456.546-.084 0-.28-.014-.532-.042l-.266-.028c-.378.112-.84.602-.84.882 0 .224.336.336 1.092.378l1.806.084c1.036.042 1.694.63 1.694 1.498 0 .56-.266 1.022-.84 1.47-.728.56-1.792.896-2.8.896-1.344 0-2.422-.616-2.422-1.358 0-.518.364-.98 1.372-1.708-.588-.28-.742-.434-.742-.742 0-.28.182-.56.644-.966.21-.182.406-.364.602-.56-.938-.462-1.302-.994-1.302-1.876 0-1.274 1.036-2.282 2.338-2.282.364 0 .742.07 1.12.21l.308.112c.28.098.49.14.77.14h1.078v.546zm-4.452.7v.042c0 1.344.574 2.254 1.442 2.254.63 0 1.036-.49 1.036-1.26a3.7 3.7 0 0 0-.42-1.694c-.224-.42-.588-.658-1.022-.658-.644 0-1.036.49-1.036 1.316zm3.934 5.628c0-.518-.462-.686-1.736-.686-.686 0-1.792-.084-2.268-.182-.56.672-.686.882-.686 1.204 0 .616.798 1.022 2.03 1.022 1.596 0 2.66-.546 2.66-1.358z"></path></g><path d="M18.759 30.118l5.632 7.942v.816l-6.315 8.06h7.61c.478 0 .839-.028 1.082-.085.242-.058.45-.145.624-.264.174-.118.332-.283.474-.494.143-.211.28-.503.41-.876.132-.372.255-.86.37-1.461H30l-.3 4.61c-.008.236-.076.401-.203.494-.127.093-.314.14-.561.14H15v-.602l7.147-9.124-6.708-9.661V29h13.312c.2 0 .364.021.491.064a.624.624 0 0 1 .295.194c.07.086.118.19.145.312.027.121.04.261.04.419v3.793h-1.249a16.852 16.852 0 0 0-.549-1.665c-.173-.43-.35-.77-.532-1.021a2.432 2.432 0 0 0-.555-.575 2.099 2.099 0 0 0-.653-.301c-.247-.068-.575-.102-.984-.102H18.76zM28 19.902C28 21.256 26.99 23 25.222 23c-1.15 0-1.95-.74-2.82-2.023C21.77 22.247 20.816 23 19.469 23 18.263 23 17 22.135 17 20.21c0-2.568 1.866-3.21 2.68-3.21 1.024 0 1.726.265 3.059 2.051.645-1.158 1.29-2.051 2.707-2.051C26.71 17 28 18.033 28 19.902zm-4.98-.32v.041c1.01 1.66 1.781 2.554 2.735 2.554.786 0 1.403-.768 1.403-1.66 0-1.27-.715-2.345-1.95-2.345-1.249 0-1.782.823-2.189 1.41zm-.927.892v-.041c-1.01-1.66-1.894-2.61-2.848-2.61-.786 0-1.403.768-1.403 1.66 0 1.187.715 2.345 1.95 2.345 1.249 0 1.922-.851 2.301-1.354zM54 33h1v1h-1v-1zm2 0h1v1h-1v-1zm2 0h1v1h-1v-1zm2 0h1v1h-1v-1zm2 0h1v1h-1v-1zm2 0h1v1h-1v-1zm2 0h1v1h-1v-1zm-12 2h1v1h-1v-1zm12 0h1v1h-1v-1zm-12 2h1v1h-1v-1zm12 0h1v1h-1v-1zm-12 2h1v1h-1v-1zm12 0h1v1h-1v-1zm-12 2h1v1h-1v-1zm12 0h1v1h-1v-1zm-12 2h1v1h-1v-1zm2 2h1v1h-1v-1zm2 0h1v1h-1v-1zm2 0h1v1h-1v-1zm2 0h1v1h-1v-1zm2 0h1v1h-1v-1zm2-2h1v1h-1v-1zm-12 2h1v1h-1v-1zm12 0h1v1h-1v-1z"></path></g></svg>