<svg width="80" height="80" viewBox="0 0 80 80" xmlns="http://www.w3.org/2000/svg"><g fill="#555" fill-rule="evenodd"><path d="M43 34h1v1h-1v-1zm2 0h1v1h-1v-1zm2 0h1v1h-1v-1zm2 0h1v1h-1v-1zm2 0h1v1h-1v-1zm4 0h1v1h-1v-1zm-12 4h1v1h-1v-1zm0-2h1v1h-1v-1zm12 0h1v1h-1v-1zm-12 4h1v1h-1v-1zm12-2h1v1h-1v-1zm-12 4h1v1h-1v-1zm12-2h1v1h-1v-1zm-12 4h1v1h-1v-1zm12-2h1v1h-1v-1zm-12 4h1v1h-1v-1zm2 0h1v1h-1v-1zm2 0h1v1h-1v-1zm2 0h1v1h-1v-1zm2 0h1v1h-1v-1zm2-12h1v1h-1v-1zm0 12h1v1h-1v-1zm2 0h1v1h-1v-1zm0-2h1v1h-1v-1zM40 30v.527c-.412.121-.702.232-.87.333-.17.1-.306.23-.41.392-.105.161-.18.396-.223.704-.044.308-.066.806-.066 1.494v13.1c0 .645.02 1.123.06 1.435.041.312.109.552.203.72.095.168.228.308.4.42.172.11.474.227.906.348V50h-5.364v-.527c.404-.114.691-.223.86-.327.169-.104.304-.239.405-.403.101-.165.174-.403.217-.715.044-.312.066-.804.066-1.478V31.14h-7.388v15.41c0 .695.021 1.193.065 1.494.044.301.117.532.218.693.101.161.24.296.415.403.175.108.469.219.88.333V50H25v-.527c.405-.114.695-.223.87-.327a1.13 1.13 0 0 0 .41-.409c.098-.168.17-.406.213-.714.044-.309.066-.8.066-1.473v-13.1c0-.674-.022-1.164-.066-1.473-.044-.308-.113-.542-.208-.703a1.173 1.173 0 0 0-.4-.404c-.171-.107-.467-.222-.885-.343V30h15z"></path></g></svg>