<svg width="80" height="80" viewBox="0 0 80 80" xmlns="http://www.w3.org/2000/svg"><path d="M24 29h2.048v12.928c0 5.088 2.592 7.04 5.632 7.04 3.36 0 5.888-2.08 5.888-7.04V29h2.048v12.768c0 6.304-3.648 9.152-8.032 9.152-4.096 0-7.584-2.656-7.584-8.992V29zm19 4h1v1h-1v-1zm2 0h1v1h-1v-1zm2 0h1v1h-1v-1zm2 0h1v1h-1v-1zm2 0h1v1h-1v-1zm4 0h1v1h-1v-1zm-12 4h1v1h-1v-1zm0-2h1v1h-1v-1zm12 0h1v1h-1v-1zm-12 4h1v1h-1v-1zm12-2h1v1h-1v-1zm-12 4h1v1h-1v-1zm12-2h1v1h-1v-1zm-12 4h1v1h-1v-1zm12-2h1v1h-1v-1zm-12 4h1v1h-1v-1zm2 0h1v1h-1v-1zm2 0h1v1h-1v-1zm2 0h1v1h-1v-1zm2 0h1v1h-1v-1zm2-12h1v1h-1v-1zm0 12h1v1h-1v-1zm2 0h1v1h-1v-1zm0-2h1v1h-1v-1z" fill="#555" fill-rule="evenodd"></path></svg>