<svg width="80" height="80" viewBox="0 0 80 80" xmlns="http://www.w3.org/2000/svg"><path d="M30.207 51L22 29h2.459l7.089 19.803h.032L38.669 29H41l-8.239 22h-2.554zM43 34h1v1h-1v-1zm2 0h1v1h-1v-1zm2 0h1v1h-1v-1zm2 0h1v1h-1v-1zm2 0h1v1h-1v-1zm4 0h1v1h-1v-1zm-12 4h1v1h-1v-1zm0-2h1v1h-1v-1zm12 0h1v1h-1v-1zm-12 4h1v1h-1v-1zm12-2h1v1h-1v-1zm-12 4h1v1h-1v-1zm12-2h1v1h-1v-1zm-12 4h1v1h-1v-1zm12-2h1v1h-1v-1zm-12 4h1v1h-1v-1zm2 0h1v1h-1v-1zm2 0h1v1h-1v-1zm2 0h1v1h-1v-1zm2 0h1v1h-1v-1zm2-12h1v1h-1v-1zm0 12h1v1h-1v-1zm2 0h1v1h-1v-1zm0-2h1v1h-1v-1z" fill="#555" fill-rule="evenodd"></path></svg>