<svg width="80" height="80" viewBox="0 0 80 80" xmlns="http://www.w3.org/2000/svg"><g fill="#555" fill-rule="evenodd"><path d="M50 35h1v1h-1v-1zm2 0h1v1h-1v-1zm2 0h1v1h-1v-1zm2 0h1v1h-1v-1zm2 0h1v1h-1v-1zm-6 8h1v1h-1v-1zm2 0h1v1h-1v-1zm2 0h1v1h-1v-1zm2 0h1v1h-1v-1zm2-8h1v1h-1v-1zm-10 2h1v1h-1v-1zm10 0h1v1h-1v-1zm-10 2h1v1h-1v-1zm10 0h1v1h-1v-1zm-10 2h1v1h-1v-1zm10 0h1v1h-1v-1zm-10 2h1v1h-1v-1zm10 0h1v1h-1v-1zm-20-4h1v1h-1v-1zm2 0h1v1h-1v-1zm2 0h1v1h-1v-1zm2 0h1v1h-1v-1zm-4 6h1v1h-1v-1zm2 0h1v1h-1v-1zm-4-4h1v1h-1v-1zm6 0h1v1h-1v-1zm-6 2h1v1h-1v-1zm6 0h1v1h-1v-1zm-6 2h1v1h-1v-1zm6 0h1v1h-1v-1zM22 44v-.22c-.807-.058-.945-.249-.945-1.054V34.06L20.992 34c-.656.249-1.122.395-1.992.644v.234c.202-.029.366-.029.466-.029.404 0 .53.234.53.937v6.867c0 .805-.177 1.054-.97 1.127V44H22zM29 40.923C29 42.698 27.776 44 25.939 44 24.293 44 23 42.736 23 40.962 23 39.187 24.224 38 26.061 38 27.721 38 29 39.162 29 40.923zm-1.224.345c0-.868-.245-1.749-.68-2.272-.327-.383-.708-.639-1.293-.639-.94 0-1.579.754-1.579 2.03 0 1.009.218 1.928.722 2.617.299.409.734.639 1.224.639 1.007 0 1.606-.894 1.606-2.375zM36 37.956h-1.127c.19.425.258.73.258 1.115 0 .69-.217 1.181-.706 1.54-.434.318-.936.517-1.411.517-.082 0-.272-.013-.516-.04l-.258-.026c-.367.106-.815.57-.815.836 0 .213.326.319 1.06.359l1.75.08c1.005.04 1.643.597 1.643 1.42 0 .53-.258.969-.815 1.393-.706.531-1.737.85-2.715.85C31.045 46 30 45.416 30 44.712c0-.49.353-.929 1.33-1.62-.57-.265-.72-.41-.72-.703 0-.265.177-.53.625-.916.204-.172.394-.345.584-.53-.91-.439-1.262-.943-1.262-1.78 0-1.207 1.004-2.163 2.267-2.163.352 0 .719.066 1.086.2l.298.105c.272.093.475.133.747.133H36v.518zm-4.317.663v.04c0 1.275.557 2.137 1.398 2.137.611 0 1.005-.464 1.005-1.194 0-.544-.15-1.142-.407-1.606-.217-.399-.57-.624-.991-.624-.625 0-1.005.464-1.005 1.247zm3.815 5.337c0-.491-.448-.65-1.684-.65-.665 0-1.737-.08-2.199-.173-.543.637-.665.836-.665 1.141 0 .584.774.97 1.969.97 1.547 0 2.579-.518 2.579-1.288z"></path></g></svg>