<svg width="161" height="80" viewBox="0 0 161 80" xmlns="http://www.w3.org/2000/svg"><g fill="#555" fill-rule="evenodd"><path d="M119 42.463a8 8 0 0 0 1.124-1.341 8.715 8.715 0 0 0 1.284-3.08 7.98 7.98 0 0 0 .16-1.576 8.1 8.1 0 0 0-.167-1.596 9.24 9.24 0 0 0-.488-1.63 8.73 8.73 0 0 0-.79-1.516 6.224 6.224 0 0 0-1.07-1.254l.469-.47c1.204.894 2.084 1.89 2.642 2.985a7.574 7.574 0 0 1 .836 3.481c0 .582-.062 1.148-.187 1.698a6.713 6.713 0 0 1-.609 1.63 8.678 8.678 0 0 1-1.104 1.603A12.89 12.89 0 0 1 119.428 43l-.428-.537zM117 43.61l-.178-.147c-.193.227-.522.708-.852.708-.15 0-.192-.106-.206-.187 0-.066 0-.106.014-.133l.81-3.087c.069-.267.151-.601.151-.935 0-.441-.165-.829-.769-.829-.824 0-1.647.882-2.197 1.55-.027.04-.7.976-.768.976h-.042l.7-2.526-2.182.307.027.2c.096-.013.247-.04.384-.04.371 0 .412.188.412.428L111 44.893h1.057l.453-1.657c.083-.28.44-.909.934-1.63.426-.628 1.29-1.777 1.812-1.777.247 0 .33.253.33.507 0 .187-.069.455-.096.562l-.783 2.953c-.041.147-.096.36-.096.534 0 .308.124.615.563.615.714 0 1.373-.855 1.757-1.31l.069-.08zM106.921 33.054l.07.071c.57-.565 1.244-1.113 2.09-1.113 1.21 0 1.919 1.22 1.919 2.668 0 2.139-1.884 5.32-4.598 5.32-.916 0-1.624-.318-2.402-.848l2.489-9.95c.017-.07.034-.142.034-.195-.017-.23-.276-.37-.5-.37-.174 0-.381.017-.52.07l-.051-.283 2.73-.424-1.261 5.054zm-.605 2.298l-.95 3.8c0 .123.553.335.95.335 2.109 0 3.25-3.075 3.25-4.877 0-1.237-.657-1.626-1.228-1.626-1.244 0-1.832 1.573-2.022 2.368zM90 41.974V41h9v.974zM95 35.966V40h-1.015v-4.034H90v-.932h3.985V31H95v4.034H99v.932zM86 43.61l-.178-.147c-.193.227-.522.708-.852.708-.15 0-.192-.106-.206-.187 0-.066 0-.106.014-.133l.81-3.087c.069-.267.151-.601.151-.935 0-.441-.165-.829-.769-.829-.824 0-1.647.882-2.197 1.55-.027.04-.7.976-.768.976h-.042l.7-2.526-2.182.307.027.2c.096-.013.247-.04.384-.04.371 0 .412.188.412.428L80 44.893h1.057l.453-1.657c.083-.28.44-.909.934-1.63.426-.628 1.29-1.777 1.812-1.777.247 0 .33.253.33.507 0 .187-.069.455-.096.562l-.783 2.953c-.041.147-.096.36-.096.534 0 .308.124.615.563.615.714 0 1.373-.855 1.757-1.31l.069-.08zM79 33.202l-1.475 5.355s-.016.03-.016.17c0 .171.097.264.227.264.162 0 .405-.03 1.037-.838l.195.186C78.465 39.07 77.59 40 76.813 40c-.535 0-.681-.357-.681-.854 0-.201.097-.527.178-.776h-.065C75.08 39.798 74.075 40 73.442 40 72.422 40 72 39.146 72 38.153 72 36.104 74.139 33 76.472 33c.697 0 1.037.373 1.07.714h.016l.146-.512H79zm-1.701 1.35c0-.636-.195-1.102-.81-1.102-1.102 0-2.075 1.35-2.626 2.654-.291.699-.453 1.382-.453 1.925 0 .822.502 1.024.94 1.024 1.118 0 2.252-1.474 2.706-2.949a5.6 5.6 0 0 0 .243-1.552zM70 42.463l-.453.537a12.137 12.137 0 0 1-1.674-1.603 8.852 8.852 0 0 1-1.093-1.603 6.524 6.524 0 0 1-.6-1.63 7.94 7.94 0 0 1-.18-1.698c0-1.225.276-2.385.827-3.481.55-1.096 1.426-2.09 2.626-2.985l.494.47a6.164 6.164 0 0 0-1.087 1.254c-.316.478-.58.984-.793 1.516a9.264 9.264 0 0 0-.487 1.63 8.127 8.127 0 0 0-.167 1.596c0 .52.054 1.045.16 1.577a8.562 8.562 0 0 0 1.287 3.079c.324.483.704.93 1.14 1.341z"></path><g><path d="M66 48.902C66 50.256 65.082 52 63.474 52c-1.045 0-1.772-.74-2.563-2.023-.574 1.27-1.442 2.023-2.666 2.023C57.148 52 56 51.135 56 49.21c0-2.568 1.696-3.21 2.436-3.21.931 0 1.57.265 2.78 2.051C61.805 46.893 62.39 46 63.68 46 64.827 46 66 47.033 66 48.902zm-4.528-.32v.041c.918 1.66 1.62 2.554 2.487 2.554.714 0 1.276-.768 1.276-1.66 0-1.27-.65-2.345-1.773-2.345-1.135 0-1.62.823-1.99 1.41zm-.842.892v-.041c-.918-1.66-1.722-2.61-2.59-2.61-.713 0-1.275.768-1.275 1.66 0 1.187.65 2.345 1.773 2.345 1.135 0 1.748-.851 2.092-1.354zM52 50h-5v-1h5v-1h1v1h1v1h-1v1h-1v-1zm-1-3h1v1h-1v-1zm0 4h1v1h-1v-1zM45 51.61l-.178-.147c-.193.227-.522.708-.852.708-.15 0-.192-.106-.206-.187 0-.066 0-.106.014-.133l.81-3.087c.069-.267.151-.601.151-.935 0-.441-.165-.829-.769-.829-.824 0-1.647.882-2.197 1.55-.027.04-.7.976-.768.976h-.042l.7-2.526-2.182.307.027.2c.096-.013.247-.04.384-.04.371 0 .412.188.412.428L39 52.893h1.057l.453-1.657c.083-.28.44-.909.934-1.63.426-.628 1.29-1.777 1.812-1.777.247 0 .33.253.33.507 0 .187-.069.455-.096.562l-.783 2.953c-.041.147-.096.36-.096.534 0 .308.124.615.563.615.714 0 1.373-.855 1.757-1.31l.069-.08z"></path></g><g><path d="M46 41v-.22c-.807-.058-.945-.249-.945-1.054V31.06L44.992 31c-.656.249-1.122.395-1.992.644v.234c.202-.029.366-.029.466-.029.404 0 .53.234.53.937v6.867c0 .805-.177 1.054-.97 1.127V41H46zM49 32c0-.549-.431-1-1-1-.549 0-1 .451-1 1 0 .569.431 1 .98 1 .589 0 1.02-.431 1.02-1zM50 41v-.196c-.835-.065-.937-.208-.937-1.174v-4.578l-.05-.052-1.962.717v.21c.227-.066.417-.066.531-.066.317 0 .418.209.418.822v2.96c0 .992-.127 1.11-1 1.161V41h3zM61 41v-.196l-.343-.026c-.395-.026-.566-.195-.566-.782v-2.648c0-1.54-.461-2.348-1.528-2.348-.765 0-1.437.34-2.148 1.096-.237-.744-.685-1.096-1.397-1.096-.592 0-1.146.117-2.015 1.004h-.027v-.965L52.871 35c-.672.248-1.107.391-1.831.587v.222c.17-.04.276-.052.421-.052.343 0 .461.221.461.86v3.235c0 .757-.184.94-.922.952V41h2.925v-.196c-.698-.026-.896-.156-.896-.717v-3.626c0-.026.079-.118.171-.222.264-.313.91-.56 1.397-.56.566 0 .856.547.856 1.447v2.752c0 .796-.145.874-.896.926V41h2.952v-.196c-.751-.013-.95-.195-.95-1.043v-3.287c.396-.561.791-.796 1.41-.796.752 0 1.015.43 1.015 1.461v2.687c0 .757-.118.9-.856.978V41H61z"></path></g></g></svg>