<svg width="80" height="80" viewBox="0 0 80 80" xmlns="http://www.w3.org/2000/svg"><g fill="#555" fill-rule="evenodd"><path d="M61.156 47.72l-.375-.978c-.225-.586-.581-1.315-1.406-1.742l-2.475.587.056.32a2.21 2.21 0 0 1 .713-.107c1.031 0 1.518.729 1.837 1.582l.619 1.636-1.219 1.795c-.6.871-1.087 1.05-1.312 1.05-.469 0-.394-.356-.882-.356a.688.688 0 0 0-.712.657c0 .392.3.836.975.836 1.05 0 1.594-.764 2.194-1.636l1.181-1.742.75 2.01c.244.64.6 1.368 1.369 1.368 1.087 0 1.931-1.707 2.156-1.973l-.262-.178c-.394.764-.844 1.013-1.144 1.013-.844 0-1.275-2.4-1.838-3.502l1.032-1.511c.262-.391.468-.676 1.03-.676.32 0 .413.16.826.16.487 0 .731-.409.731-.746 0-.374-.319-.587-.919-.587-.937 0-1.594.782-2.081 1.493l-.844 1.227zM55 53h-8l8-8v8zm-1-1v-5l-5 5h5zM42 39h29v1H42zM60.12 27.348c-.154-1.306-.275-1.765-.67-2.348l-2.574.441.034.283c.154-.018.43-.07.618-.07.961 0 1.116 1.059 1.202 1.853l.652 5.544c-.446.707-1.425 1.801-1.717 1.801-.274 0-.24-.547-.978-.547-.223 0-.687.194-.687.724 0 .424.326.971.961.971 1.168 0 2.284-1.73 3.537-3.355.72-.936 3.502-5.173 3.502-6.55 0-.689-.43-1.095-.979-1.095-.497 0-.806.318-.806.706 0 .671.892.848.892 1.219 0 .317-.137.67-.48 1.324-.378.724-.979 1.783-2.026 3.249l-.48-4.15zM55 33h-8l8-8v8zm-1-1v-5l-5 5h5z"></path><g><path d="M38.437 55c-.822 0-1.433-.325-1.835-.974-.401-.649-.602-1.633-.602-2.954 0-.703.062-1.31.186-1.821.123-.512.296-.935.519-1.269.223-.334.49-.581.802-.741.312-.16.652-.241 1.022-.241.833 0 1.453.323 1.86.968.407.645.611 1.62.611 2.926 0 1.352-.218 2.374-.654 3.067-.435.693-1.072 1.039-1.909 1.039zm-1.324-4.1c0 1.244.115 2.158.345 2.74.23.582.587.873 1.07.873.461 0 .802-.274 1.025-.822.223-.547.334-1.396.334-2.545 0-.878-.057-1.59-.171-2.133-.114-.544-.273-.934-.477-1.171a.942.942 0 0 0-.739-.355.959.959 0 0 0-.66.235c-.176.156-.319.381-.427.675a4.544 4.544 0 0 0-.231 1.074c-.046.422-.069.898-.069 1.429zM31 52h-5v-1h5v-1h1v1h1v1h-1v1h-1v-1zm-1-3h1v1h-1v-1zm0 4h1v1h-1v-1zM21.438 50.7l-.25-.611c-.15-.367-.388-.822-.938-1.089l-1.65.367.037.2c.126-.045.313-.067.476-.067.687 0 1.012.456 1.225.989l.412 1.022-.812 1.122c-.4.545-.725.656-.875.656-.313 0-.263-.222-.588-.222-.312 0-.475.233-.475.41 0 .245.2.523.65.523.7 0 1.063-.478 1.463-1.022l.787-1.09.5 1.256c.163.4.4.856.913.856.725 0 1.287-1.067 1.437-1.233l-.175-.111c-.262.477-.562.633-.762.633-.563 0-.85-1.5-1.225-2.189l.687-.944c.175-.245.313-.423.688-.423.212 0 .275.1.55.1a.47.47 0 0 0 .487-.466c0-.234-.212-.367-.612-.367-.625 0-1.063.489-1.388.933l-.562.767zM16 54H8l8-8v8zm-1-1v-5l-5 5h5z"></path><g><path d="M22 43v-.22c-.807-.058-.945-.249-.945-1.054V33.06L20.992 33c-.656.249-1.122.395-1.992.644v.234c.202-.029.366-.029.466-.029.404 0 .53.234.53.937v6.867c0 .805-.177 1.054-.97 1.127V43H22zM25 34c0-.549-.431-1-1-1-.549 0-1 .451-1 1 0 .569.431 1 .98 1 .589 0 1.02-.431 1.02-1zM26 43v-.196c-.835-.065-.937-.208-.937-1.174v-4.578l-.05-.052-1.962.717v.21c.227-.066.417-.066.531-.066.317 0 .418.209.418.822v2.96c0 .992-.127 1.11-1 1.161V43h3zM37 43v-.196l-.343-.026c-.395-.026-.566-.195-.566-.782v-2.648c0-1.54-.461-2.348-1.528-2.348-.765 0-1.437.34-2.148 1.096-.237-.744-.685-1.096-1.397-1.096-.592 0-1.146.117-2.015 1.004h-.027v-.965L28.871 37c-.672.248-1.107.391-1.831.587v.222c.17-.04.276-.052.421-.052.343 0 .461.221.461.86v3.235c0 .757-.184.94-.922.952V43h2.925v-.196c-.698-.026-.896-.156-.896-.717v-3.626c0-.026.079-.118.171-.222.264-.313.91-.56 1.397-.56.566 0 .856.547.856 1.447v2.752c0 .796-.145.874-.896.926V43h2.952v-.196c-.751-.013-.95-.195-.95-1.043v-3.287c.396-.561.791-.796 1.41-.796.752 0 1.015.43 1.015 1.461v2.687c0 .757-.118.9-.856.978V43H37z"></path></g></g></g></svg>