<svg width="161" height="80" viewBox="0 0 161 80" xmlns="http://www.w3.org/2000/svg"><g fill="#555" fill-rule="evenodd"><path d="M127 33.61l-.178-.147c-.193.227-.522.708-.852.708-.15 0-.192-.106-.206-.187 0-.066 0-.106.014-.133l.81-3.087c.069-.267.151-.601.151-.935 0-.441-.165-.829-.769-.829-.824 0-1.647.882-2.197 1.55-.027.04-.7.976-.768.976h-.042l.7-2.526-2.182.307.027.2c.096-.013.247-.04.384-.04.371 0 .412.188.412.428L121 34.893h1.057l.453-1.657c.083-.28.44-.909.934-1.63.426-.628 1.29-1.777 1.812-1.777.247 0 .33.253.33.507 0 .187-.069.455-.096.562l-.783 2.953c-.041.147-.096.36-.096.534 0 .308.124.615.563.615.714 0 1.373-.855 1.757-1.31l.069-.08zM115 45.463a8 8 0 0 0 1.124-1.341 8.715 8.715 0 0 0 1.284-3.08 7.98 7.98 0 0 0 .16-1.576 8.1 8.1 0 0 0-.167-1.596 9.24 9.24 0 0 0-.488-1.63 8.73 8.73 0 0 0-.79-1.516 6.224 6.224 0 0 0-1.07-1.254l.469-.47c1.204.894 2.084 1.89 2.642 2.985a7.574 7.574 0 0 1 .836 3.481c0 .582-.062 1.148-.187 1.698a6.713 6.713 0 0 1-.609 1.63 8.678 8.678 0 0 1-1.104 1.603A12.89 12.89 0 0 1 115.428 46l-.428-.537zM106 50.147l-.238-.196c-.256.303-.696.944-1.135.944-.201 0-.256-.142-.275-.25 0-.088 0-.142.019-.177l1.08-4.116c.091-.356.201-.802.201-1.247 0-.588-.22-1.105-1.025-1.105-1.098 0-2.197 1.176-2.93 2.067-.036.053-.933 1.3-1.024 1.3h-.055L101.55 44l-2.91.41.036.267c.128-.018.33-.053.513-.053.494 0 .55.25.55.57L98 51.857h1.41l.604-2.209c.11-.374.586-1.211 1.245-2.174.567-.837 1.72-2.37 2.416-2.37.33 0 .44.34.44.678 0 .25-.092.606-.129.748l-1.043 3.938c-.055.196-.128.48-.128.712 0 .41.164.82.75.82.952 0 1.83-1.14 2.343-1.746l.092-.107zM93 39.974V39h18v.974zM104 35v-.244c-1.06 0-1.343-.293-1.343-.993V24.05L102.53 24 100 25.48v.229l.382-.163c.254-.114.494-.195.636-.195.296 0 .424.244.424.797v7.306c0 .895-.297 1.237-1.343 1.302V35H104zM85 39.966V44h-1.015v-4.034H80v-.932h3.985V35H85v4.034H89v.932zM76 45v-.244c-1.06 0-1.343-.293-1.343-.993V34.05L74.53 34 72 35.48v.229l.382-.163c.254-.114.494-.195.636-.195.296 0 .424.244.424.797v7.306c0 .895-.297 1.237-1.343 1.302V45H76zM67 45.463l-.453.537a12.137 12.137 0 0 1-1.674-1.603 8.852 8.852 0 0 1-1.093-1.603 6.524 6.524 0 0 1-.6-1.63 7.94 7.94 0 0 1-.18-1.698c0-1.225.276-2.385.827-3.481.55-1.096 1.426-2.09 2.626-2.985l.494.47a6.164 6.164 0 0 0-1.087 1.254c-.316.478-.58.984-.793 1.516a9.264 9.264 0 0 0-.487 1.63 8.127 8.127 0 0 0-.167 1.596c0 .52.054 1.045.16 1.577a8.562 8.562 0 0 0 1.287 3.079c.324.483.704.93 1.14 1.341z"></path><g><path d="M61 51.902C61 53.256 60.082 55 58.474 55c-1.045 0-1.772-.74-2.563-2.023-.574 1.27-1.442 2.023-2.666 2.023C52.148 55 51 54.135 51 52.21c0-2.568 1.696-3.21 2.436-3.21.931 0 1.57.265 2.78 2.051C56.805 49.893 57.39 49 58.68 49 59.827 49 61 50.033 61 51.902zm-4.528-.32v.041c.918 1.66 1.62 2.554 2.487 2.554.714 0 1.276-.768 1.276-1.66 0-1.27-.65-2.345-1.773-2.345-1.135 0-1.62.823-1.99 1.41zm-.842.892v-.041c-.918-1.66-1.722-2.61-2.59-2.61-.713 0-1.275.768-1.275 1.66 0 1.187.65 2.345 1.773 2.345 1.135 0 1.748-.851 2.092-1.354zM47 53h-5v-1h5v-1h1v1h1v1h-1v1h-1v-1zm-1-3h1v1h-1v-1zm0 4h1v1h-1v-1zM40 54.61l-.178-.147c-.193.227-.522.708-.852.708-.15 0-.192-.106-.206-.187 0-.066 0-.106.014-.133l.81-3.087c.069-.267.151-.601.151-.935 0-.441-.165-.829-.769-.829-.824 0-1.647.882-2.197 1.55-.027.04-.7.976-.768.976h-.042l.7-2.526-2.182.307.027.2c.096-.013.247-.04.384-.04.371 0 .412.188.412.428L34 55.893h1.057l.453-1.657c.083-.28.44-.909.934-1.63.426-.628 1.29-1.777 1.812-1.777.247 0 .33.253.33.507 0 .187-.069.455-.096.562l-.783 2.953c-.041.147-.096.36-.096.534 0 .308.124.615.563.615.714 0 1.373-.855 1.757-1.31l.069-.08z"></path></g><g><path d="M41 44v-.22c-.807-.058-.945-.249-.945-1.054V34.06L39.992 34c-.656.249-1.122.395-1.992.644v.234c.202-.029.366-.029.466-.029.404 0 .53.234.53.937v6.867c0 .805-.177 1.054-.97 1.127V44H41zM44 35c0-.549-.431-1-1-1-.549 0-1 .451-1 1 0 .569.431 1 .98 1 .589 0 1.02-.431 1.02-1zM45 44v-.196c-.835-.065-.937-.208-.937-1.174v-4.578l-.05-.052-1.962.717v.21c.227-.066.417-.066.531-.066.317 0 .418.209.418.822v2.96c0 .992-.127 1.11-1 1.161V44h3zM56 44v-.196l-.343-.026c-.395-.026-.566-.195-.566-.782v-2.648c0-1.54-.461-2.348-1.528-2.348-.765 0-1.437.34-2.148 1.096-.237-.744-.685-1.096-1.397-1.096-.592 0-1.146.117-2.015 1.004h-.027v-.965L47.871 38c-.672.248-1.107.391-1.831.587v.222c.17-.04.276-.052.421-.052.343 0 .461.221.461.86v3.235c0 .757-.184.94-.922.952V44h2.925v-.196c-.698-.026-.896-.156-.896-.717v-3.626c0-.026.079-.118.171-.222.264-.313.91-.56 1.397-.56.566 0 .856.547.856 1.447v2.752c0 .796-.145.874-.896.926V44h2.952v-.196c-.751-.013-.95-.195-.95-1.043v-3.287c.396-.561.791-.796 1.41-.796.752 0 1.015.43 1.015 1.461v2.687c0 .757-.118.9-.856.978V44H56z"></path></g></g></svg>