<svg width="161" height="80" viewBox="0 0 161 80" xmlns="http://www.w3.org/2000/svg"><g fill="#555" fill-rule="evenodd"><path d="M83 56.828h-2.415l-.05.141h.15c.124 0 .323.083.323.224 0 .153-.124.306-.261.424l-2.079 1.756L80.075 54l-1.967.295.037.164c.1-.023.224-.023.336-.023.274 0 .399.13.399.26a.722.722 0 0 1-.038.235L77 61.87h.946l.56-1.956.697-.578.785 1.732c.136.307.398.931.97.931.847 0 1.432-1.26 1.581-1.508l-.186-.13c-.274.354-.548.86-.921.86-.324 0-.473-.282-.66-.695l-.797-1.79 1.32-1.085c.473-.388.821-.6 1.655-.683l.05-.141zM95 62v-.178c-.795 0-1.007-.213-1.007-.721v-7.065L93.898 54 92 55.077v.166l.286-.119c.191-.083.371-.142.477-.142.223 0 .318.178.318.58v5.314c0 .65-.222.9-1.007.946V62H95zM91 57.792V57h-7v.792zM91 60.792V60h-7v.792zM82.759 29.118l5.632 7.942v.816l-6.315 8.06h7.61c.478 0 .839-.028 1.082-.085.242-.058.45-.145.624-.264.174-.118.332-.283.474-.494.143-.211.28-.503.41-.876.132-.372.255-.86.37-1.461H94l-.3 4.61c-.008.236-.076.401-.203.494-.127.093-.314.14-.561.14H79v-.602l7.147-9.124-6.708-9.661V28h13.312c.2 0 .364.021.491.064a.624.624 0 0 1 .295.194c.07.086.118.19.145.312.027.121.04.261.04.419v3.793h-1.249a16.852 16.852 0 0 0-.549-1.665c-.173-.43-.35-.77-.532-1.021a2.432 2.432 0 0 0-.555-.575 2.099 2.099 0 0 0-.653-.301c-.247-.068-.575-.102-.984-.102H82.76zM89 20.61l-.178-.147c-.193.227-.522.708-.852.708-.15 0-.192-.106-.206-.187 0-.066 0-.106.014-.133l.81-3.087c.069-.267.151-.601.151-.935 0-.441-.165-.829-.769-.829-.824 0-1.647.882-2.197 1.55-.027.04-.7.976-.768.976h-.042l.7-2.526-2.182.307.027.2c.096-.013.247-.04.384-.04.371 0 .412.188.412.428L83 21.893h1.057l.453-1.657c.083-.28.44-.909.934-1.63.426-.628 1.29-1.777 1.812-1.777.247 0 .33.253.33.507 0 .187-.069.455-.096.562l-.783 2.953c-.041.147-.096.36-.096.534 0 .308.124.615.563.615.714 0 1.373-.855 1.757-1.31l.069-.08zM99 32h1v1h-1v-1zm2 0h1v1h-1v-1zm2 0h1v1h-1v-1zm2 0h1v1h-1v-1zm2 0h1v1h-1v-1zm2 0h1v1h-1v-1zm2 0h1v1h-1v-1zm-12 2h1v1h-1v-1zm12 0h1v1h-1v-1zm-12 2h1v1h-1v-1zm12 0h1v1h-1v-1zm-12 2h1v1h-1v-1zm12 0h1v1h-1v-1zm-12 2h1v1h-1v-1zm12 0h1v1h-1v-1zm-12 2h1v1h-1v-1zm2 2h1v1h-1v-1zm2 0h1v1h-1v-1zm2 0h1v1h-1v-1zm2 0h1v1h-1v-1zm2 0h1v1h-1v-1zm2-2h1v1h-1v-1zm-12 2h1v1h-1v-1zm12 0h1v1h-1v-1z"></path><g><path d="M70 45.902C70 47.256 69.082 49 67.474 49c-1.045 0-1.772-.74-2.563-2.023-.574 1.27-1.442 2.023-2.666 2.023C61.148 49 60 48.135 60 46.21c0-2.568 1.696-3.21 2.436-3.21.931 0 1.57.265 2.78 2.051C65.805 43.893 66.39 43 67.68 43 68.827 43 70 44.033 70 45.902zm-4.528-.32v.041c.918 1.66 1.62 2.554 2.487 2.554.714 0 1.276-.768 1.276-1.66 0-1.27-.65-2.345-1.773-2.345-1.135 0-1.62.823-1.99 1.41zm-.842.892v-.041c-.918-1.66-1.722-2.61-2.59-2.61-.713 0-1.275.768-1.275 1.66 0 1.187.65 2.345 1.773 2.345 1.135 0 1.748-.851 2.092-1.354zM56 47h-5v-1h5v-1h1v1h1v1h-1v1h-1v-1zm-1-3h1v1h-1v-1zm0 4h1v1h-1v-1zM49 48.61l-.178-.147c-.193.227-.522.708-.852.708-.15 0-.192-.106-.206-.187 0-.066 0-.106.014-.133l.81-3.087c.069-.267.151-.601.151-.935 0-.441-.165-.829-.769-.829-.824 0-1.647.882-2.197 1.55-.027.04-.7.976-.768.976h-.042l.7-2.526-2.182.307.027.2c.096-.013.247-.04.384-.04.371 0 .412.188.412.428L43 49.893h1.057l.453-1.657c.083-.28.44-.909.934-1.63.426-.628 1.29-1.777 1.812-1.777.247 0 .33.253.33.507 0 .187-.069.455-.096.562l-.783 2.953c-.041.147-.096.36-.096.534 0 .308.124.615.563.615.714 0 1.373-.855 1.757-1.31l.069-.08z"></path><g><path d="M50 38v-.22c-.807-.058-.945-.249-.945-1.054V28.06L48.992 28c-.656.249-1.122.395-1.992.644v.234c.202-.029.366-.029.466-.029.404 0 .53.234.53.937v6.867c0 .805-.177 1.054-.97 1.127V38H50zM53 29c0-.549-.431-1-1-1-.549 0-1 .451-1 1 0 .569.431 1 .98 1 .589 0 1.02-.431 1.02-1zM54 38v-.196c-.835-.065-.937-.208-.937-1.174v-4.578l-.05-.052-1.962.717v.21c.227-.066.417-.066.531-.066.317 0 .418.209.418.822v2.96c0 .992-.127 1.11-1 1.161V38h3zM65 38v-.196l-.343-.026c-.395-.026-.566-.195-.566-.782v-2.648c0-1.54-.461-2.348-1.528-2.348-.765 0-1.437.34-2.148 1.096-.237-.744-.685-1.096-1.397-1.096-.592 0-1.146.117-2.015 1.004h-.027v-.965L56.871 32c-.672.248-1.107.391-1.831.587v.222c.17-.04.276-.052.421-.052.343 0 .461.221.461.86v3.235c0 .757-.184.94-.922.952V38h2.925v-.196c-.698-.026-.896-.156-.896-.717v-3.626c0-.026.079-.118.171-.222.264-.313.91-.56 1.397-.56.566 0 .856.547.856 1.447v2.752c0 .796-.145.874-.896.926V38h2.952v-.196c-.751-.013-.95-.195-.95-1.043v-3.287c.396-.561.791-.796 1.41-.796.752 0 1.015.43 1.015 1.461v2.687c0 .757-.118.9-.856.978V38H65z"></path></g></g></g></svg>