<svg width="80" height="80" viewBox="0 0 80 80" xmlns="http://www.w3.org/2000/svg"><g fill="#555" fill-rule="evenodd"><path d="M42 35h1v1h-1v-1zm2 0h1v1h-1v-1zm2 0h1v1h-1v-1zm2 0h1v1h-1v-1zm2 0h1v1h-1v-1zm-6 8h1v1h-1v-1zm2 0h1v1h-1v-1zm2 0h1v1h-1v-1zm2 0h1v1h-1v-1zm2-8h1v1h-1v-1zm-10 2h1v1h-1v-1zm10 0h1v1h-1v-1zm-10 2h1v1h-1v-1zm10 0h1v1h-1v-1zm-10 2h1v1h-1v-1zm10 0h1v1h-1v-1zm-10 2h1v1h-1v-1zm10 0h1v1h-1v-1zM30 44v-.22c-.807-.058-.945-.249-.945-1.054V34.06L28.992 34c-.656.249-1.122.395-1.992.644v.234c.202-.029.366-.029.466-.029.404 0 .53.234.53.937v6.867c0 .805-.177 1.054-.97 1.127V44H30zM37 44v-.196c-.627-.065-.78-.208-.78-.913V40.01c0-1.292-.538-2.009-1.51-2.009-.588 0-1.177.287-1.842 1.057h-.013v-1.018L32.753 38a23.18 23.18 0 0 1-1.753.587v.222c.09-.04.23-.052.371-.052.358 0 .448.208.448.847v3.17c0 .77-.141.978-.793 1.03V44h2.699v-.196c-.653-.052-.832-.234-.832-.743v-3.6c.589-.587.896-.744 1.318-.744.627 0 .934.392.934 1.318v2.595c0 .861-.154 1.122-.793 1.174l-.013.196H37z"></path></g></svg>