<svg width="80" height="80" viewBox="0 0 80 80" xmlns="http://www.w3.org/2000/svg"><g fill="#555" fill-rule="evenodd"><path d="M38 47h-5v-1h5v-1h1v1h1v1h-1v1h-1v-1zm3-4h1v1h-1v-1zm2 0h1v1h-1v-1zm2 0h1v1h-1v-1zm2 0h1v1h-1v-1zm-4 6h1v1h-1v-1zm2 0h1v1h-1v-1zm2 0h1v1h-1v-1zm-6-4h1v1h-1v-1zm6 0h1v1h-1v-1zm-6 2h1v1h-1v-1zm6 0h1v1h-1v-1zm-6 2h1v1h-1v-1zm8-16h1v1h-1v-1zm2 0h1v1h-1v-1zm2 0h1v1h-1v-1zm2 0h1v1h-1v-1zm-4 6h1v1h-1v-1zm2 0h1v1h-1v-1zm2 0h1v1h-1v-1zm-6-4h1v1h-1v-1zm6 0h1v1h-1v-1zm-6 2h1v1h-1v-1zm6 0h1v1h-1v-1zm-6 2h1v1h-1v-1zm-12 5h1v1h-1v-1zm0 4h1v1h-1v-1zm-12-5h1v1h-1v-1zm2 0h1v1h-1v-1zm2 0h1v1h-1v-1zm2 0h1v1h-1v-1zm-4 6h1v1h-1v-1zm2 0h1v1h-1v-1zm2 0h1v1h-1v-1zm-6-4h1v1h-1v-1zm6 0h1v1h-1v-1zm-6 2h1v1h-1v-1zm6 0h1v1h-1v-1zm-6 2h1v1h-1v-1zM31 40v-.22c-.807-.058-.945-.249-.945-1.054V30.06L29.992 30c-.656.249-1.122.395-1.992.644v.234c.202-.029.366-.029.466-.029.404 0 .53.234.53.937v6.867c0 .805-.177 1.054-.97 1.127V40H31zM34 31c0-.549-.431-1-1-1-.549 0-1 .451-1 1 0 .569.431 1 .98 1 .589 0 1.02-.431 1.02-1zM35 40v-.196c-.835-.065-.937-.208-.937-1.174v-4.578l-.05-.052-1.962.717v.21c.227-.066.417-.066.531-.066.317 0 .418.209.418.822v2.96c0 .992-.127 1.11-1 1.161V40h3zM46 40v-.196l-.343-.026c-.395-.026-.566-.195-.566-.782v-2.648c0-1.54-.461-2.348-1.528-2.348-.765 0-1.437.34-2.148 1.096-.237-.744-.685-1.096-1.397-1.096-.592 0-1.146.117-2.015 1.004h-.027v-.965L37.871 34c-.672.248-1.107.391-1.831.587v.222c.17-.04.276-.052.421-.052.343 0 .461.221.461.86v3.235c0 .757-.184.94-.922.952V40h2.925v-.196c-.698-.026-.896-.156-.896-.717v-3.626c0-.026.079-.118.171-.222.264-.313.91-.56 1.397-.56.566 0 .856.547.856 1.447v2.752c0 .796-.145.874-.896.926V40h2.952v-.196c-.751-.013-.95-.195-.95-1.043v-3.287c.396-.561.791-.796 1.41-.796.752 0 1.015.43 1.015 1.461v2.687c0 .757-.118.9-.856.978V40H46z"></path></g></svg>