<svg width="80" height="80" viewBox="0 0 80 80" xmlns="http://www.w3.org/2000/svg"><g fill="#555" fill-rule="evenodd"><path d="M49 31h1v1h-1v-1zm2 0h1v1h-1v-1zm2 0h1v1h-1v-1zm2 0h1v1h-1v-1zm2 0h1v1h-1v-1zm-6 8h1v1h-1v-1zm2 0h1v1h-1v-1zm2 0h1v1h-1v-1zm2 0h1v1h-1v-1zm-8-6h1v1h-1v-1zm8 0h1v1h-1v-1zm-8 2h1v1h-1v-1zm8 0h1v1h-1v-1zm-8 2h1v1h-1v-1zm8 0h1v1h-1v-1zm-8 2h1v1h-1v-1zm-17 4h1v1h-1v-1zm2 0h1v1h-1v-1zm2 0h1v1h-1v-1zm2 0h1v1h-1v-1zm-4 6h1v1h-1v-1zm2 0h1v1h-1v-1zm-4-4h1v1h-1v-1zm6 0h1v1h-1v-1zm-6 2h1v1h-1v-1zm6 0h1v1h-1v-1zm-6 2h1v1h-1v-1zm6 0h1v1h-1v-1zM32 40v-.196l-.343-.026c-.395-.026-.566-.195-.566-.782v-2.648c0-1.54-.461-2.348-1.528-2.348-.765 0-1.437.34-2.148 1.096-.237-.744-.685-1.096-1.397-1.096-.592 0-1.146.117-2.015 1.004h-.027v-.965L23.871 34c-.672.248-1.107.391-1.831.587v.222c.17-.04.276-.052.421-.052.343 0 .461.221.461.86v3.235c0 .757-.184.94-.922.952V40h2.925v-.196c-.698-.026-.896-.156-.896-.717v-3.626c0-.026.079-.118.171-.222.264-.313.91-.56 1.397-.56.566 0 .856.547.856 1.447v2.752c0 .796-.145.874-.896.926V40h2.952v-.196c-.751-.013-.95-.195-.95-1.043v-3.287c.396-.561.791-.796 1.41-.796.752 0 1.015.43 1.015 1.461v2.687c0 .757-.118.9-.856.978V40H32zM39 39.03v.357c-.444.485-.83.613-1.333.613-.548 0-.874-.255-.948-.932h-.015c-.785.766-1.511.932-2.148.932-.919 0-1.556-.485-1.556-1.328 0-.663.46-1.161 1.037-1.493.444-.256.993-.498 2.667-1.034v-.69c0-.791-.49-1.149-1.156-1.149-.592 0-1.037.281-1.037.626 0 .23.089.268.089.536 0 .243-.296.523-.681.523-.312 0-.638-.242-.638-.587 0-.332.238-.74.756-1.021.415-.23 1.037-.383 1.704-.383.83 0 1.392.204 1.748.574.355.37.415.639.415 1.417v2.439c0 .587.192.842.459.842.237 0 .385-.063.637-.242zm-2.296-.779v-1.8c-.919.28-1.526.549-1.897.843-.355.28-.503.587-.503.983 0 .676.444.983 1.022.983.296 0 .607-.064.86-.205.429-.255.518-.434.518-.804zM46 40v-.2c-.47 0-.818-.227-1.242-.8l-1.94-2.613 1.258-1.6c.288-.36.742-.574 1.227-.587V34h-2.394v.2c.455.027.606.107.606.293 0 .16-.227.4-.56.867-.152.2-.303.413-.455.587-.06-.094-.136-.174-.212-.267-.44-.573-.697-1.013-.697-1.187 0-.2.197-.28.651-.293V34h-3.136v.2h.136c.455 0 .697.173 1.167.8l1.424 1.92-1.727 2.2c-.424.547-.606.64-1.106.68v.2h2.197v-.2c-.44 0-.606-.067-.606-.24 0-.093.09-.253.303-.547l1.197-1.64 1.379 1.867c.06.08.09.147.09.24 0 .24-.105.293-.605.32v.2H46z"></path></g></svg>