<svg width="80" height="80" viewBox="0 0 80 80" xmlns="http://www.w3.org/2000/svg"><g fill="#555" fill-rule="evenodd"><path d="M57.438 35.7l-.25-.611c-.15-.367-.388-.822-.938-1.089l-1.65.367.038.2c.125-.045.312-.067.474-.067.688 0 1.013.456 1.225.989l.413 1.022-.813 1.122c-.4.545-.724.656-.874.656-.313 0-.263-.222-.588-.222-.313 0-.475.233-.475.41 0 .245.2.523.65.523.7 0 1.063-.478 1.462-1.022l.788-1.09.5 1.256c.163.4.4.856.913.856.724 0 1.287-1.067 1.437-1.233l-.175-.111c-.263.477-.563.633-.763.633-.562 0-.85-1.5-1.224-2.189l.687-.944c.175-.245.313-.423.688-.423.212 0 .274.1.55.1a.47.47 0 0 0 .487-.466c0-.234-.212-.367-.612-.367-.625 0-1.063.489-1.388.933l-.563.767zM49.086 38.37l.05.047c.407-.377.889-.742 1.494-.742.864 0 1.37.812 1.37 1.779C52 40.879 50.654 43 48.716 43c-.654 0-1.16-.212-1.716-.566l1.778-6.633a.583.583 0 0 0 .024-.13c-.012-.153-.197-.247-.358-.247-.123 0-.271.012-.37.047l-.037-.188 1.95-.283-.9 3.37zm-.432 1.531l-.679 2.533c0 .083.395.224.68.224 1.505 0 2.32-2.05 2.32-3.252 0-.824-.469-1.083-.876-1.083-.89 0-1.309 1.048-1.445 1.578zM35 31l-2.021.271.038.177c.103-.011.258-.035.348-.035.296 0 .399.118.399.26 0 .035 0 .13-.039.283l-1.648 6.017a1.478 1.478 0 0 0-.077.425c0 .295.116.602.502.602.747 0 1.3-.779 1.738-1.25l-.206-.142c-.116.188-.502.649-.798.649-.103 0-.154-.071-.154-.154 0-.082.012-.13.012-.13L35 31zM40 35.704C40 37.24 38.618 39 36.696 39 35.427 39 35 38.004 35 37.197 35 35.78 36.294 34 38.153 34c1.005 0 1.847.509 1.847 1.704zm-1.018-.343c0-.42-.175-1.03-.841-1.03-1.03 0-2.123 1.65-2.123 3.154 0 .365.037 1.183.74 1.183 1.332 0 2.224-2.467 2.224-3.307zM46 33.312l-.165.502h-1.03c.165.167.216.312.216.557 0 .836-.674 1.527-1.792 1.65-.75.089-1.119.368-1.119.646 0 .702 2.962.257 2.962 1.65 0 .791-.839 1.683-2.733 1.683C40.636 40 40 39.365 40 38.718c0-.646.7-.98 1.487-1.204a.595.595 0 0 1-.305-.524c0-.423.47-.97 1.08-.97v-.044c-.851-.167-1.194-.691-1.194-1.215 0-.88.864-1.761 2.212-1.761.534 0 .928.145 1.118.312H46zm-1.983.713c0-.412-.127-.69-.686-.69-.687 0-1.246.79-1.246 1.549 0 .512.152.903.712.903.902 0 1.22-1.137 1.22-1.762zm.165 4.66c0-.87-1.678-.814-2.44-1.06-.102.057-.23.112-.331.18-.33.21-.61.5-.61.802 0 .524.56 1.08 1.767 1.08 1.157 0 1.614-.512 1.614-1.002zM28 42.202l-1.475 5.355s-.016.03-.016.17c0 .171.097.264.227.264.162 0 .405-.03 1.037-.838l.195.186C27.465 48.07 26.59 49 25.812 49c-.534 0-.68-.357-.68-.854 0-.201.097-.527.178-.776h-.065C24.08 48.798 23.075 49 22.442 49 21.422 49 21 48.146 21 47.153 21 45.104 23.139 42 25.472 42c.697 0 1.037.373 1.07.714h.016l.146-.512H28zm-1.701 1.35c0-.636-.195-1.102-.81-1.102-1.102 0-2.075 1.35-2.626 2.654-.291.699-.453 1.382-.453 1.925 0 .822.502 1.024.94 1.024 1.118 0 2.252-1.474 2.706-2.949a5.6 5.6 0 0 0 .243-1.552z"></path></g></svg>