<svg width="80" height="80" viewBox="0 0 80 80" xmlns="http://www.w3.org/2000/svg"><path d="M45 31v-1h1v1h1v1H34v-1h11zm0-2v1h-1v-1h1zm2 5v1h-1v-1h1zm-2 0v1h-1v-1h1zm-2 0v1h-1v-1h1zm-2 0v1h-1v-1h1zm-2 0v1h-1v-1h1zm-2 0v1h-1v-1h1zm-2 0v1h-1v-1h1zm12 2v1h-1v-1h1zm-12 0v1h-1v-1h1zm12 2v1h-1v-1h1zm-12 0v1h-1v-1h1zm12 2v1h-1v-1h1zm-12 0v1h-1v-1h1zm12 2v1h-1v-1h1zm-12 0v1h-1v-1h1zm12 2v1h-1v-1h1zm-2 2v1h-1v-1h1zm-2 0v1h-1v-1h1zm-2 0v1h-1v-1h1zm-2 0v1h-1v-1h1zm-2 0v1h-1v-1h1zm-2-2v1h-1v-1h1zm12 2v1h-1v-1h1zm-12 0v1h-1v-1h1z" fill="#555" fill-rule="evenodd"></path></svg>