<svg width="80" height="80" viewBox="0 0 80 80" xmlns="http://www.w3.org/2000/svg"><path d="M34 49v-1h13v1H34zm0-3v-1h1v1h-1zm2 0v-1h1v1h-1zm2 0v-1h1v1h-1zm2 0v-1h1v1h-1zm2 0v-1h1v1h-1zm2 0v-1h1v1h-1zm2 0v-1h1v1h-1zm-12-2v-1h1v1h-1zm12 0v-1h1v1h-1zm-12-2v-1h1v1h-1zm12 0v-1h1v1h-1zm-12-2v-1h1v1h-1zm12 0v-1h1v1h-1zm-12-2v-1h1v1h-1zm12 0v-1h1v1h-1zm-12-2v-1h1v1h-1zm2-2v-1h1v1h-1zm2 0v-1h1v1h-1zm2 0v-1h1v1h-1zm2 0v-1h1v1h-1zm2 0v-1h1v1h-1zm2 2v-1h1v1h-1zm-12-2v-1h1v1h-1zm12 0v-1h1v1h-1z" fill="#555" fill-rule="evenodd"></path></svg>