<svg width="80" height="80" viewBox="0 0 80 80" xmlns="http://www.w3.org/2000/svg"><g fill="none" fill-rule="evenodd"><path stroke="#666" d="M31.5 49.5h18v-18h-18z"></path><path d="M34 47h1v-1h-1v1zm2 0h1v-1h-1v1zm2 0h1v-1h-1v1zm2 0h1v-1h-1v1zm2 0h1v-1h-1v1zm2 0h1v-1h-1v1zm2 0h1v-1h-1v1zm-12-2h1v-1h-1v1zm12 0h1v-1h-1v1zm-12-2h1v-1h-1v1zm12 0h1v-1h-1v1zm-12-2h1v-1h-1v1zm12 0h1v-1h-1v1zm-12-2h1v-1h-1v1zm12 0h1v-1h-1v1zm-12-2h1v-1h-1v1zm2-2h1v-1h-1v1zm2 0h1v-1h-1v1zm2 0h1v-1h-1v1zm2 0h1v-1h-1v1zm2 0h1v-1h-1v1zm2 2h1v-1h-1v1zm-12-2h1v-1h-1v1zm12 0h1v-1h-1v1z" fill="#555"></path></g></svg>