<svg width="80" height="80" viewBox="0 0 80 80" xmlns="http://www.w3.org/2000/svg"><g fill="#555" fill-rule="evenodd"><path d="M39.107 49h-1.214l-1.215-3.478h-5.25L30.214 49H29l4.282-12h1.526l4.299 12zm-2.773-4.458l-2.28-6.625-2.281 6.625h4.56zM40.862 49V37h4.053c.46 0 .897.053 1.312.158.416.106.785.266 1.108.482.322.216.58.49.77.822.192.332.288.725.288 1.178 0 .728-.197 1.328-.59 1.803-.394.474-.963.811-1.707 1.012.448.052.853.163 1.214.332.361.168.667.387.919.656.251.268.443.58.574.932.131.354.197.736.197 1.147 0 .569-.112 1.07-.336 1.502a3.254 3.254 0 0 1-.895 1.083c-.371.29-.8.508-1.287.656a5.593 5.593 0 0 1-1.518.237h-4.102zm3.954-1.012c.963 0 1.696-.23 2.199-.688.503-.458.754-1.056.754-1.794 0-.79-.27-1.405-.812-1.842-.541-.437-1.359-.656-2.452-.656H42.01v4.98h2.805zm-.46-5.976c.854 0 1.538-.158 2.052-.474.514-.317.77-.86.77-1.629 0-.664-.229-1.149-.688-1.454-.46-.306-1.116-.459-1.97-.459h-2.51v4.016h2.347zM52 34H27v-1h25v-1h1v1h1v1h-1v1h-1v-1zm-1-3h1v1h-1v-1zm-1-1h1v1h-1v-1zm1 5h1v1h-1v-1zm-1 1h1v1h-1v-1z"></path></g></svg>