<svg width="80" height="80" viewBox="0 0 80 80" xmlns="http://www.w3.org/2000/svg"><g fill="none" fill-rule="evenodd"><path d="M45 36h-1v-1h2v1h-1zM35 46h1v1h-2v-1h1zm-1-11h1v2h-1v-2zm2 0h1v1h-1v-1zm2 0h1v1h-1v-1zm2 0h1v1h-1v-1zm2 0h1v1h-1v-1zm-8 3h1v1h-1v-1zm11-1h1v1h-1v-1zm-11 3h1v1h-1v-1zm11-1h1v1h-1v-1zm-11 3h1v1h-1v-1zm11-1h1v1h-1v-1zm-11 3h1v1h-1v-1zm11-1h1v1h-1v-1zm-8 3h1v1h-1v-1zm2 0h1v1h-1v-1zm2 0h1v1h-1v-1zm2 0h1v1h-1v-1zm2-1h1v2h-1v-2z" fill="#555"></path><path stroke="#555" d="M35 33l5-2 5 2"></path></g></svg>