<svg width="80" height="80" viewBox="0 0 80 80" xmlns="http://www.w3.org/2000/svg"><g fill="#555" fill-rule="evenodd"><path d="M40.97 59H30.134L35.3 46.868h.36L40.97 59zm-2.196-.738L35.03 49.37l-3.762 8.892h7.506zm8.874-4.446l-.36-.99c-.216-.594-.558-1.332-1.35-1.764l-2.376.594.054.324c.18-.072.45-.108.684-.108.99 0 1.458.738 1.764 1.602l.594 1.656-1.17 1.818c-.576.882-1.044 1.062-1.26 1.062-.45 0-.378-.36-.846-.36a.678.678 0 0 0-.684.666c0 .396.288.846.936.846 1.008 0 1.53-.774 2.106-1.656l1.134-1.764.72 2.034c.234.648.576 1.386 1.314 1.386 1.044 0 1.854-1.728 2.07-1.998l-.252-.18c-.378.774-.81 1.026-1.098 1.026-.81 0-1.224-2.43-1.764-3.546l.99-1.53c.252-.396.45-.684.99-.684.306 0 .396.162.792.162.468 0 .702-.414.702-.756 0-.378-.306-.594-.882-.594-.9 0-1.53.792-1.998 1.512l-.81 1.242zM40.97 32H30.134L35.3 19.868h.36L40.97 32zm-2.196-.738L35.03 22.37l-3.762 8.892h7.506zm8.244-4.788c-.162-1.332-.288-1.8-.702-2.394l-2.7.45.036.288c.162-.018.45-.072.648-.072 1.008 0 1.17 1.08 1.26 1.89l.684 5.652c-.468.72-1.494 1.836-1.8 1.836-.288 0-.252-.558-1.026-.558-.234 0-.72.198-.72.738 0 .432.342.99 1.008.99 1.224 0 2.394-1.764 3.708-3.42.756-.954 3.672-5.274 3.672-6.678 0-.702-.45-1.116-1.026-1.116-.522 0-.846.324-.846.72 0 .684.936.864.936 1.242 0 .324-.144.684-.504 1.35-.396.738-1.026 1.818-2.124 3.312l-.504-4.23zM28 40h25v1H28z"></path></g></svg>