<svg width="80" height="80" viewBox="0 0 80 80" xmlns="http://www.w3.org/2000/svg"><g fill="#555" fill-rule="evenodd"><path d="M32 30h1v1h-1v-1zm2 0h1v1h-1v-1zm2 0h1v1h-1v-1zm2 0h1v1h-1v-1zm2 0h1v1h-1v-1zm-6 8h1v1h-1v-1zm2 0h1v1h-1v-1zm2 0h1v1h-1v-1zm2 0h1v1h-1v-1zm2-8h1v1h-1v-1zm-10 2h1v1h-1v-1zm10 0h1v1h-1v-1zm-10 2h1v1h-1v-1zm10 0h1v1h-1v-1zm-10 2h1v1h-1v-1zm10 0h1v1h-1v-1zm-10 2h1v1h-1v-1zm10 0h1v1h-1v-1zm-10 8h1v1h-1v-1zm2 0h1v1h-1v-1zm2 0h1v1h-1v-1zm2 0h1v1h-1v-1zm2 0h1v1h-1v-1zm-6 8h1v1h-1v-1zm2 0h1v1h-1v-1zm2 0h1v1h-1v-1zm2 0h1v1h-1v-1zm2-8h1v1h-1v-1zm-10 2h1v1h-1v-1zm10 0h1v1h-1v-1zm-10 2h1v1h-1v-1zm10 0h1v1h-1v-1zm-10 2h1v1h-1v-1zm10 0h1v1h-1v-1zm-10 2h1v1h-1v-1zm10 0h1v1h-1v-1zm-14.57.999c-.16 0-.16.026-.248-.157C25.03 50.876 24 46.858 24 42.5c0-4.305 1.031-8.35 3.182-12.342.089-.183.089-.157.213-.157h.498c.142 0 .124 0 .053.183-1.866 4.28-2.79 8.376-2.79 12.316 0 3.992.96 8.037 2.808 12.316.053.13.035.183-.089.183h-.444zm19.68 0c-.108 0-.125-.052-.072-.183 1.856-4.28 2.802-8.324 2.802-12.316 0-3.966-.928-8.037-2.784-12.316-.071-.183-.09-.183.036-.183h.5c.124 0 .106-.026.231.157C49.983 34.15 51 38.195 51 42.5c0 4.358-1.017 8.376-3.177 12.342-.125.183-.107.157-.267.157h-.447zM31 42h13v1H31v-1zM54.91 29.409a1.697 1.697 0 0 0-.193.017.65.65 0 0 0-.155.044.88.88 0 0 0-.14.076c-.047.03-.095.067-.146.11a.523.523 0 0 0-.145.216.551.551 0 0 0-.04.241.63.63 0 0 1-.008.144.494.494 0 0 1-.045.14.385.385 0 0 1-.093.12.442.442 0 0 1-.145.083.742.742 0 0 1-.238.037.556.556 0 0 1-.207-.041.488.488 0 0 1-.16-.107.39.39 0 0 1-.095-.154.582.582 0 0 1-.029-.211.695.695 0 0 1 .048-.222.853.853 0 0 1 .126-.217c.056-.071.126-.137.212-.198.143-.099.27-.172.379-.22.11-.047.208-.087.297-.12a2.27 2.27 0 0 1 .503-.117c.173-.02.335-.03.488-.03.593 0 1.04.117 1.338.35.298.233.448.576.448 1.028 0 .157-.016.298-.048.424a1.58 1.58 0 0 1-.157.385c-.07.125-.167.262-.29.413a9.715 9.715 0 0 1-.4.435c-.147.15-.398.397-.753.739-.6.583-1.041 1.093-1.324 1.53h1.79a3.41 3.41 0 0 0 .38-.03.545.545 0 0 0 .225-.08.43.43 0 0 0 .14-.17 3.6 3.6 0 0 0 .127-.298h.4L56.919 35H53v-.204a4.804 4.804 0 0 1 .545-.942c.122-.166.265-.342.429-.526.163-.184.353-.383.569-.598.18-.182.336-.344.467-.484.13-.14.236-.262.319-.363.133-.151.242-.288.326-.411.084-.123.15-.24.197-.348.048-.109.08-.212.098-.311.017-.099.026-.199.026-.3 0-.162-.022-.312-.066-.45a.963.963 0 0 0-.2-.354.865.865 0 0 0-.334-.226 1.22 1.22 0 0 0-.466-.074z"></path></g></svg>