<svg width="80" height="80" viewBox="0 0 80 80" xmlns="http://www.w3.org/2000/svg"><g fill="#555" fill-rule="evenodd"><path d="M30 43h1v1h-1v-1zm2 0h1v1h-1v-1zm2 0h1v1h-1v-1zm2 0h1v1h-1v-1zm2 0h1v1h-1v-1zm-6 10h1v1h-1v-1zm2 0h1v1h-1v-1zm2 0h1v1h-1v-1zm2 0h1v1h-1v-1zm2-10h1v1h-1v-1zm-10 2h1v1h-1v-1zm10 0h1v1h-1v-1zm-10 2h1v1h-1v-1zm10 0h1v1h-1v-1zm-10 2h1v1h-1v-1zm10 0h1v1h-1v-1zm-10 2h1v1h-1v-1zm10 0h1v1h-1v-1zm-10 2h1v1h-1v-1zm10 0h1v1h-1v-1zm3-10h1v1h-1v-1zm2 0h1v1h-1v-1zm2 0h1v1h-1v-1zm2 0h1v1h-1v-1zm-4 6h1v1h-1v-1zm2 0h1v1h-1v-1zm2 0h1v1h-1v-1zm-6-4h1v1h-1v-1zm6 0h1v1h-1v-1zm-6 2h1v1h-1v-1zm6 0h1v1h-1v-1zm-6 2h1v1h-1v-1zM29 39h22v1H29zM40.247 33.3c0 .251.014.441.041.57a.69.69 0 0 0 .145.312.68.68 0 0 0 .298.19c.13.045.293.08.49.103.197.024.457.04.779.05V35h-4.642v-.476c.465-.021.797-.05.996-.088.199-.037.35-.092.455-.166a.63.63 0 0 0 .23-.313c.047-.134.072-.354.072-.658v-5.285c0-.174-.03-.301-.088-.381a.299.299 0 0 0-.258-.121c-.134 0-.324.072-.572.215-.247.143-.552.341-.917.593L37 27.818 39.94 26h.1c.155 0 .23.093.226.28 0 .052-.003.153-.01.303-.005.15-.009.534-.009 1.15V33.3z"></path></g></svg>