<svg width="80" height="80" viewBox="0 0 80 80" xmlns="http://www.w3.org/2000/svg"><path d="M37 44h-1v1h1v-1zm-2-2h-1v1h1v-1zm-2 0h-1v1h1v-1zm-2 0h-1v1h1v-1zm-2 0h-1v1h1v-1zm0 2h-1v1h1v-1zm8-2h-1v1h1v-1zm0 4h-1v1h1v-1zm-8 0h-1v1h1v-1zm8 2h-1v1h1v-1zm-8 0h-1v1h1v-1zm8 2h-1v1h1v-1zm-8 0h-1v1h1v-1zm6 0h-1v1h1v-1zm-2 0h-1v1h1v-1zm-2 0h-1v1h1v-1zm6-18h-1v1h1v-1zm-2-2h-1v1h1v-1zm-2 0h-1v1h1v-1zm-2 0h-1v1h1v-1zm-2 0h-1v1h1v-1zm0 2h-1v1h1v-1zm8-2h-1v1h1v-1zm0 4h-1v1h1v-1zm-8 0h-1v1h1v-1zm8 2h-1v1h1v-1zm-8 0h-1v1h1v-1zm8 2h-1v1h1v-1zm-8 0h-1v1h1v-1zm6 0h-1v1h1v-1zm-2 0h-1v1h1v-1zm-2 0h-1v1h1v-1zm21-2h-1v1h1v-1zm-2-2h-1v1h1v-1zm-2 0h-1v1h1v-1zm-2 0h-1v1h1v-1zm-2 0h-1v1h1v-1zm-2 0h-1v1h1v-1zm-2 2h-1v1h1v-1zm12-2h-1v1h1v-1zm-12 0h-1v1h1v-1zm12 4h-1v1h1v-1zm-12 0h-1v1h1v-1zm12 2h-1v1h1v-1zm-12 0h-1v1h1v-1zm12 2h-1v1h1v-1zm-12 0h-1v1h1v-1zm12 2h-1v1h1v-1zm-12 0h-1v1h1v-1zm12 2h-1v1h1v-1zm-2 0h-1v1h1v-1zm-2 0h-1v1h1v-1zm-2 0h-1v1h1v-1zm-2 0h-1v1h1v-1zm-2 0h-1v1h1v-1zm-2 0h-1v1h1v-1z" fill="#555" fill-rule="evenodd"></path></svg>