<svg width="80" height="80" viewBox="0 0 80 80" xmlns="http://www.w3.org/2000/svg"><path d="M32 44v1h-1v-1h1zm-2-2v1h-1v-1h1zm-2 0v1h-1v-1h1zm-2 0v1h-1v-1h1zm-2 0v1h-1v-1h1zm0 2v1h-1v-1h1zm8-2v1h-1v-1h1zm0 4v1h-1v-1h1zm-8 0v1h-1v-1h1zm8 2v1h-1v-1h1zm-8 0v1h-1v-1h1zm8 2v1h-1v-1h1zm-8 0v1h-1v-1h1zm6 0v1h-1v-1h1zm-2 0v1h-1v-1h1zm-2 0v1h-1v-1h1zm6-18v1h-1v-1h1zm-2-2v1h-1v-1h1zm-2 0v1h-1v-1h1zm-2 0v1h-1v-1h1zm-2 0v1h-1v-1h1zm0 2v1h-1v-1h1zm8-2v1h-1v-1h1zm0 4v1h-1v-1h1zm-8 0v1h-1v-1h1zm8 2v1h-1v-1h1zm-8 0v1h-1v-1h1zm8 2v1h-1v-1h1zm-8 0v1h-1v-1h1zm6 0v1h-1v-1h1zm-2 0v1h-1v-1h1zm-2 0v1h-1v-1h1zm21-2v1h-1v-1h1zm-2-2v1h-1v-1h1zm-2 0v1h-1v-1h1zm-2 0v1h-1v-1h1zm-2 0v1h-1v-1h1zm-2 0v1h-1v-1h1zm-2 2v1h-1v-1h1zm12-2v1h-1v-1h1zm-12 0v1h-1v-1h1zm12 4v1h-1v-1h1zm-12 0v1h-1v-1h1zm12 2v1h-1v-1h1zm-12 0v1h-1v-1h1zm12 2v1h-1v-1h1zm-12 0v1h-1v-1h1zm12 2v1h-1v-1h1zm-12 0v1h-1v-1h1zm12 2v1h-1v-1h1zm-2 0v1h-1v-1h1zm-2 0v1h-1v-1h1zm-2 0v1h-1v-1h1zm-2 0v1h-1v-1h1zm-2 0v1h-1v-1h1zm-2 0v1h-1v-1h1zm14-2h1v1h-1v-1zm2-2h1v1h-1v-1zm2 0h1v1h-1v-1zm2 0h1v1h-1v-1zm2 0h1v1h-1v-1zm0 2h1v1h-1v-1zm-8-2h1v1h-1v-1zm0 4h1v1h-1v-1zm8 0h1v1h-1v-1zm-8 2h1v1h-1v-1zm8 0h1v1h-1v-1zm-8 2h1v1h-1v-1zm8 0h1v1h-1v-1zm-6 0h1v1h-1v-1zm2 0h1v1h-1v-1zm2 0h1v1h-1v-1zm-6-18h1v1h-1v-1zm2-2h1v1h-1v-1zm2 0h1v1h-1v-1zm2 0h1v1h-1v-1zm2 0h1v1h-1v-1zm0 2h1v1h-1v-1zm-8-2h1v1h-1v-1zm0 4h1v1h-1v-1zm8 0h1v1h-1v-1zm-8 2h1v1h-1v-1zm8 0h1v1h-1v-1zm-8 2h1v1h-1v-1zm8 0h1v1h-1v-1zm-6 0h1v1h-1v-1zm2 0h1v1h-1v-1zm2 0h1v1h-1v-1z" fill="#555" fill-rule="evenodd"></path></svg>