<svg width="80" height="80" viewBox="0 0 80 80" xmlns="http://www.w3.org/2000/svg"><g fill="#555" fill-rule="evenodd"><path d="M32 48l5.041-14h1.878L44 48h-1.898l-1.423-4.223h-5.466L33.759 48H32zm5.97-12.303l-2.224 6.502h4.39l-2.146-6.502h-.02zM47.486 36.38c-.486.452-1.125.89-1.972.89-.625 0-1.306-.292-1.306-1.447 0-1.062.792-3.438 2.445-3.438.333 0 .472.12.472.279 0 .292-.403.451-.403.77 0 .225.167.504.528.504.528 0 .75-.425.75-.93 0-.65-.653-1.008-1.347-1.008C44.68 32 43 34.084 43 35.942c0 1.023.556 2.058 1.903 2.058 1.18 0 2.041-.65 2.75-1.447l-.167-.172z"></path></g></svg>