<svg width="80" height="80" viewBox="0 0 80 80" xmlns="http://www.w3.org/2000/svg"><g fill="#555" fill-rule="evenodd"><path d="M37.73 40.4l-.417-1.222c-.25-.734-.646-1.645-1.563-2.178l-2.75.733.063.4c.208-.089.52-.133.791-.133 1.146 0 1.688.911 2.042 1.978l.687 2.044-1.354 2.245c-.667 1.089-1.208 1.31-1.458 1.31-.521 0-.438-.444-.98-.444-.52 0-.791.467-.791.823 0 .488.333 1.044 1.083 1.044 1.167 0 1.771-.956 2.438-2.044l1.312-2.178.834 2.51c.27.8.666 1.712 1.52 1.712 1.209 0 2.146-2.133 2.396-2.467l-.291-.222c-.438.956-.938 1.267-1.271 1.267-.938 0-1.417-3-2.042-4.378l1.146-1.889c.292-.489.52-.844 1.146-.844.354 0 .458.2.917.2.541 0 .812-.511.812-.934 0-.466-.354-.733-1.02-.733-1.042 0-1.772.978-2.313 1.867l-.938 1.533zM45.91 32.409a1.697 1.697 0 0 0-.193.017.65.65 0 0 0-.155.044.88.88 0 0 0-.14.076c-.047.03-.095.067-.146.11a.523.523 0 0 0-.145.216.551.551 0 0 0-.04.241.63.63 0 0 1-.008.144.494.494 0 0 1-.045.14.385.385 0 0 1-.093.12.442.442 0 0 1-.145.083.742.742 0 0 1-.238.037.556.556 0 0 1-.207-.041.488.488 0 0 1-.16-.107.39.39 0 0 1-.095-.154.582.582 0 0 1-.029-.211.695.695 0 0 1 .048-.222.853.853 0 0 1 .126-.217c.056-.071.126-.137.212-.198.143-.099.27-.172.379-.22.11-.047.208-.087.297-.12a2.27 2.27 0 0 1 .503-.117c.173-.02.335-.03.488-.03.593 0 1.04.117 1.338.35.298.233.448.576.448 1.028 0 .157-.016.298-.048.424a1.58 1.58 0 0 1-.157.385c-.07.125-.167.262-.29.413a9.715 9.715 0 0 1-.4.435c-.147.15-.398.397-.753.739-.6.583-1.041 1.093-1.324 1.53h1.79a3.41 3.41 0 0 0 .38-.03.545.545 0 0 0 .225-.08.43.43 0 0 0 .14-.17 3.6 3.6 0 0 0 .127-.298h.4L47.919 38H44v-.204a4.804 4.804 0 0 1 .545-.942c.122-.166.265-.342.429-.526.163-.184.353-.383.569-.598.18-.182.336-.344.467-.484.13-.14.236-.262.319-.363.133-.151.242-.288.326-.411.084-.123.15-.24.197-.348.048-.109.08-.212.098-.311.017-.099.026-.199.026-.3 0-.162-.022-.312-.066-.45a.963.963 0 0 0-.2-.354.865.865 0 0 0-.334-.226 1.22 1.22 0 0 0-.466-.074z"></path></g></svg>