<svg width="80" height="80" viewBox="0 0 80 80" xmlns="http://www.w3.org/2000/svg"><g fill="none" fill-rule="evenodd"><path d="M46 36h1v1h-1v-1zm2-2h1v1h-1v-1zm2 0h1v1h-1v-1zm2 0h1v1h-1v-1zm2 0h1v1h-1v-1zm2 0h1v1h-1v-1zm2 2h1v1h-1v-1zm-12-2h1v1h-1v-1zm12 0h1v1h-1v-1zm-12 4h1v1h-1v-1zm12 0h1v1h-1v-1zm-12 2h1v1h-1v-1zm12 0h1v1h-1v-1zm-12 2h1v1h-1v-1zm12 0h1v1h-1v-1zm-12 2h1v1h-1v-1zm12 0h1v1h-1v-1zm-12 2h1v1h-1v-1zm2 0h1v1h-1v-1zm2 0h1v1h-1v-1zm2 0h1v1h-1v-1zm2 0h1v1h-1v-1zm2 0h1v1h-1v-1zm2 0h1v1h-1v-1zM40.756 43.523c-.414.441-.715.594-1.128.594-.696 0-.978-.441-.978-1.528v-4.856h1.899v-.543H38.65v-1.97c0-.17-.037-.22-.131-.22-.113.17-.263.323-.376.475-.714.934-1.335 1.562-1.823 1.817-.207.119-.32.22-.32.323 0 .05.019.084.075.118h.996v5.11c0 1.427.564 2.157 1.655 2.157.94 0 1.654-.407 2.274-1.29l-.244-.187zM35 40.898C35 43.264 33.367 45 30.918 45 28.723 45 27 43.315 27 40.949S28.633 37 31.082 37C33.295 37 35 38.549 35 40.898zm-1.633.46c0-1.158-.326-2.332-.907-3.03-.435-.511-.943-.851-1.723-.851-1.252 0-2.104 1.004-2.104 2.706 0 1.345.29 2.57.961 3.49.4.544.98.85 1.633.85 1.342 0 2.14-1.191 2.14-3.166z" fill="#555"></path><path d="M25.783 42.174c-.744 1.192-1.302 1.6-2.186 1.6-1.426 0-2.403-1.361-2.403-3.319 0-1.77.853-2.961 2.108-2.961.558 0 .76.187.915.817l.093.374c.124.494.403.783.744.783a.724.724 0 0 0 .729-.715c0-.953-1.085-1.753-2.388-1.753-.728 0-1.473.306-2.093.868-.837.766-1.302 1.94-1.302 3.353C20 43.417 21.225 45 22.946 45c.666 0 1.256-.238 1.783-.715.465-.408.775-.902 1.271-1.957l-.217-.154z" fill="#444"></path></g></svg>