<svg width="80" height="80" viewBox="0 0 80 80" xmlns="http://www.w3.org/2000/svg"><g fill="#555" fill-rule="evenodd"><path d="M39 32h1v1h-1v-1zm2-2h1v1h-1v-1zm2 0h1v1h-1v-1zm2 0h1v1h-1v-1zm2 0h1v1h-1v-1zm0 2h1v1h-1v-1zm-8-2h1v1h-1v-1zm0 4h1v1h-1v-1zm8 0h1v1h-1v-1zm-8 2h1v1h-1v-1zm8 0h1v1h-1v-1zm-8 2h1v1h-1v-1zm8 0h1v1h-1v-1zm-6 0h1v1h-1v-1zm2 0h1v1h-1v-1zm2 0h1v1h-1v-1zm7 2h1v1h-1v-1zm2-2h1v1h-1v-1zm2 0h1v1h-1v-1zm2 0h1v1h-1v-1zm2 0h1v1h-1v-1zm2 0h1v1h-1v-1zm2 2h1v1h-1v-1zm-12-2h1v1h-1v-1zm12 0h1v1h-1v-1zm-12 4h1v1h-1v-1zm12 0h1v1h-1v-1zm-12 2h1v1h-1v-1zm12 0h1v1h-1v-1zm-12 2h1v1h-1v-1zm12 0h1v1h-1v-1zm-12 2h1v1h-1v-1zm12 0h1v1h-1v-1zm-12 2h1v1h-1v-1zm2 0h1v1h-1v-1zm2 0h1v1h-1v-1zm2 0h1v1h-1v-1zm2 0h1v1h-1v-1zm2 0h1v1h-1v-1zm2 0h1v1h-1v-1zM20.783 46.174c-.744 1.192-1.302 1.6-2.186 1.6-1.426 0-2.403-1.361-2.403-3.319 0-1.77.853-2.961 2.108-2.961.558 0 .76.187.915.817l.093.374c.124.494.403.783.744.783a.724.724 0 0 0 .729-.715c0-.953-1.085-1.753-2.388-1.753-.728 0-1.473.306-2.093.868-.837.766-1.302 1.94-1.302 3.353C15 47.417 16.225 49 17.946 49c.666 0 1.256-.238 1.783-.715.465-.408.775-.902 1.271-1.957l-.217-.154zM30 44.898C30 47.264 28.367 49 25.918 49 23.723 49 22 47.315 22 44.949S23.633 41 26.082 41C28.295 41 30 42.549 30 44.898zm-1.633.46c0-1.158-.326-2.332-.907-3.03-.435-.511-.943-.851-1.723-.851-1.252 0-2.104 1.004-2.104 2.706 0 1.345.29 2.57.961 3.49.4.544.98.85 1.633.85 1.342 0 2.14-1.191 2.14-3.166zM32.768 43.695c-.472-.29-.724-.785-.724-1.16 0-.802.538-1.16 1.262-1.16 1.01 0 1.516.563 1.903 2.098h.252l-.084-2.32h-.185c-.135.154-.202.171-.27.171-.117 0-.286-.051-.47-.136-.354-.17-.725-.188-1.129-.188-1.38 0-2.323.75-2.323 2.098 0 .87.623 1.689 2.02 2.473l.91.512c.555.307.892.75.892 1.28 0 .699-.54 1.262-1.398 1.262-1.161 0-1.784-.75-2.138-2.405h-.27v2.678h.22c.1-.17.202-.205.404-.205.185 0 .37.017.774.153.387.137.876.154 1.23.154C34.922 49 36 48.01 36 46.868c0-.972-.404-1.433-1.481-2.098l-1.751-1.075z"></path></g></svg>