<svg width="80" height="80" viewBox="0 0 80 80" xmlns="http://www.w3.org/2000/svg"><g fill="#555" fill-rule="evenodd"><path d="M39 32h1v1h-1v-1zm2-2h1v1h-1v-1zm2 0h1v1h-1v-1zm2 0h1v1h-1v-1zm2 0h1v1h-1v-1zm0 2h1v1h-1v-1zm-8-2h1v1h-1v-1zm0 4h1v1h-1v-1zm8 0h1v1h-1v-1zm-8 2h1v1h-1v-1zm8 0h1v1h-1v-1zm-8 2h1v1h-1v-1zm8 0h1v1h-1v-1zm-6 0h1v1h-1v-1zm2 0h1v1h-1v-1zm2 0h1v1h-1v-1zm7 2h1v1h-1v-1zm2-2h1v1h-1v-1zm2 0h1v1h-1v-1zm2 0h1v1h-1v-1zm2 0h1v1h-1v-1zm2 0h1v1h-1v-1zm2 2h1v1h-1v-1zm-12-2h1v1h-1v-1zm12 0h1v1h-1v-1zm-12 4h1v1h-1v-1zm12 0h1v1h-1v-1zm-12 2h1v1h-1v-1zm12 0h1v1h-1v-1zm-12 2h1v1h-1v-1zm12 0h1v1h-1v-1zm-12 2h1v1h-1v-1zm12 0h1v1h-1v-1zm-12 2h1v1h-1v-1zm2 0h1v1h-1v-1zm2 0h1v1h-1v-1zm2 0h1v1h-1v-1zm2 0h1v1h-1v-1zm2 0h1v1h-1v-1zm2 0h1v1h-1v-1zM19.756 47.523c-.414.441-.715.594-1.128.594-.696 0-.978-.441-.978-1.528v-4.856h1.899v-.543H17.65v-1.97c0-.17-.037-.22-.131-.22-.113.17-.263.323-.376.475-.714.934-1.335 1.562-1.823 1.817-.207.119-.32.22-.32.323 0 .05.019.084.075.118h.996v5.11c0 1.427.564 2.157 1.655 2.157.94 0 1.654-.407 2.274-1.29l-.244-.187zM28 47.706v.477c-.519.647-.968.817-1.556.817-.64 0-1.02-.34-1.106-1.243h-.017C24.405 48.78 23.558 49 22.815 49 21.743 49 21 48.353 21 47.23c0-.885.536-1.55 1.21-1.992.518-.34 1.158-.664 3.111-1.378v-.92c0-1.055-.57-1.531-1.348-1.531-.692 0-1.21.374-1.21.834 0 .306.104.357.104.714 0 .324-.346.698-.795.698-.363 0-.744-.323-.744-.783 0-.442.277-.987.882-1.361.484-.307 1.21-.511 1.988-.511.967 0 1.624.272 2.039.766.415.494.484.851.484 1.89v3.25c0 .783.225 1.124.536 1.124.276 0 .45-.085.743-.324zm-2.679-1.038v-2.4c-1.072.375-1.78.732-2.212 1.123-.415.375-.588.783-.588 1.311 0 .902.519 1.31 1.193 1.31.345 0 .708-.084 1.002-.272.501-.34.605-.578.605-1.072zM36 49v-.26c-.836-.088-1.04-.28-1.04-1.218v-3.844c0-1.721-.717-2.678-2.013-2.678-.785 0-1.57.383-2.457 1.409h-.017v-1.357L30.337 41c-.836.313-1.399.504-2.337.783v.295c.12-.052.307-.07.495-.07.477 0 .597.279.597 1.131v4.226c0 1.026-.188 1.305-1.058 1.374V49h3.6v-.26c-.87-.07-1.11-.314-1.11-.992v-4.8c.785-.783 1.195-.991 1.757-.991.836 0 1.246.521 1.246 1.756v3.46c0 1.149-.205 1.497-1.058 1.566l-.017.261H36z"></path></g></svg>