<svg width="80" height="80" viewBox="0 0 80 80" xmlns="http://www.w3.org/2000/svg"><g fill="none" fill-rule="evenodd"><path d="M39 31h1v1h-1v-1zm2-2h1v1h-1v-1zm2 0h1v1h-1v-1zm2 0h1v1h-1v-1zm2 0h1v1h-1v-1zm0 2h1v1h-1v-1zm-8-2h1v1h-1v-1zm0 4h1v1h-1v-1zm8 0h1v1h-1v-1zm-8 2h1v1h-1v-1zm8 0h1v1h-1v-1zm-8 2h1v1h-1v-1zm8 0h1v1h-1v-1zm-6 0h1v1h-1v-1zm2 0h1v1h-1v-1zm2 0h1v1h-1v-1zm7 2h1v1h-1v-1zm2-2h1v1h-1v-1zm2 0h1v1h-1v-1zm2 0h1v1h-1v-1zm2 0h1v1h-1v-1zm2 0h1v1h-1v-1zm2 2h1v1h-1v-1zm-12-2h1v1h-1v-1zm12 0h1v1h-1v-1zm-12 4h1v1h-1v-1zm12 0h1v1h-1v-1zm-12 2h1v1h-1v-1zm12 0h1v1h-1v-1zm-12 2h1v1h-1v-1zm12 0h1v1h-1v-1zm-12 2h1v1h-1v-1zm12 0h1v1h-1v-1zm-12 2h1v1h-1v-1zm2 0h1v1h-1v-1zm2 0h1v1h-1v-1zm2 0h1v1h-1v-1zm2 0h1v1h-1v-1zm2 0h1v1h-1v-1zm2 0h1v1h-1v-1z" fill="#555"></path><path d="M34.783 45.174c-.744 1.192-1.302 1.6-2.186 1.6-1.426 0-2.403-1.361-2.403-3.319 0-1.77.853-2.961 2.108-2.961.558 0 .76.187.915.817l.093.374c.124.494.403.783.744.783a.724.724 0 0 0 .729-.715c0-.953-1.085-1.753-2.388-1.753-.728 0-1.473.306-2.093.868-.837.766-1.302 1.94-1.302 3.353C29 46.417 30.225 48 31.946 48c.666 0 1.256-.238 1.783-.715.465-.408.775-.902 1.271-1.957l-.217-.154z" fill="#444"></path><path d="M27.72 45.038l.28.12C27.316 47.012 26.088 48 24.333 48 22.263 48 21 46.485 21 44.136c0-2.4 1.421-4.136 3.632-4.136 1.087 0 1.877.409 2.438 1.174.351.477.526 1.022.597 1.94h-5.404c.088 1.295.176 1.958.807 2.775.491.63 1.14.937 1.948.937 1.175 0 1.842-.528 2.701-1.788zm-5.422-2.468h3.58c-.194-1.379-.562-1.957-1.72-1.957-.983 0-1.667.68-1.86 1.957z" fill="#555"></path><path d="M16.768 42.695c-.472-.29-.724-.785-.724-1.16 0-.802.538-1.16 1.262-1.16 1.01 0 1.516.563 1.903 2.098h.252l-.084-2.32h-.185c-.135.154-.202.171-.27.171-.117 0-.286-.051-.47-.136-.354-.17-.725-.188-1.129-.188-1.38 0-2.323.75-2.323 2.098 0 .87.623 1.689 2.02 2.473l.91.512c.555.307.892.75.892 1.28 0 .699-.54 1.262-1.398 1.262-1.161 0-1.784-.75-2.138-2.405h-.27v2.678h.22c.1-.17.202-.205.404-.205.185 0 .37.017.774.153.387.137.876.154 1.23.154C18.922 48 20 47.01 20 45.868c0-.972-.404-1.433-1.481-2.098l-1.751-1.075z" fill="#444"></path></g></svg>