<svg width="80" height="80" viewBox="0 0 80 80" xmlns="http://www.w3.org/2000/svg"><g fill="#555" fill-rule="evenodd"><path d="M65.773 48a10.708 10.708 0 0 0 3-5.41 9.755 9.755 0 0 0 0-4.18 10.777 10.777 0 0 0-1.664-3.83A10.631 10.631 0 0 0 65.773 33H65c.964 1.18 1.661 2.42 2.092 3.718.432 1.298.647 2.559.647 3.782 0 1.223-.215 2.484-.647 3.782C66.662 45.58 65.964 46.819 65 48h.773zM59.156 38.72l-.375-.978c-.225-.586-.581-1.315-1.406-1.742l-2.475.587.056.32a2.21 2.21 0 0 1 .713-.107c1.031 0 1.518.729 1.837 1.582l.619 1.636-1.219 1.795c-.6.871-1.087 1.05-1.312 1.05-.469 0-.394-.356-.882-.356a.688.688 0 0 0-.712.657c0 .392.3.836.975.836 1.05 0 1.594-.764 2.194-1.636l1.181-1.742.75 2.01c.244.64.6 1.368 1.369 1.368 1.087 0 1.931-1.707 2.156-1.973l-.263-.178c-.393.764-.843 1.013-1.143 1.013-.844 0-1.275-2.4-1.838-3.502l1.032-1.511c.262-.391.468-.676 1.03-.676.32 0 .413.16.826.16.487 0 .731-.409.731-.746 0-.374-.319-.587-.919-.587-.937 0-1.594.782-2.081 1.493l-.844 1.227zM51.227 48a10.708 10.708 0 0 1-3-5.41 9.755 9.755 0 0 1 0-4.18 10.777 10.777 0 0 1 1.664-3.83c.398-.575.843-1.101 1.336-1.58H52c-.964 1.18-1.661 2.42-2.092 3.718-.432 1.298-.647 2.559-.647 3.782 0 1.223.215 2.484.647 3.782.43 1.298 1.128 2.537 2.092 3.718h-.773z"></path><g><path d="M41.773 48a10.708 10.708 0 0 0 3-5.41 9.755 9.755 0 0 0 0-4.18 10.777 10.777 0 0 0-1.664-3.83A10.631 10.631 0 0 0 41.773 33H41c.964 1.18 1.661 2.42 2.092 3.718.432 1.298.647 2.559.647 3.782 0 1.223-.215 2.484-.647 3.782C42.662 45.58 41.964 46.819 41 48h.773zM40 37.49l-.22.789h-1.373c.22.262.288.49.288.875 0 1.314-.898 2.4-2.39 2.593-1 .14-1.491.578-1.491 1.016 0 1.103 3.949.403 3.949 2.592 0 1.244-1.119 2.645-3.644 2.645C32.847 48 32 47.002 32 45.986c0-1.016.932-1.542 1.983-1.892-.288-.193-.407-.526-.407-.823 0-.666.627-1.524 1.44-1.524v-.07c-1.135-.263-1.592-1.086-1.592-1.91 0-1.383 1.152-2.767 2.949-2.767.712 0 1.237.228 1.491.49H40zm-2.644 1.121c0-.648-.17-1.086-.915-1.086-.916 0-1.661 1.244-1.661 2.435 0 .806.203 1.419.949 1.419 1.203 0 1.627-1.787 1.627-2.768zm.22 7.322c0-1.366-2.237-1.279-3.254-1.664-.136.088-.305.175-.44.28-.441.333-.814.789-.814 1.262 0 .823.746 1.699 2.356 1.699 1.542 0 2.152-.806 2.152-1.577zM31 39.5a2.49 2.49 0 0 1-2.5 2.5c-1.407 0-2.5-1.111-2.5-2.537C26 38.074 27.111 37 28.537 37 29.889 37 31 38.13 31 39.5zm-1.222 0c0-.722-.574-1.278-1.241-1.278-.778 0-1.315.556-1.315 1.241 0 .778.556 1.315 1.278 1.315s1.278-.556 1.278-1.278zM19.617 37.053h.644c1.096 0 1.009-1.351 1.756-2.474.54-.825 1.287-1.579 2.61-1.579.869 0 1.373.421 1.373 1.035 0 .491-.365.702-.713.702-.487 0-.609-.193-.609-.439 0-.245.157-.509.157-.649 0-.088-.052-.14-.261-.14-.87 0-1.548.947-1.913 2.316l-.33 1.228h1.39l-.208.666h-1.322l-1.374 5.369c-.121.473-.26 1.14-.521 1.79C19.722 46.332 18.783 48 17.252 48c-.835 0-1.252-.421-1.252-.947 0-.421.243-.86.748-.86.47 0 .643.316.643.579 0 .333-.278.35-.278.561 0 .106.104.158.26.158 1.131 0 1.653-2.772 1.914-3.772l1.513-6h-1.34l.157-.666zM14.227 48a10.708 10.708 0 0 1-3-5.41 9.755 9.755 0 0 1 0-4.18 10.777 10.777 0 0 1 1.664-3.83c.398-.575.843-1.101 1.336-1.58H15c-.964 1.18-1.661 2.42-2.092 3.718-.432 1.298-.647 2.559-.647 3.782 0 1.223.215 2.484.647 3.782.43 1.298 1.128 2.537 2.092 3.718h-.773z"></path></g></g></svg>