<svg width="80" height="80" viewBox="0 0 80 80" xmlns="http://www.w3.org/2000/svg"><g fill="#555" fill-rule="evenodd"><path d="M52.773 48a10.708 10.708 0 0 0 3-5.41 9.755 9.755 0 0 0 0-4.18 10.777 10.777 0 0 0-1.664-3.83A10.631 10.631 0 0 0 52.773 33H52c.964 1.18 1.661 2.42 2.092 3.718.432 1.298.647 2.559.647 3.782 0 1.223-.215 2.484-.647 3.782C53.662 45.58 52.964 46.819 52 48h.773zM46.156 38.72l-.375-.978c-.225-.586-.581-1.315-1.406-1.742l-2.475.587.056.32a2.21 2.21 0 0 1 .713-.107c1.031 0 1.518.729 1.837 1.582l.619 1.636-1.219 1.795c-.6.871-1.087 1.05-1.312 1.05-.469 0-.394-.356-.882-.356a.688.688 0 0 0-.712.657c0 .392.3.836.975.836 1.05 0 1.594-.764 2.194-1.636l1.181-1.742.75 2.01c.244.64.6 1.368 1.369 1.368 1.087 0 1.931-1.707 2.156-1.973l-.263-.178c-.393.764-.843 1.013-1.143 1.013-.844 0-1.275-2.4-1.838-3.502l1.032-1.511c.262-.391.468-.676 1.03-.676.32 0 .413.16.826.16.487 0 .731-.409.731-.746 0-.374-.319-.587-.919-.587-.937 0-1.594.782-2.081 1.493l-.844 1.227zM38.227 48a10.708 10.708 0 0 1-3-5.41 9.755 9.755 0 0 1 0-4.18 10.777 10.777 0 0 1 1.664-3.83c.398-.575.843-1.101 1.336-1.58H39c-.964 1.18-1.661 2.42-2.092 3.718-.432 1.298-.647 2.559-.647 3.782 0 1.223.215 2.484.647 3.782.43 1.298 1.128 2.537 2.092 3.718h-.773zM33 38.391h-.952c.174.334.174.63.174.946 0 1.558-1.788 3.042-3.596 3.042-.213 0-.427-.019-.602-.056-.059-.019-.097-.019-.136-.019-.33 0-.7.371-.7.76 0 .335.525.576 1.38.78 1.866.426 2.76 1.243 2.76 2.355 0 1.614-1.496 2.801-4.082 2.801C25.263 49 24 48.332 24 46.997c0-.946.37-1.447 2.274-2.541-.35-.204-.525-.482-.525-.723 0-.538.448-1.095 1.497-1.558-1.088-.371-1.535-1.039-1.535-2.003 0-1.892 1.943-3.172 3.907-3.172.738 0 1.38.167 1.905.52.155.11.252.148.31.148H33v.723zm-2.313.334c0-.983-.37-1.317-1.089-1.317-1.205 0-2.371 1.354-2.371 3.19 0 .872.427 1.391 1.166 1.391.661 0 1.186-.334 1.652-1.094.39-.63.642-1.391.642-2.17zm-.525 8.124c0-.854-.7-1.373-2.78-1.985-.252-.074-.447-.13-.66-.204-.176 0-.992.63-1.264.964-.292.353-.389.65-.389 1.076 0 1.298.914 1.892 2.469 1.892 1.574 0 2.624-.798 2.624-1.743z"></path></g></svg>