<svg width="80" height="80" viewBox="0 0 80 80" xmlns="http://www.w3.org/2000/svg"><g fill="#555" fill-rule="evenodd"><path d="M62.617 37.053h.644c1.096 0 1.009-1.351 1.756-2.474.54-.825 1.287-1.579 2.61-1.579.869 0 1.373.421 1.373 1.035 0 .491-.365.702-.713.702-.487 0-.609-.193-.609-.439 0-.245.157-.509.157-.649 0-.088-.052-.14-.261-.14-.87 0-1.548.947-1.913 2.316l-.33 1.228h1.39l-.208.666h-1.322l-1.374 5.369c-.121.473-.26 1.14-.521 1.79C62.722 46.332 61.783 48 60.252 48c-.835 0-1.252-.421-1.252-.947 0-.421.243-.86.748-.86.47 0 .643.316.643.579 0 .333-.278.35-.278.561 0 .106.104.158.26.158 1.131 0 1.653-2.772 1.914-3.772l1.513-6h-1.34l.157-.666zM57 39.5a2.49 2.49 0 0 1-2.5 2.5c-1.407 0-2.5-1.111-2.5-2.537C52 38.074 53.111 37 54.537 37 55.889 37 57 38.13 57 39.5zm-1.222 0c0-.722-.574-1.278-1.241-1.278-.778 0-1.315.556-1.315 1.241 0 .778.556 1.315 1.278 1.315s1.278-.556 1.278-1.278zM44.773 48a10.708 10.708 0 0 0 3-5.41 9.755 9.755 0 0 0 0-4.18 10.777 10.777 0 0 0-1.664-3.83A10.631 10.631 0 0 0 44.773 33H44c.964 1.18 1.661 2.42 2.092 3.718.432 1.298.647 2.559.647 3.782 0 1.223-.215 2.484-.647 3.782C45.662 45.58 44.964 46.819 44 48h.773zM35.617 37.053h.644c1.096 0 1.009-1.351 1.756-2.474.54-.825 1.287-1.579 2.61-1.579.869 0 1.373.421 1.373 1.035 0 .491-.365.702-.713.702-.487 0-.609-.193-.609-.439 0-.245.157-.509.157-.649 0-.088-.052-.14-.261-.14-.87 0-1.548.947-1.913 2.316l-.33 1.228h1.39l-.208.666h-1.322l-1.374 5.369c-.121.473-.26 1.14-.521 1.79C35.722 46.332 34.783 48 33.252 48c-.835 0-1.252-.421-1.252-.947 0-.421.243-.86.748-.86.47 0 .643.316.643.579 0 .333-.278.35-.278.561 0 .106.104.158.26.158 1.131 0 1.653-2.772 1.914-3.772l1.513-6h-1.34l.157-.666zM32 39.5a2.49 2.49 0 0 1-2.5 2.5c-1.407 0-2.5-1.111-2.5-2.537C27 38.074 28.111 37 29.537 37 30.889 37 32 38.13 32 39.5zm-1.222 0c0-.722-.574-1.278-1.241-1.278-.778 0-1.315.556-1.315 1.241 0 .778.556 1.315 1.278 1.315s1.278-.556 1.278-1.278zM20.617 37.053h.644c1.096 0 1.009-1.351 1.756-2.474.54-.825 1.287-1.579 2.61-1.579.869 0 1.373.421 1.373 1.035 0 .491-.365.702-.713.702-.487 0-.609-.193-.609-.439 0-.245.157-.509.157-.649 0-.088-.052-.14-.261-.14-.87 0-1.548.947-1.913 2.316l-.33 1.228h1.39l-.208.666h-1.322l-1.374 5.369c-.121.473-.26 1.14-.521 1.79C20.722 46.332 19.783 48 18.252 48c-.835 0-1.252-.421-1.252-.947 0-.421.243-.86.748-.86.47 0 .643.316.643.579 0 .333-.278.35-.278.561 0 .106.104.158.26.158 1.131 0 1.653-2.772 1.914-3.772l1.513-6h-1.34l.157-.666zM15.227 48a10.708 10.708 0 0 1-3-5.41 9.755 9.755 0 0 1 0-4.18 10.777 10.777 0 0 1 1.664-3.83c.398-.575.843-1.101 1.336-1.58H16c-.964 1.18-1.661 2.42-2.092 3.718-.432 1.298-.647 2.559-.647 3.782 0 1.223.215 2.484.647 3.782.43 1.298 1.128 2.537 2.092 3.718h-.773z"></path></g></svg>