<svg width="80" height="80" viewBox="0 0 80 80" xmlns="http://www.w3.org/2000/svg"><g fill="#555" fill-rule="evenodd"><path d="M32.617 37.053h.644c1.096 0 1.009-1.351 1.756-2.474.54-.825 1.287-1.579 2.61-1.579.869 0 1.373.421 1.373 1.035 0 .491-.365.702-.713.702-.487 0-.609-.193-.609-.439 0-.245.157-.509.157-.649 0-.088-.052-.14-.261-.14-.87 0-1.548.947-1.913 2.316l-.33 1.228h1.39l-.208.666h-1.322l-1.374 5.369c-.121.473-.26 1.14-.521 1.79C32.722 46.332 31.783 48 30.252 48c-.835 0-1.252-.421-1.252-.947 0-.421.243-.86.748-.86.47 0 .643.316.643.579 0 .333-.278.35-.278.561 0 .106.104.158.26.158 1.131 0 1.653-2.772 1.914-3.772l1.513-6h-1.34l.157-.666zM45 35.756V35h-3v.756zM50.247 37.488c0 .224.014.393.041.507a.586.586 0 0 0 .145.278c.069.071.168.127.298.168.13.04.293.071.49.093.197.02.457.035.779.043V39h-4.642v-.423c.465-.02.797-.045.996-.078a1.26 1.26 0 0 0 .455-.148.57.57 0 0 0 .23-.278c.047-.12.072-.315.072-.585V32.79c0-.154-.03-.267-.088-.339-.059-.071-.145-.107-.258-.107-.134 0-.324.064-.572.191-.247.128-.552.303-.917.527L47 32.616 49.94 31h.1c.155 0 .23.083.226.25 0 .045-.003.135-.01.268-.005.134-.009.475-.009 1.023v4.947z"></path></g></svg>