<svg width="80" height="80" viewBox="0 0 80 80" xmlns="http://www.w3.org/2000/svg"><g fill="#555" fill-rule="evenodd"><path d="M56.773 48a10.708 10.708 0 0 0 3-5.41 9.755 9.755 0 0 0 0-4.18 10.777 10.777 0 0 0-1.664-3.83A10.631 10.631 0 0 0 56.773 33H56c.964 1.18 1.661 2.42 2.092 3.718.432 1.298.647 2.559.647 3.782 0 1.223-.215 2.484-.647 3.782C57.662 45.58 56.964 46.819 56 48h.773zM50.156 38.72l-.375-.978c-.225-.586-.581-1.315-1.406-1.742l-2.475.587.056.32a2.21 2.21 0 0 1 .713-.107c1.031 0 1.518.729 1.837 1.582l.619 1.636-1.219 1.795c-.6.871-1.087 1.05-1.312 1.05-.469 0-.394-.356-.882-.356a.688.688 0 0 0-.712.657c0 .392.3.836.975.836 1.05 0 1.594-.764 2.194-1.636l1.181-1.742.75 2.01c.244.64.6 1.368 1.369 1.368 1.087 0 1.931-1.707 2.156-1.973l-.263-.178c-.393.764-.843 1.013-1.143 1.013-.844 0-1.275-2.4-1.838-3.502l1.032-1.511c.262-.391.468-.676 1.03-.676.32 0 .413.16.826.16.487 0 .731-.409.731-.746 0-.374-.319-.587-.919-.587-.937 0-1.594.782-2.081 1.493l-.844 1.227zM42.227 48a10.708 10.708 0 0 1-3-5.41 9.755 9.755 0 0 1 0-4.18 10.777 10.777 0 0 1 1.664-3.83c.398-.575.843-1.101 1.336-1.58H43c-.964 1.18-1.661 2.42-2.092 3.718-.432 1.298-.647 2.559-.647 3.782 0 1.223.215 2.484.647 3.782.43 1.298 1.128 2.537 2.092 3.718h-.773z"></path><g><path d="M33 36h.535l1.04-1.568c.252-.367.425-.638.425-.87 0-.388-.268-.562-.472-.562-.331 0-.489.155-.599.445L33 36zM23.617 37.053h.644c1.096 0 1.009-1.351 1.756-2.474.54-.825 1.287-1.579 2.61-1.579.869 0 1.373.421 1.373 1.035 0 .491-.365.702-.713.702-.487 0-.609-.193-.609-.439 0-.245.157-.509.157-.649 0-.088-.052-.14-.261-.14-.87 0-1.548.947-1.913 2.316l-.33 1.228h1.39l-.208.666h-1.322l-1.374 5.369c-.121.473-.26 1.14-.521 1.79C23.722 46.332 22.783 48 21.252 48c-.835 0-1.252-.421-1.252-.947 0-.421.243-.86.748-.86.47 0 .643.316.643.579 0 .333-.278.35-.278.561 0 .106.104.158.26.158 1.131 0 1.653-2.772 1.914-3.772l1.513-6h-1.34l.157-.666z"></path></g></g></svg>