<svg width="80" height="80" viewBox="0 0 80 80" xmlns="http://www.w3.org/2000/svg"><g fill="#555" fill-rule="evenodd"><path d="M54.938 40.3c0 3.582-1.44 6.174-4.05 6.174-1.638 0-2.754-.954-3.348-2.484-.396-1.008-.54-2.106-.54-3.816C47 36.592 48.44 34 51.05 34c1.548 0 2.376.504 3.06 1.656.594.99.828 2.664.828 4.644zm-6.318-.378h4.698c-.018-2.196-.252-5.418-2.52-5.418-1.242 0-2.178 1.08-2.178 4.86v.558zm4.698.684v-.108H48.62c.054 2.574.36 5.472 2.502 5.472 1.53 0 2.196-2.196 2.196-5.364zM26.768 40.695c-.472-.29-.724-.785-.724-1.16 0-.802.538-1.16 1.262-1.16 1.01 0 1.516.563 1.903 2.098h.252l-.084-2.32h-.185c-.135.154-.202.171-.27.171-.117 0-.286-.051-.47-.136-.354-.17-.725-.188-1.129-.188-1.38 0-2.323.75-2.323 2.098 0 .87.623 1.689 2.02 2.473l.91.512c.555.307.892.75.892 1.28 0 .699-.54 1.262-1.398 1.262-1.161 0-1.784-.75-2.138-2.405h-.27v2.678h.22c.1-.17.202-.205.404-.205.185 0 .37.017.774.153.387.137.876.154 1.23.154C28.922 46 30 45.01 30 43.868c0-.972-.404-1.433-1.481-2.098l-1.751-1.075zM34 35c0-.549-.431-1-1-1-.549 0-1 .451-1 1 0 .569.431 1 .98 1 .589 0 1.02-.431 1.02-1zM35 46v-.26c-1.114-.088-1.249-.28-1.249-1.566V38.07l-.067-.07-2.616.957v.278c.303-.087.556-.087.708-.087.422 0 .557.278.557 1.095v3.948c0 1.322-.168 1.479-1.333 1.548V46h4zM44 46v-.26c-.836-.088-1.04-.28-1.04-1.218v-3.844c0-1.721-.717-2.678-2.013-2.678-.785 0-1.57.383-2.457 1.409h-.017v-1.357L38.337 38c-.836.313-1.399.504-2.337.783v.295c.12-.052.307-.07.495-.07.477 0 .597.279.597 1.131v4.226c0 1.026-.188 1.305-1.058 1.374V46h3.6v-.26c-.87-.07-1.11-.314-1.11-.992v-4.8c.785-.783 1.195-.991 1.757-.991.836 0 1.246.521 1.246 1.756v3.46c0 1.149-.205 1.497-1.058 1.566l-.017.261H44z"></path></g></svg>