<svg width="80" height="80" viewBox="0 0 80 80" xmlns="http://www.w3.org/2000/svg"><g fill="#555" fill-rule="evenodd"><path d="M55.938 40.3c0 3.582-1.44 6.174-4.05 6.174-1.638 0-2.754-.954-3.348-2.484-.396-1.008-.54-2.106-.54-3.816C48 36.592 49.44 34 52.05 34c1.548 0 2.376.504 3.06 1.656.594.99.828 2.664.828 4.644zm-6.318-.378h4.698c-.018-2.196-.252-5.418-2.52-5.418-1.242 0-2.178 1.08-2.178 4.86v.558zm4.698.684v-.108H49.62c.054 2.574.36 5.472 2.502 5.472 1.53 0 2.196-2.196 2.196-5.364zM28.783 43.174c-.744 1.192-1.302 1.6-2.186 1.6-1.426 0-2.403-1.361-2.403-3.319 0-1.77.853-2.961 2.108-2.961.558 0 .76.187.915.817l.093.374c.124.494.403.783.744.783a.724.724 0 0 0 .729-.715c0-.953-1.085-1.753-2.388-1.753-.728 0-1.473.306-2.093.868-.837.766-1.302 1.94-1.302 3.353C23 44.417 24.225 46 25.946 46c.666 0 1.256-.238 1.783-.715.465-.408.775-.902 1.271-1.957l-.217-.154zM38 41.898C38 44.264 36.367 46 33.918 46 31.723 46 30 44.315 30 41.949S31.633 38 34.082 38C36.295 38 38 39.549 38 41.898zm-1.633.46c0-1.158-.326-2.332-.907-3.03-.435-.511-.943-.851-1.723-.851-1.252 0-2.104 1.004-2.104 2.706 0 1.345.29 2.57.961 3.49.4.544.98.85 1.633.85 1.342 0 2.14-1.191 2.14-3.166zM40.768 40.695c-.472-.29-.724-.785-.724-1.16 0-.802.538-1.16 1.262-1.16 1.01 0 1.516.563 1.903 2.098h.252l-.084-2.32h-.185c-.135.154-.202.171-.27.171-.117 0-.286-.051-.47-.136-.354-.17-.725-.188-1.129-.188-1.38 0-2.323.75-2.323 2.098 0 .87.623 1.689 2.02 2.473l.91.512c.555.307.892.75.892 1.28 0 .699-.54 1.262-1.398 1.262-1.161 0-1.784-.75-2.138-2.405h-.27v2.678h.22c.1-.17.202-.205.404-.205.185 0 .37.017.774.153.387.137.876.154 1.23.154C42.922 46 44 45.01 44 43.868c0-.972-.404-1.433-1.481-2.098l-1.751-1.075z"></path></g></svg>