<svg width="80" height="80" viewBox="0 0 80 80" xmlns="http://www.w3.org/2000/svg"><g fill="#555" fill-rule="evenodd"><path d="M52.773 48a10.708 10.708 0 0 0 3-5.41 9.755 9.755 0 0 0 0-4.18 10.777 10.777 0 0 0-1.664-3.83A10.631 10.631 0 0 0 52.773 33H52c.964 1.18 1.661 2.42 2.092 3.718.432 1.298.647 2.559.647 3.782 0 1.223-.215 2.484-.647 3.782C53.662 45.58 52.964 46.819 52 48h.773zM46.156 38.72l-.375-.978c-.225-.586-.581-1.315-1.406-1.742l-2.475.587.056.32a2.21 2.21 0 0 1 .713-.107c1.031 0 1.518.729 1.837 1.582l.619 1.636-1.219 1.795c-.6.871-1.087 1.05-1.312 1.05-.469 0-.394-.356-.882-.356a.688.688 0 0 0-.712.657c0 .392.3.836.975.836 1.05 0 1.594-.764 2.194-1.636l1.181-1.742.75 2.01c.244.64.6 1.368 1.369 1.368 1.087 0 1.931-1.707 2.156-1.973l-.263-.178c-.393.764-.843 1.013-1.143 1.013-.844 0-1.275-2.4-1.838-3.502l1.032-1.511c.262-.391.468-.676 1.03-.676.32 0 .413.16.826.16.487 0 .731-.409.731-.746 0-.374-.319-.587-.919-.587-.937 0-1.594.782-2.081 1.493l-.844 1.227zM38.227 48a10.708 10.708 0 0 1-3-5.41 9.755 9.755 0 0 1 0-4.18 10.777 10.777 0 0 1 1.664-3.83c.398-.575.843-1.101 1.336-1.58H39c-.964 1.18-1.661 2.42-2.092 3.718-.432 1.298-.647 2.559-.647 3.782 0 1.223.215 2.484.647 3.782.43 1.298 1.128 2.537 2.092 3.718h-.773zM31.773 41.798c-.94 1.179-1.15 1.387-1.429 1.387-.157 0-.279-.139-.279-.312 0-.19.28-1.266.576-2.168.522-1.63.836-2.913.836-3.347 0-.641-.331-1.161-1.133-1.161-1.08 0-2.44 1.127-4.008 3.658l2.108-7.751-.122-.104c-1.01.225-1.69.347-2.736.468v.26h.47c.314 0 .715.14.715.434 0 .243-.087.537-.226 1.075L24 43.844h1.307c.697-2.67.976-3.278 1.673-4.335.907-1.37 2.022-2.428 2.65-2.428.4 0 .488.173.488.433 0 .07-.053.295-.122.573l-.959 3.59c-.227.849-.349 1.387-.349 1.595 0 .45.297.728.767.728.89 0 1.482-.468 2.545-1.977l-.227-.225z"></path></g></svg>